# File produced by Open Asset Import Library (http://www.assimp.sf.net)
# (assimp v3.1.228943826)

mtllib %E5%B0%8F%E5%B1%B1%E8%B4%B4%E5%9B%BE.mtl

# vertex positions
v -2.262924 -1.102233 0.443045
v -1.428652 -1.111597 -1.322267
v -0.904758 -1.109765 1.688704
v 0.793436 2.319044 0.277905
v 0.755528 1.003422 0.462817
v 0.809348 1.725373 0.044549
v -0.867253 2.632237 1.076616
v -1.245357 2.414052 0.775404
v -1.196264 1.572905 0.847289
v 0.015838 3.760116 -0.890800
v 0.084725 4.094135 -0.759381
v 0.266826 3.814661 -0.679860
v 0.072279 2.292184 1.135873
v -0.320301 1.529730 1.151676
v 0.042577 1.385055 1.139140
v 1.080899 -1.111125 0.748932
v 1.605496 0.025399 -0.917977
v 1.670301 0.103642 -0.330203
v 1.624462 -0.377244 -0.756654
v -0.057044 0.398590 -1.628707
v 0.190830 0.834033 -1.579303
v 0.639139 -0.025417 -1.795245
v -2.469573 -0.198909 0.186090
v -2.394432 -0.047997 -0.206691
v -2.328821 -0.426358 -0.225282
v -2.279589 -0.341954 -1.074059
v -2.196994 0.441472 -1.141171
v -2.100996 0.310521 -1.484952
v -1.969640 1.761616 -0.174326
v -1.614081 1.614225 -0.414246
v -1.941033 0.953870 -0.612366
v -0.894635 4.019485 -0.355729
v -1.257463 3.063494 0.033474
v -0.831386 4.235366 -0.010683
v -1.883129 -1.088730 1.275046
v -1.518934 0.783194 0.973802
v -1.767262 0.313403 1.025269
v -1.501698 0.081013 1.111534
v -0.360945 1.380111 1.395411
v 0.254376 1.135684 1.320271
v -0.444348 0.281623 1.906987
v -0.518233 0.982664 1.643546
v -0.948654 0.127114 1.703647
v 1.328128 0.537434 0.275007
v 0.274612 -1.113524 -1.514343
v 1.731118 -1.096347 -0.643720
v 1.019709 0.019438 1.505687
v 0.462469 -0.193478 1.608092
v 0.865882 -0.339510 1.556745
v 1.677483 0.095681 0.474850
v 1.619666 -0.533835 0.813642
v 1.813404 -0.631435 0.512185
v 0.046469 1.632549 -1.132323
v 0.465751 1.638453 -1.317306
v 1.535584 0.767223 -0.724873
v 1.291320 1.313231 -0.104511
v 1.628096 0.525963 -0.464612
v -0.639172 2.793102 -1.133068
v 0.248315 1.805049 -1.101138
v -0.909683 3.103678 -0.956124
v -0.540769 4.451065 -0.703412
v -0.962513 2.135459 -0.993613
v -0.617100 1.654948 -1.097487
v -1.366634 2.013870 -0.120009
v -1.329519 2.681829 -0.523159
v -1.245224 1.786967 -0.759292
v -0.631285 0.593544 -1.646558
v -0.938935 1.755418 -1.365668
v -0.723892 1.426253 -1.271977
v -1.599803 1.319133 -0.527371
v -1.893318 1.473011 -1.099515
v -1.086005 1.864009 -0.934403
v -0.836718 1.588926 -1.052407
v 1.269522 -0.153875 -1.559027
v 1.164650 -0.374731 -1.524639
v 0.622420 -0.225523 -1.783250
v 0.364832 4.050561 0.090386
v 0.669854 3.141700 -0.239151
v 0.129878 4.633193 -0.283291
v -0.466583 4.893746 -0.287754
v -0.692085 4.469893 -0.386535
v -1.062728 0.059756 -2.017241
v -1.478169 0.157394 -2.029566
v -1.407818 1.072937 -1.827038
v -0.847684 -1.098604 -2.090849
v -0.616865 2.813832 1.114746
v -0.670630 4.549161 0.148521
v -0.504663 4.498187 0.495449
v 0.133373 -1.072502 -2.236637
v 0.810947 -0.665339 -2.089603
v 0.929291 -1.099609 -1.707107
v -0.154856 0.060304 -1.729418
v -0.301668 0.419837 -1.674830
v -1.742115 2.130766 -0.056397
v -1.994603 0.972071 0.782332
v -1.857250 1.946966 0.443251
v -2.028634 1.684997 0.363212
v -0.022582 0.110250 -1.690701
v 0.923149 -0.396746 -1.796071
v 0.495427 0.025411 -1.910977
v 0.430111 0.153716 -2.193347
v 0.282023 0.397228 -1.813977
v -0.177504 -0.119654 -2.306005
v 0.129843 0.399286 -2.224929
v 0.109777 -0.076967 -2.410150
v 0.966063 -0.761948 1.747431
v 0.304825 -0.581508 1.962195
v 0.297512 -0.843208 2.021226
v -0.748703 -0.522212 2.030792
v -0.066933 -0.394131 1.913995
v -0.604948 -0.368894 1.882911
v -0.093888 0.146176 -1.729695
v -0.104179 0.144984 -1.685672
v -0.141920 0.312474 -2.133803
v -0.240540 0.177178 -1.936266
v 0.730050 2.723458 0.453980
v 0.745438 2.846688 -0.458336
v 0.626320 3.279547 0.214080
v -0.263952 4.196422 0.663918
v 0.139642 2.894552 1.082061
v -0.044830 0.458122 -1.929455
v 0.202885 0.492803 -2.089749
v -0.097765 0.138743 -1.683116
v 0.677643 0.397724 1.461679
v 0.959273 0.844736 1.222128
v 0.585972 1.031111 1.151152
v 1.138483 0.813384 0.651280
v 1.082092 0.608905 0.432174
v -0.099945 0.137691 -1.684583
v -2.407298 -1.025821 0.514946
v -2.009628 -1.022618 1.335495
v -1.734518 -0.097976 1.072752
v -1.594912 0.328182 1.272929
v 1.760970 -0.847672 -0.870848
v 1.828025 -0.508913 -0.331009
v 1.571894 -0.816317 -1.308519
v -0.104121 0.141420 -1.685916
v -0.112108 0.134497 -1.690947
v -0.101110 0.133814 -1.686202
v -0.374712 0.373525 -1.988814
v -0.274480 -0.344962 -2.246499
v -1.110430 -0.532286 -2.184460
v -0.788871 -0.125070 -2.300206
v -0.696935 -0.646518 -2.362777
v -0.107755 0.149365 -1.685529
v -0.103112 0.140803 -1.685545
v -2.387137 -0.537106 -0.482133
v -2.307200 -0.594844 -1.064186
v -2.562069 -0.731400 -0.133268
v -2.430479 -0.737040 0.393732
v -2.377208 -0.509359 0.216618
v -0.846503 3.346512 0.865702
v -0.993760 3.608791 0.551556
v -1.877698 0.315981 -1.766809
v -1.866291 1.332835 -1.340860
v -1.554972 1.202932 -1.706109
v -1.246021 2.028958 -1.179568
v -1.573921 1.674318 -0.869124
v 1.552158 -0.269368 0.032922
v 1.821742 -0.302441 0.327338
v 1.726554 -0.072557 0.181368
v -0.003022 0.350008 -1.766702
v -1.816569 0.113524 1.532743
v -1.859429 -0.006635 1.265374
v -1.921803 -0.348047 1.408379
v -1.034462 -0.499540 1.875314
v -0.761864 -0.425805 1.927472
v -0.819070 1.125788 1.366558
v -0.873512 1.702696 1.099362
v 0.815998 1.493441 -1.319799
v 0.481284 1.021429 -1.585040
v 0.949947 0.728700 -1.547787
v -1.799423 -0.570122 -1.708823
v -1.240808 -0.310128 -1.932132
v -1.518341 -0.731505 -2.055501
v -2.577146 -1.044520 -0.510998
v -2.369434 -0.905672 -1.217688
v -2.110060 -1.089083 -1.353215
v 0.795477 2.549512 -0.360412
v 0.822931 1.842973 -0.171087
v 1.021132 1.702445 -0.919428
v 0.813571 2.030764 -0.801161
v -1.175415 0.397291 1.147736
v -1.274957 -0.114451 1.100255
v -1.162272 0.020930 1.372095
v -1.346476 0.759349 0.982157
v -2.058875 -0.254348 -1.641931
v -2.002340 -0.474587 -1.468509
v -1.603153 -0.296861 -1.925690
v -0.934536 -0.292153 1.894599
v -1.331798 -0.133853 1.707195
v -1.373342 0.330309 1.342673
v -1.293349 1.309469 -0.502093
v -0.593669 -0.033777 1.916512
v -0.003705 -0.195471 1.922944
v 0.478348 0.476695 1.410881
v 0.434053 0.780529 1.277539
v 0.722563 2.093512 -0.654907
v 0.349107 2.580638 -1.061687
v 0.567246 3.031912 -0.742047
v 0.550423 2.419594 -0.896272
v -2.326078 0.372482 0.576040
v -2.392082 0.576244 0.184014
v 0.126232 0.245943 -1.688223
v -0.763710 0.537607 -1.799825
v -1.191514 1.202791 -1.731581
v -1.445608 1.695240 -1.479404
v 0.560981 2.737045 0.826383
v 0.639750 3.046647 0.565540
v 0.300080 3.483252 0.789750
v 0.537333 2.001966 0.940860
v 0.614114 1.193118 0.835652
v 0.679271 2.373482 0.703055
v -2.230773 -0.716099 0.858208
v -2.423713 -0.875038 0.495948
v -2.191422 -0.262125 0.814499
v -2.426293 -0.265683 0.329705
v -1.051827 -0.272566 -2.193659
v 1.713092 -0.511199 0.192639
v 1.954110 -1.028795 -0.268638
v -1.792154 -0.716497 1.500090
v -1.890492 -0.382574 1.215865
v -1.990442 -0.809201 1.316906
v -1.772706 -0.892404 1.551580
v -1.217287 -0.857448 1.917299
v 0.259293 4.174203 0.419085
v -0.080109 4.554615 0.392652
v 0.144245 4.506296 0.298354
v -0.006696 4.885144 -0.270754
v 1.148620 -0.441301 1.414387
v 1.346334 -0.001592 1.125692
v 0.727717 1.120306 0.600734
v 0.883640 1.047919 1.058712
v -1.328496 -1.055758 -2.130730
v -2.132798 -0.643210 -1.489741
v -0.361191 4.836167 -0.557300
v -2.191242 1.337953 0.278214
v -2.148135 0.718691 -0.457383
v -2.359439 0.673131 -0.108195
v -1.331851 -1.053845 1.841952
v -0.302857 -1.088553 2.001288
v 0.956719 -1.092445 1.506859
v -0.021674 -1.020945 2.060889
v 0.385721 1.951435 -1.037915
v 0.871320 1.777562 -1.051469
v -0.659469 -0.894079 2.109035
v -0.495462 -1.035098 2.087857
v 0.967526 1.814716 -0.234240
v -1.351258 2.124084 0.279116
v -1.774099 2.221019 0.221022
v -1.603732 1.930965 0.548429
v -1.684195 1.463536 0.727450
v -1.272995 1.471725 0.698833
v 1.905236 -1.013869 0.284001
v 1.434130 -0.988619 1.136204
v 1.334669 -1.092966 1.065394
v 1.234918 -0.608971 1.460182
v 1.377227 -0.395311 1.070934
v -0.613407 1.465153 1.128868
v -0.642201 1.400854 1.270575
v 0.926160 -0.988953 1.671154
v -1.211851 -0.042954 1.612653
v -1.278955 0.286865 1.523578
v -1.490965 0.120486 1.684592
v -2.035273 0.414548 -0.643247
v -2.426723 0.198877 -0.481595
v -2.322591 0.263068 -0.327199
v -2.173841 0.231545 -0.924679
v -2.234008 -0.435071 -0.834810
v -0.323977 1.243414 -1.385889
v -0.093123 1.466976 -1.127007
v -0.100637 -0.443185 -2.285153
v -0.556364 -0.434337 -2.356489
v 0.465954 -0.344994 1.781261
v -0.076360 0.471029 1.866913
v 0.379432 0.293757 1.636696
v -2.459860 -0.080811 -0.737620
v -2.571281 -0.075525 -0.487886
v -0.597797 1.508710 -1.264591
v -0.960629 -0.024781 1.699456
v -1.381997 -0.430322 1.764683
v 0.525109 -0.424461 -2.054254
v -0.039872 -0.318071 -2.409244
v 0.292415 -0.355479 -2.372149
v 0.157654 -0.501860 -2.336257
v -0.865069 3.643237 -0.765877
v -1.364644 2.718629 -0.222155
v -1.064149 3.413004 -0.593670
v 1.155257 0.749175 0.932778
v 1.431561 0.059045 0.739966
v 1.309285 0.221784 0.495054
v -1.068638 0.522121 1.407961
v 0.963163 0.247126 1.476152
v 1.151652 0.216643 1.308902
v -0.947299 -0.695420 2.033678
v -1.553538 0.330656 1.523605
v 0.523607 -0.668223 -2.196251
v -0.554516 -1.058016 -2.364835
v 0.025957 4.519867 -0.583196
v 0.399076 3.836628 -0.339231
v -1.963869 -0.384345 1.103414
v 0.847787 -0.446771 1.672555
v 0.314131 -0.069341 -2.358104
v 0.373848 2.409356 1.056103
v 0.251857 1.501951 1.100584
v 0.467866 1.480685 0.976942
v 0.284440 1.265676 1.301831
v 0.056928 4.679322 -0.466673
v -0.072865 4.878591 -0.416603
v -0.243877 1.114589 1.606760
v 0.047066 0.926169 1.626861
v 0.563120 1.192197 1.142910
v 0.620606 2.063465 -0.829879
v 1.693563 -0.810410 0.742170
v 0.169835 0.521505 -1.924550
v 1.375688 -1.051942 -1.566666
v -2.086053 0.929790 -0.938905
v -0.971762 0.361077 -1.907601
v 1.835866 -1.078810 0.085835
v -0.638043 0.373949 -2.086903
v -1.721541 -0.372523 1.724896
v 1.419315 -0.310229 0.886306
v -2.353879 -0.456147 0.810860
v 0.410041 0.028152 -1.749151
v 1.433387 0.025313 0.249418
v 0.086065 2.618331 -1.133860
v -0.893749 1.108967 1.064215
v -1.129647 0.525710 0.960390
v 1.265507 0.060655 0.376338
v 0.168996 3.161621 -1.007977
v -1.603525 1.765427 -1.097116
v -1.114753 2.588819 -0.825880
v -2.059190 0.930818 -1.273806
v -1.200494 0.944548 0.859556
v -1.876267 -0.595100 1.516006
v 1.486015 -0.537460 -1.280327
v 0.213474 -0.542078 -2.220710
v -1.264516 -0.475082 1.708646
v -1.057140 1.384552 1.011348
v 0.437210 -0.213268 -1.777632
v 0.019690 4.005892 0.707583
v -0.949535 2.579348 -1.025566
v 1.521282 -0.765199 1.116183
v 1.630977 -1.009666 -1.197899
v -1.350865 2.653761 0.429652
v 1.414581 0.718598 -1.136878
v 1.502846 -0.006249 -1.282435
v 1.223243 0.382104 -1.522181
v -2.151619 1.595699 0.050233
v -1.347773 -0.866958 -2.196492
v -0.715275 -0.908742 -2.412230
v 1.383482 0.474356 -1.344869
v -2.072613 -0.036550 0.929557
v -1.782596 -0.275725 1.056909
v -0.711658 -0.196859 1.861642

# UV coordinates
vt 0.665084 0.128455
vt 0.819842 0.146317
vt 0.611370 0.264918
vt 0.334604 0.628418
vt 0.444746 0.631221
vt 0.374788 0.657289
vt 0.314714 0.452732
vt 0.313018 0.409550
vt 0.381282 0.394714
vt 0.071801 0.394688
vt 0.064000 0.423071
vt 0.045042 0.402833
vt 0.354377 0.525753
vt 0.411861 0.482465
vt 0.425547 0.518489
vt 0.732656 0.391279
vt 0.762899 0.587853
vt 0.717258 0.569229
vt 0.768068 0.552563
vt 0.849121 0.740039
vt 0.807661 0.739488
vt 0.852284 0.665945
vt 0.444191 0.186635
vt 0.410307 0.172816
vt 0.428850 0.144991
vt 0.353739 0.102474
vt 0.316751 0.153245
vt 0.297595 0.127681
vt 0.320208 0.289485
vt 0.291795 0.278628
vt 0.319210 0.219606
vt 0.156005 0.436442
vt 0.232315 0.395248
vt 0.163781 0.464548
vt 0.612435 0.180538
vt 0.370703 0.000048
vt 0.403585 0.011365
vt 0.410866 0.043837
vt 0.433613 0.476285
vt 0.453747 0.532214
vt 0.528680 0.453190
vt 0.468672 0.457665
vt 0.529373 0.407306
vt 0.599113 0.618157
vt 0.650851 0.582160
vt 0.615405 0.686238
vt 0.879974 0.267240
vt 0.854459 0.398882
vt 0.559265 0.577039
vt 0.571192 0.530176
vt 0.587380 0.563039
vt 0.656125 0.521781
vt 0.646824 0.469874
vt 0.679672 0.471207
vt 0.744976 0.788773
vt 0.735650 0.753205
vt 0.719593 0.630922
vt 0.655601 0.651653
vt 0.710975 0.603781
vt 0.139270 0.323215
vt 0.077931 0.237200
vt 0.097974 0.226490
vt 0.156643 0.353254
vt 0.108540 0.452286
vt 0.183079 0.281502
vt 0.155188 0.235379
vt 0.276806 0.323903
vt 0.216339 0.343680
vt 0.229792 0.270876
vt 0.156258 0.129017
vt 0.187102 0.223049
vt 0.164113 0.208010
vt 0.288284 0.254580
vt 0.265905 0.215860
vt 0.203430 0.263500
vt 0.173038 0.235059
vt 0.820206 0.614968
vt 0.836830 0.604995
vt 0.864440 0.653859
vt 0.193423 0.586470
vt 0.250533 0.645569
vt 0.126594 0.576636
vt 0.108090 0.506047
vt 0.129780 0.466978
vt 0.204305 0.074392
vt 0.237689 0.090082
vt 0.221593 0.158887
vt 0.892922 0.167819
vt 0.307951 0.475761
vt 0.155564 0.491749
vt 0.175942 0.507672
vt 0.929457 0.237643
vt 0.959657 0.295880
vt 0.911880 0.310616
vt 0.109126 0.086821
vt 0.127962 0.114591
vt 0.107343 0.116617
vt 0.305882 0.318609
vt 0.415903 0.304705
vt 0.342411 0.332233
vt 0.354128 0.311124
vt 0.890787 0.526130
vt 0.854617 0.530260
vt 0.876527 0.516227
vt 0.973261 0.325452
vt 0.964566 0.359239
vt 0.958948 0.442470
vt 0.942904 0.460932
vt 0.928583 0.431178
vt 0.940397 0.518294
vt 0.915532 0.468949
vt 0.950468 0.496515
vt 0.643990 0.419287
vt 0.588305 0.383262
vt 0.606241 0.369604
vt 0.593444 0.418556
vt 0.588144 0.477593
vt 0.578081 0.432004
vt 0.881146 0.510868
vt 0.881922 0.513140
vt 0.908721 0.492268
vt 0.899688 0.510318
vt 0.308320 0.606651
vt 0.266061 0.672842
vt 0.257380 0.608076
vt 0.203109 0.520153
vt 0.308289 0.535319
vt 0.890392 0.479486
vt 0.908272 0.453935
vt 0.881969 0.512178
vt 0.523756 0.555102
vt 0.490532 0.586411
vt 0.462512 0.565310
vt 0.601226 0.580714
vt 0.625962 0.584062
vt 0.881835 0.512003
vt 0.655436 0.117282
vt 0.602330 0.172186
vt 0.435949 0.018650
vt 0.425318 0.061516
vt 0.882140 0.406346
vt 0.905371 0.439629
vt 0.859116 0.461359
vt 0.914615 0.379647
vt 0.881818 0.511949
vt 0.881739 0.511829
vt 0.881841 0.512011
vt 0.143679 0.093853
vt 0.128924 0.082656
vt 0.136406 0.031615
vt 0.213981 0.021398
vt 0.180357 0.049042
vt 0.175658 0.006188
vt 0.881725 0.511811
vt 0.881778 0.511903
vt 0.726299 0.047289
vt 0.779584 0.047807
vt 0.695534 0.069681
vt 0.652309 0.090453
vt 0.660067 0.062732
vt 0.259954 0.466234
vt 0.228901 0.454521
vt 0.271610 0.114258
vt 0.259930 0.196074
vt 0.232199 0.172095
vt 0.211109 0.241789
vt 0.251017 0.246563
vt 0.744443 0.517916
vt 0.702026 0.529230
vt 0.681230 0.501694
vt 0.680262 0.521702
vt 0.872787 0.485645
vt 0.452156 0.058949
vt 0.446766 0.036570
vt 0.477495 0.034079
vt 0.584434 0.394786
vt 0.582071 0.418174
vt 0.444865 0.432249
vt 0.384956 0.433841
vt 0.734254 0.723295
vt 0.784037 0.726018
vt 0.783303 0.681597
vt 0.853170 0.068916
vt 0.916824 0.077387
vt 0.883538 0.101048
vt 0.731494 0.083282
vt 0.787088 0.074683
vt 0.803689 0.095553
vt 0.294351 0.672661
vt 0.358243 0.674428
vt 0.696851 0.713443
vt 0.675468 0.737663
vt 0.488524 0.148117
vt 0.444260 0.150615
vt 0.458039 0.126868
vt 0.362267 0.008528
vt 0.305658 0.081096
vt 0.323993 0.067247
vt 0.297058 0.047653
vt 0.263464 0.061458
vt 0.233238 0.047259
vt 0.568887 0.405341
vt 0.551927 0.371421
vt 0.430833 0.107591
vt 0.271114 0.269113
vt 0.551660 0.436905
vt 0.571580 0.483539
vt 0.512855 0.541830
vt 0.484297 0.546362
vt 0.320732 0.707356
vt 0.060161 0.298207
vt 0.028684 0.336095
vt 0.039741 0.284934
vt 0.436545 0.246199
vt 0.402422 0.233947
vt 0.926858 0.410134
vt 0.942902 0.412658
vt 0.171013 0.117528
vt 0.204430 0.170040
vt 0.222211 0.209432
vt 0.316636 0.574483
vt 0.287074 0.590873
vt 0.259417 0.555208
vt 0.374821 0.570888
vt 0.440156 0.591251
vt 0.341577 0.591368
vt 0.615291 0.121303
vt 0.650041 0.105501
vt 0.489247 0.227999
vt 0.457176 0.191676
vt 0.205778 0.041951
vt 0.702600 0.498715
vt 0.834377 0.426535
vt 0.513383 0.038841
vt 0.474086 0.018489
vt 0.518243 0.017264
vt 0.570166 0.187322
vt 0.584374 0.194310
vt 0.572658 0.249409
vt 0.198152 0.561214
vt 0.170539 0.537256
vt 0.170400 0.554485
vt 0.110797 0.550857
vt 0.596149 0.590365
vt 0.558802 0.617278
vt 0.481460 0.633239
vt 0.440115 0.616699
vt 0.470208 0.590691
vt 0.882731 0.131159
vt 0.820547 0.061980
vt 0.094171 0.484312
vt 0.369522 0.285901
vt 0.347903 0.210925
vt 0.378894 0.224017
vt 0.588042 0.238859
vt 0.603846 0.317419
vt 0.672030 0.400971
vt 0.605229 0.340209
vt 0.062816 0.247555
vt 0.703498 0.728786
vt 0.704071 0.770800
vt 0.544954 0.293749
vt 0.576542 0.296344
vt 0.591237 0.305931
vt 0.631044 0.703860
vt 0.642516 0.698030
vt 0.661705 0.741767
vt 0.305013 0.359876
vt 0.318239 0.333900
vt 0.342918 0.350173
vt 0.383214 0.341481
vt 0.447222 0.355071
vt 0.383159 0.377972
vt 0.792406 0.440421
vt 0.711365 0.432067
vt 0.715192 0.419614
vt 0.659349 0.457507
vt 0.668812 0.445483
vt 0.695573 0.478550
vt 0.410570 0.451506
vt 0.423739 0.451670
vt 0.656456 0.404798
vt 0.474214 0.109677
vt 0.446661 0.103607
vt 0.459431 0.086215
vt 0.346219 0.181621
vt 0.379582 0.170672
vt 0.384111 0.186507
vt 0.340757 0.150192
vt 0.377309 0.105330
vt 0.132032 0.188917
vt 0.762841 0.794101
vt 0.977461 0.210266
vt 0.945285 0.156371
vt 0.980268 0.191322
vt 0.162836 0.023771
vt 0.588909 0.524717
vt 0.517027 0.484482
vt 0.530845 0.523841
vt 0.376028 0.141429
vt 0.393555 0.153249
vt 0.153891 0.214747
vt 0.540962 0.401868
vt 0.761868 0.031052
vt 0.412271 0.121595
vt 0.481958 0.095689
vt 0.503995 0.085655
vt 0.992560 0.463528
vt 0.965372 0.515240
vt 0.975908 0.490336
vt 0.987099 0.501920
vt 0.146881 0.396696
vt 0.235590 0.360707
vt 0.173193 0.388198
vt 0.494719 0.614478
vt 0.631697 0.521315
vt 0.640285 0.548802
vt 0.540495 0.379005
vt 0.487915 0.399737
vt 0.520935 0.375032
vt 0.540386 0.574837
vt 0.542516 0.594761
vt 0.541845 0.260726
vt 0.558146 0.274153
vt 0.419033 0.074753
vt 0.437321 0.081196
vt 0.985532 0.280221
vt 0.963072 0.270122
vt 0.922222 0.181618
vt 0.000000 0.323927
vt 0.065170 0.460561
vt 0.016555 0.414247
vt 0.474576 0.007509
vt 0.599005 0.557178
vt 0.623418 0.436147
vt 0.830735 0.047472
vt 0.955055 0.481338
vt 0.110566 0.215062
vt 0.345245 0.552198
vt 0.418028 0.541310
vt 0.418529 0.566999
vt 0.443215 0.536804
vt 0.061501 0.477170
vt 0.072473 0.493096
vt 0.461086 0.481918
vt 0.478134 0.503293
vt 0.448538 0.564427
vt 0.678523 0.753111
vt 0.804908 0.478319
vt 0.747444 0.452587
vt 0.889951 0.460175
vt 0.911700 0.347203
vt 0.304097 0.194754
vt 0.589990 0.625231
vt 0.768956 0.473139
vt 0.193178 0.100608
vt 0.804532 0.427828
vt 0.588137 0.163615
vt 0.165108 0.090484
vt 0.490196 0.061389
vt 0.398638 0.062360
vt 0.626466 0.487843
vt 0.463143 0.169011
vt 0.487697 0.166664
vt 0.496745 0.208567
vt 0.960813 0.426721
vt 0.936160 0.404706
vt 0.973794 0.424704
vt 0.670202 0.543347
vt 0.082034 0.302712
vt 0.429620 0.411263
vt 0.499384 0.164464
vt 0.653604 0.550253
vt 0.912791 0.433574
vt 0.067606 0.345744
vt 0.240980 0.232206
vt 0.484793 0.374823
vt 0.466821 0.369870
vt 0.190307 0.323139
vt 0.285267 0.176519
vt 0.033942 0.255691
vt 0.016325 0.258122
vt 0.431570 0.373733
vt 0.356825 0.031156
vt 0.500012 0.039453
vt 0.548464 0.648194
vt 0.816426 0.569958
vt 0.932933 0.389354
vt 0.972131 0.241087
vt 0.995881 0.494066
vt 0.579950 0.372153
vt 0.525001 0.116474
vt 0.512755 0.093660
vt 0.403067 0.406291
vt 0.119171 0.044019
vt 0.114470 0.022878
vt 0.114601 0.000000
vt 0.977743 0.438403
vt 0.990118 0.433371
vt 0.063623 0.502762
vt 0.188448 0.618800
vt 0.218829 0.538328
vt 0.170088 0.314976
vt 0.698839 0.039418
vt 0.710774 0.451355
vt 0.709255 0.490979
vt 0.580717 0.639933
vt 0.894532 0.377286
vt 0.046354 0.481542
vt 0.280734 0.395613
vt 0.749342 0.646389
vt 0.789913 0.603885
vt 0.792531 0.647631
vt 0.344787 0.288176
vt 0.443858 0.339127
vt 0.893348 0.119134
vt 0.926783 0.164366
vt 0.923771 0.111990
vt 1.000000 0.310743
vt 0.980865 0.235451
vt 0.773837 0.640132
vt 0.483484 0.252287
vt 0.453215 0.013688
vt 0.473795 0.294348
vt 0.514454 0.260373
vt 0.518260 0.199797
vt 0.554249 0.224637
vt 0.518869 0.241997
vt 0.608979 0.506352
vt 0.722889 0.777714
vt 0.562329 0.424141
vt 0.733047 0.475075
vt 0.931446 0.401730

# vertex normals
vn -0.007263 -0.999972 0.001872
vn 0.994514 -0.014087 0.103654
vn -0.633064 0.029160 0.773550
vn 0.610179 0.177911 -0.772029
vn 0.035494 0.002437 0.999367
vn -0.000367 -1.000000 0.000672
vn 0.993933 0.002762 -0.109953
vn -0.123259 0.180870 -0.975753
vn -0.957828 -0.154181 -0.242476
vn -0.952639 0.075192 -0.294661
vn -0.374704 0.431692 -0.820511
vn -0.939525 0.340071 -0.040548
vn -0.035106 -0.998864 0.032237
vn -0.151949 0.186654 0.970604
vn 0.360619 0.728942 0.581892
vn -0.431146 0.277224 0.858638
vn -0.431146 0.277224 0.858639
vn 0.555396 0.385490 0.736840
vn 0.014178 -0.999892 -0.003991
vn 0.152515 0.074816 0.985465
vn 0.852894 0.184510 0.488394
vn -0.374595 0.400396 -0.836278
vn 0.923432 0.382836 0.026645
vn 0.102303 0.059802 -0.992954
vn -0.306118 0.255802 -0.916983
vn -0.333289 -0.035916 -0.942140
vn -0.984291 -0.047876 -0.169940
vn 0.757838 0.335890 -0.559339
vn -0.689187 0.528494 0.495698
vn 0.757698 0.645528 0.095849
vn -0.346630 -0.046653 -0.936841
vn -0.000973 -0.999999 0.001406
vn 0.341807 -0.300927 -0.890287
vn 0.938989 0.338076 -0.063276
vn -0.879557 0.474867 -0.029676
vn 0.078175 0.209597 -0.974658
vn -0.003320 -0.999806 -0.019411
vn -0.010767 0.026261 0.999597
vn -0.523561 0.770471 0.363674
vn 0.464038 -0.510905 -0.723633
vn 0.199414 0.226193 -0.953452
vn 0.040936 0.575831 -0.816543
vn -0.747677 0.309661 0.587443
vn 0.193127 0.228251 -0.954255
vn 0.193127 0.228251 -0.954256
vn 0.666342 0.405494 -0.625750
vn 0.869643 0.493150 0.022921
vn -0.364792 0.350799 -0.862477
vn 0.351014 0.196694 0.915478
vn -0.008590 0.698364 0.715691
vn 0.395068 0.911167 0.117028
vn -0.924553 0.204311 -0.321650
vn 0.978536 0.201386 0.043706
vn 0.008227 0.308101 0.951318
vn -0.820200 0.571798 -0.017854
vn 0.516952 0.547466 -0.658060
vn -0.114646 -0.400932 0.908906
vn -0.114646 -0.400933 0.908905
vn -0.815108 0.578790 0.024529
vn 0.052630 0.445727 0.893620
vn 0.570891 0.521794 -0.633889
vn -0.831977 -0.514180 -0.208407
vn 0.489174 0.151004 -0.859015
vn -0.383887 -0.903710 0.189575
vn -0.221715 0.473134 -0.852635
vn 0.886179 0.334884 -0.320219
vn 0.886179 0.334883 -0.320219
vn 0.704488 0.346590 -0.619332
vn -0.315538 -0.932622 -0.175079
vn -0.496347 -0.160735 0.853114
vn 0.630585 -0.773531 0.063339
vn 0.468850 0.217782 -0.856009
vn 0.714760 0.322315 -0.620670
vn -0.385687 0.042594 -0.921646
vn -0.398300 -0.208880 0.893155
vn 0.398801 0.191596 -0.896799
vn -0.471581 -0.215492 0.855088
vn -0.471205 -0.215677 0.855248
vn -0.862282 0.478488 -0.165888
vn -0.894022 0.386044 0.227365
vn -0.333108 -0.182353 0.925087
vn -0.333108 -0.182353 0.925087
vn -0.879333 0.367680 -0.302630
vn -0.654625 0.400441 0.641181
vn -0.764948 0.270600 0.584492
vn -0.674232 0.291757 -0.678446
vn -0.420765 0.785817 0.453264
vn 0.854644 0.463038 0.234902
vn 0.647620 0.728314 0.223937
vn 0.615520 0.786463 -0.051087
vn 0.933268 0.355958 -0.048009
vn 0.906500 0.393424 -0.153214
vn 0.906501 0.393424 -0.153214
vn -0.711638 0.443131 0.545167
vn -0.976579 0.205334 0.064269
vn -0.976579 0.205334 0.064269
vn -0.310626 0.674917 0.669326
vn -0.549450 0.330337 0.767452
vn -0.091840 0.007426 0.995746
vn 0.157687 0.396413 -0.904429
vn 0.215066 0.223333 -0.950720
vn -0.516405 0.535720 -0.668079
vn -0.653469 -0.683028 -0.326268
vn 0.998854 0.043918 0.019051
vn 0.998854 0.043918 0.019051
vn 0.841586 0.539704 -0.021261
vn -0.937537 0.153394 0.312241
vn -0.021000 0.191942 0.981182
vn -0.778981 -0.498983 -0.379744
vn -0.778980 -0.498983 -0.379744
vn -0.036296 -0.605111 -0.795313
vn 0.973810 -0.195606 0.115899
vn 0.904999 0.220818 0.363616
vn -0.390483 0.103077 0.914821
vn 0.726365 0.445806 -0.523117
vn -0.982520 -0.001246 -0.186155
vn -0.431732 0.641542 0.634060
vn -0.002324 0.031285 0.999508
vn 0.079142 0.410259 0.908529
vn 0.976977 -0.018979 -0.212501
vn 0.698782 0.156602 -0.697982
vn -0.232896 0.093196 0.968026
vn -0.971840 0.097728 0.214420
vn -0.368255 0.845759 -0.386108
vn 0.026542 0.622702 0.782009
vn 0.423337 0.357662 -0.832384
vn -0.599681 0.440781 -0.667903
vn 0.760417 0.294289 0.578930
vn 0.850099 0.012217 0.526482
vn -0.891361 0.057118 0.449681
vn -0.891361 0.057118 0.449682
vn -0.899539 -0.027040 0.436004
vn 0.827638 0.494508 -0.265476
vn -0.402930 0.058567 -0.913355
vn 0.764639 0.621484 0.170540
vn 0.764639 0.621485 0.170540
vn 0.948779 0.200846 -0.243884
vn -0.719291 0.315144 0.619117
vn -0.548933 0.178349 0.816618
vn 0.778352 0.331853 0.532955
vn 0.363962 0.816971 0.447315
vn 0.757971 0.083890 0.646871
vn 0.602935 0.793788 -0.079809
vn 0.566294 0.681571 -0.463436
vn 0.980200 -0.000412 0.198011
vn -0.078150 -0.989575 -0.120972
vn -0.675317 -0.247205 -0.694864
vn 0.139682 0.337461 -0.930918
vn 0.000032 0.892615 0.450820
vn -0.938888 0.214236 0.269429
vn -0.838668 0.271657 -0.472058
vn -0.549961 0.000387 0.835190
vn -0.549962 0.000387 0.835190
vn 0.142352 -0.918111 0.369876
vn 0.638686 0.008096 -0.769425
vn 0.235655 0.709885 -0.663724
vn 0.075818 0.222695 0.971935
vn -0.272067 -0.202229 0.940789
vn 0.333825 0.863557 0.377928
vn 0.557418 0.386023 0.735032
vn 0.088951 0.768070 0.634158
vn 0.057455 0.363829 0.929692
vn 0.151410 0.879226 -0.451704
vn 0.648207 0.336746 -0.682957
vn 0.559961 -0.759073 0.332042
vn 0.689426 0.498403 0.525629
vn 0.329119 0.779302 0.533263
vn -0.823918 0.560038 0.086696
vn -0.527576 -0.262313 -0.807995
vn -0.471536 0.224859 -0.852697
vn 0.682652 -0.337737 0.648012
vn 0.390963 -0.354180 0.849532
vn -0.773847 0.614802 -0.152248
vn 0.405306 0.314307 0.858451
vn -0.491838 0.870168 -0.030062
vn -0.969208 0.116711 0.216828
vn 0.202484 0.329075 -0.922339
vn -0.474220 0.361049 -0.802969
vn -0.002335 0.362621 -0.931934
vn -0.106564 0.099921 -0.989272
vn -0.106564 0.099921 -0.989272
vn 0.336227 0.712119 0.616310
vn 0.336226 0.712120 0.616310
vn 0.485782 0.125674 0.864998
vn -0.488750 -0.073087 -0.869357
vn -0.826652 -0.169711 0.536511
vn -0.826652 -0.169711 0.536512
vn -0.198084 0.383704 -0.901961
vn -0.053484 -0.032238 -0.998048
vn -0.053483 -0.032238 -0.998048
vn -0.423188 0.226842 0.877186
vn -0.151597 0.573028 0.805393
vn -0.151597 0.573028 0.805392
vn -0.783442 0.598613 -0.166976
vn -0.825081 -0.334831 -0.455114
vn -0.825082 -0.334831 -0.455114
vn 0.129108 0.167655 0.977355
vn 0.413987 0.334318 0.846667
vn 0.977850 0.119292 -0.171985
vn 0.072428 -0.299912 -0.951213
vn -0.622333 0.305557 -0.720650
vn -0.934067 0.324668 -0.148690
vn 0.828997 0.327477 0.453347
vn 0.914244 0.327094 -0.239099
vn -0.233997 0.831982 0.503042
vn -0.851703 0.122659 0.509467
vn -0.088862 -0.923704 0.372659
vn -0.088862 -0.923704 0.372660
vn -0.079663 -0.987193 0.138215
vn -0.851218 0.185672 -0.490871
vn -0.984401 0.069827 -0.161492
vn 0.158154 0.387140 0.908355
vn 0.813687 0.316580 0.487535
vn -0.394279 0.465274 0.792505
vn -0.136313 0.172547 0.975524
vn 0.236760 0.592215 -0.770212
vn -0.006846 0.999938 -0.008740
vn 0.410429 0.589175 -0.696003
vn 0.147715 0.019108 -0.988845
vn 0.870261 0.097694 -0.482806
vn 0.867114 0.345369 -0.358933
vn -0.605105 0.492174 -0.625789
vn -0.798615 0.309364 0.516244
vn -0.798615 0.309364 0.516244
vn 0.363233 0.654583 0.663010
vn 0.567833 0.475729 0.671749
vn 0.567833 0.475729 0.671750
vn 0.926514 0.334898 0.171510
vn 0.909723 0.409785 0.066931
vn -0.544106 0.505294 -0.669796
vn -0.651922 0.703812 -0.282218
vn 0.805846 -0.010023 -0.592041
vn 0.409345 0.394734 -0.822570
vn 0.232076 0.745112 -0.625259
vn 0.232076 0.745112 -0.625260
vn 0.501313 0.381598 -0.776574
vn 0.494853 -0.023947 0.868647
vn 0.435580 0.617735 0.654732
vn 0.801920 0.243059 -0.545753
vn 0.434059 0.475054 -0.765452
vn -0.049862 0.363128 0.930404
vn 0.518130 0.284847 0.806476
vn 0.131562 0.504778 -0.853165
vn 0.680411 0.731263 0.047905
vn 0.518632 0.548548 0.655833
vn 0.093462 0.882269 0.461375
vn 0.220010 0.733317 -0.643306
vn 0.668231 0.737270 0.099500
vn 0.902599 0.381323 0.199771
vn 0.902599 0.381323 0.199771
vn 0.891142 0.384436 0.240989
vn -0.242972 0.778075 0.579279
vn -0.713697 0.484919 0.505460
vn 0.136723 -0.985542 -0.100069
vn 0.299796 -0.583245 -0.754949
vn -0.544730 0.799878 -0.251921
vn -0.919727 0.123228 0.372715
vn -0.919727 0.123228 0.372715
vn 0.966179 0.016338 0.257355
vn 0.989813 0.132872 0.051139
vn 0.315498 0.855368 0.410861
vn 0.833112 -0.011538 0.552984
vn 0.077728 0.217305 0.973004
vn 0.352554 -0.450042 0.820468
vn 0.807050 -0.039905 -0.589133
vn 0.391743 -0.813834 -0.429199
vn 0.061770 0.090297 0.993997
vn -0.075041 0.343837 0.936026
vn -0.528946 0.403810 -0.746427
vn 0.255827 0.261421 -0.930705
vn 0.966588 0.243890 0.078896
vn 0.966588 0.243890 0.078896
vn 0.363493 -0.915439 0.172754
vn -0.590905 -0.215136 0.777527
vn -0.869178 0.119923 0.479738
vn -0.869177 0.119923 0.479739
vn -0.869178 0.119923 0.479738
vn -0.761515 0.287933 -0.580680
vn -0.909084 0.136308 0.393684
vn -0.978518 0.104275 -0.177847
vn -0.798063 0.143030 -0.585353
vn -0.965276 0.121574 0.231220
vn -0.620175 -0.763745 -0.179099
vn -0.620174 -0.763746 -0.179099
vn 0.163017 0.886134 -0.433811
vn 0.326285 0.359120 -0.874397
vn -0.496188 0.401550 0.769776
vn -0.094464 0.124923 0.987659
vn -0.847084 0.402988 0.346483
vn -0.666537 0.609790 -0.428817
vn -0.666538 0.609790 -0.428817
vn -0.970486 -0.165202 0.175683
vn -0.930591 0.299212 -0.210887
vn -0.930591 0.299212 -0.210887
vn 0.397568 0.505378 -0.765854
vn 0.174195 0.145877 0.973846
vn 0.888768 0.141255 0.436049
vn 0.966278 0.040750 0.254256
vn -0.431470 -0.897845 0.087795
vn -0.127229 -0.991709 -0.018087
vn 0.622033 0.325999 0.711899
vn 0.622033 0.325998 0.711899
vn 0.693585 0.245404 0.677286
vn -0.943061 -0.036533 -0.330607
vn -0.943061 -0.036533 -0.330608
vn -0.986549 0.030573 0.160578
vn -0.986550 0.030573 0.160578
vn 0.545002 -0.659983 0.517103
vn 0.252595 -0.796806 0.548904
vn 0.410941 0.294107 0.862919
vn -0.006088 0.356902 -0.934122
vn 0.673232 -0.039633 -0.738369
vn 0.904688 0.166345 0.392262
vn -0.011322 -0.042455 -0.999034
vn -0.013491 0.251588 -0.967740
vn -0.101269 0.654721 -0.749056
vn 0.268220 0.854440 -0.444961
vn 0.842662 0.537915 -0.023842
vn 0.637649 0.550979 0.538354
vn -0.789496 0.591970 0.162071
vn -0.974703 0.199030 -0.101688
vn 0.801910 0.319678 -0.504723
vn 0.612341 0.086591 0.785838
vn 0.011912 0.670648 0.741680
vn 0.824229 0.564785 -0.040789
vn 0.824229 0.564786 -0.040789
vn 0.991158 0.061661 -0.117488
vn 0.907754 0.206867 0.364950
vn 0.575866 0.296531 -0.761871
vn 0.049753 0.210880 -0.976245
vn 0.097432 0.632283 -0.768586
vn -0.604202 0.701284 -0.378340
vn -0.621174 0.023351 0.783325
vn -0.928380 0.370631 0.027255
vn -0.800985 0.081071 -0.593170
vn -0.803025 0.238793 -0.546012
vn -0.929447 0.173482 -0.325625
vn -0.946566 0.313677 -0.074963
vn 0.665169 -0.008112 -0.746648
vn 0.869009 0.100076 -0.484570
vn 0.250702 0.013745 0.967967
vn 0.808915 0.064976 0.584324
vn 0.341374 0.316747 0.884949
vn 0.257551 0.150090 0.954537
vn 0.909171 0.387671 0.152052
vn 0.657383 -0.035504 0.752720
vn -0.652554 0.316983 0.688255
vn -0.900353 0.386003 0.200912
vn -0.185307 -0.510667 0.839572
vn -0.797146 -0.509937 -0.323299
vn 0.973907 0.045495 0.222339
vn 0.920894 0.298726 0.250434
vn 0.558952 0.046656 0.827886
vn 0.558952 0.046656 0.827887
vn 0.065311 0.217417 0.973891
vn 0.969267 -0.050789 -0.240712
vn 0.892210 0.308152 -0.330157
vn -0.765621 0.507167 -0.395736
vn 0.080294 0.320643 -0.943791
vn 0.930654 0.364844 0.027765
vn 0.757077 0.645301 0.102080
vn 0.094380 0.331851 -0.938599
vn 0.438188 0.868933 -0.230102
vn -0.842444 0.047466 0.536689
vn -0.456498 -0.419189 0.784786
vn -0.456499 -0.419189 0.784786
vn -0.810658 0.162999 -0.562375
vn -0.021416 -0.214382 -0.976515
vn 0.879462 0.346916 -0.325877
vn 0.972398 0.232214 0.022774
vn 0.262848 0.484439 -0.834404
vn 0.532714 -0.657650 -0.532646
vn -0.590782 -0.113091 0.798866
vn -0.496538 0.437658 0.749604
vn -0.399092 0.367602 -0.839997
vn -0.399092 0.367601 -0.839997
vn -0.397814 0.825861 -0.399621
vn -0.839611 0.079346 0.537362
vn -0.966529 -0.228752 -0.116168
vn 0.347086 0.672956 0.653194
vn 0.647031 0.350579 0.677086
vn -0.500075 -0.132313 0.855814
vn -0.160118 -0.052892 0.985680
vn -0.084395 0.031298 0.995941
vn -0.227329 0.903352 0.363699
vn -0.933207 0.029929 -0.358092
vn -0.529659 -0.017426 -0.848032
vn -0.883066 0.280785 -0.375971
vn -0.375013 -0.661113 -0.649843
vn -0.752904 0.068148 -0.654592
vn 0.128140 0.859571 0.494689
vn -0.191615 0.024780 -0.981157
vn 0.034722 0.799643 -0.599471
vn 0.735768 0.331284 0.590675
vn 0.869886 0.120165 0.478392
vn -0.966043 0.126052 0.225547
vn -0.964957 0.250971 -0.076631
vn 0.840160 -0.037204 -0.541060
vn 0.840161 -0.037204 -0.541060
vn 0.103155 -0.067755 -0.992355
vn 0.919632 0.342687 0.191945
vn 0.947311 0.320251 -0.006412
vn 0.493615 0.869139 -0.030680
vn 0.900168 -0.000762 0.435542
vn 0.941982 -0.043837 0.332788
vn 0.826851 0.362353 0.430137
vn 0.997963 0.001680 0.063778
vn 0.360754 0.809071 0.463962
vn -0.572025 0.029714 -0.819698
vn -0.361236 0.220808 -0.905954
vn 0.334555 -0.084215 -0.938606
vn -0.206364 -0.041360 -0.977601
vn -0.690000 0.527334 0.495802
vn -0.652746 0.650082 -0.388993
vn 0.219473 0.345583 -0.912362
vn 0.245694 0.028914 -0.968916
vn -0.205399 0.618024 0.758853
vn 0.182498 -0.002434 0.983203
vn 0.737653 0.571003 -0.360312
vn 0.877925 0.471852 0.081259
vn -0.382294 -0.904466 0.189191
vn -0.299435 -0.889209 0.345899
vn 0.085577 0.212480 -0.973411
vn 0.261710 -0.021226 -0.964913
vn 0.189432 0.657233 0.729494
vn 0.763194 0.552970 0.334304
vn 0.929260 0.341952 -0.139804
vn 0.918945 0.326129 -0.221763
vn 0.918945 0.326129 -0.221764
vn 0.254059 0.261348 -0.931210
vn 0.088660 0.489867 -0.867277
vn 0.386956 0.277179 0.879453
vn -0.587010 0.094284 0.804071
vn 0.883870 0.044541 0.465606
vn -0.022543 0.114628 -0.993153
vn 0.382863 0.039246 -0.922971
vn 0.224098 0.680267 -0.697866
vn 0.572125 0.418808 0.705176
vn 0.556427 0.102171 0.824591
vn 0.915096 0.372850 0.153568
vn 0.915095 0.372850 0.153568
vn 0.542737 0.446619 0.711314
vn -0.781592 0.158702 -0.603264
vn -0.414456 0.150373 -0.897560
vn 0.861928 0.359237 -0.357812
vn 0.594897 0.287945 -0.750457
vn -0.753745 0.261079 -0.603080
vn -0.875841 0.368223 -0.311951
vn -0.875842 0.368223 -0.311951
vn 0.514975 0.116287 0.849281
vn 0.790988 0.338878 0.509411
vn 0.966283 0.230096 0.115555
vn 0.920130 0.129517 0.369574
vn 0.920131 0.129517 0.369574
vn -0.759368 0.141818 -0.635018
vn -0.594020 0.096026 -0.798698
vn 0.334555 0.056070 0.940707
vn -0.463161 0.228588 0.856288
vn 0.267964 0.399754 -0.876580
vn 0.758886 0.335694 -0.558034
vn -0.802758 0.591829 -0.072920
vn -0.872779 -0.343868 0.346427
vn -0.249825 0.181605 -0.951108
vn -0.249825 0.181605 -0.951108
vn -0.338611 0.688343 -0.641503
vn 0.087802 0.064150 0.994070
vn 0.058514 -0.785961 0.615501
vn 0.514609 0.116466 0.849478
vn 0.975757 0.146732 0.162381
vn 0.859925 0.370246 0.351351
vn 0.908444 0.003844 0.417990
vn -0.312464 -0.485976 0.816207
vn 0.059050 -0.080752 0.994984
vn 0.059049 -0.080752 0.994984
vn 0.181103 -0.076867 -0.980456
vn 0.015486 -0.997114 -0.074320
vn 0.835605 -0.283805 0.470339
vn 0.730640 -0.227316 0.643811
vn -0.905285 0.380468 0.188951
vn -0.937869 0.152926 0.311473
vn 0.005406 -0.990013 -0.140875
vn -0.068699 -0.973587 -0.217736
vn 0.850627 0.376212 0.367285
vn 0.965564 0.067548 0.251244
vn -0.961426 0.131719 0.241474
vn -0.896986 0.233875 0.375125
vn 0.340107 -0.237393 -0.909929
vn 0.301300 0.478570 -0.824736
vn 0.301300 0.478571 -0.824735
vn -0.390629 0.612468 -0.687235
vn 0.601090 0.361730 -0.712630
vn 0.601090 0.361731 -0.712630
vn 0.058630 -0.998158 0.015575
vn 0.614135 -0.755215 -0.229102
vn 0.283771 0.175126 -0.942765
vn 0.592995 0.254458 -0.763943
vn 0.903974 0.325009 -0.277848
vn 0.852924 0.473301 -0.220241
vn -0.884971 -0.011870 0.465494
vn -0.993358 -0.013752 -0.114236
vn -0.993358 -0.013752 -0.114236
vn -0.856376 0.263538 0.444037
vn -0.966572 -0.069429 0.246817
vn 0.880043 0.470108 -0.067251
vn 0.271018 0.318294 -0.908426
vn 0.364782 0.332435 0.869725
vn 0.565738 0.415490 0.712256
vn -0.999075 -0.011066 0.041547
vn 0.250018 0.930797 -0.266662
vn 0.860567 0.410723 -0.301216
vn 0.967059 0.145508 -0.208863
vn -0.932381 0.343270 0.113280
vn -0.932380 0.343270 0.113280
vn -0.775820 0.454263 0.437891
vn 0.939126 0.173865 -0.296334
vn 0.366262 0.095257 -0.925623
vn -0.858885 0.453543 0.237940
vn -0.835910 0.270328 -0.477678
vn -0.835910 0.270328 -0.477679
vn -0.011296 0.895502 0.444915
vn -0.197859 0.352751 0.914559
vn 0.001572 0.340804 0.940133
vn -0.265018 0.270733 0.925456
vn 0.566417 0.231091 0.791055
vn 0.567222 0.237040 0.788715
vn -0.323606 -0.340532 -0.882790
vn -0.665020 -0.305304 -0.681570
vn -0.979354 0.012328 0.201776
vn 0.394887 0.530134 0.750348
vn -0.764243 0.501192 -0.405880
vn 0.020678 0.998314 -0.054236
vn -0.433562 0.461799 -0.773799
vn 0.233336 0.321712 -0.917636
vn -0.934474 0.333512 0.124615
vn -0.999746 0.005973 0.021729
vn -0.478176 0.521779 -0.706466
vn -0.320824 0.260261 -0.910679
vn -0.189257 0.347741 0.918291
vn -0.683231 0.224976 0.694681
vn 0.238859 -0.050652 -0.969732
vn -0.247760 -0.525287 -0.814057
vn 0.362664 0.684335 -0.632582
vn 0.428651 0.786195 -0.445147
vn -0.934180 0.321675 -0.154378
vn -0.840194 0.368086 -0.398229
vn -0.840195 0.368086 -0.398229
vn -0.304812 0.197045 -0.931806
vn 0.066222 0.180439 -0.981354
vn 0.066222 0.180439 -0.981354
vn -0.168371 0.025247 0.985400
vn -0.336992 0.275622 0.900261
vn 0.571443 -0.649177 -0.502017
vn -0.178016 0.071175 -0.981450
vn -0.349269 0.473569 -0.808544
vn -0.799819 0.549092 -0.242462
vn 0.351352 0.757014 -0.550892
vn -0.255283 -0.944771 -0.205522
vn -0.892341 0.014813 0.451118
vn -0.752321 0.017920 0.658553
vn -0.822564 0.424667 0.378215
vn -0.781429 0.469172 -0.411395
vn 0.735193 0.095411 -0.671109
vn 0.771127 -0.026956 -0.636110
vn 0.326954 -0.944730 -0.024235
vn 0.564080 -0.822566 0.072102
vn 0.597022 0.350211 -0.721745
vn 0.708594 0.109107 -0.697130
vn -0.812942 0.272322 0.514749
vn -0.708964 0.155251 0.687944
vn 0.055822 -0.719778 0.691956
vn 0.457558 0.093978 0.884200
vn 0.457557 0.093978 0.884200
vn -0.441426 0.854250 0.274590
vn -0.359898 0.059373 0.931101
vn -0.424527 0.529305 0.734583
vn -0.165338 0.568549 0.805863
vn -0.859367 -0.336907 0.384684
vn -0.722627 0.598581 0.345703
vn -0.819574 0.297370 0.489765
vn -0.579919 -0.128095 0.804541
vn 0.093852 0.750205 0.654511
vn 0.081882 0.397548 0.913921
vn 0.033936 0.085164 0.995789
vn 0.233169 0.060628 0.970544
vn 0.424466 0.507546 0.749817
vn 0.124609 0.557584 0.820715
vn -0.291889 0.586974 0.755157
vn -0.157835 0.853074 0.497346
vn -0.485326 0.234241 -0.842372
vn -0.292228 0.452815 -0.842355
vn -0.909240 0.382663 0.163863
vn -0.880996 0.471457 -0.039671
vn -0.817979 0.393319 -0.419775
vn -0.786668 0.262135 -0.558962
vn -0.910850 0.403753 -0.085647
vn -0.837788 0.347979 -0.420739
vn 0.911892 0.070485 0.404333
vn 0.918130 0.085826 0.386875
vn -0.061815 -0.980683 0.185580
vn 0.013398 -0.999028 0.041996
vn -0.035104 0.974442 -0.221881
vn 0.329968 0.470863 -0.818174
vn 0.456978 -0.862481 -0.217480
vn 0.722616 0.139921 -0.676941
vn 0.073581 0.325577 0.942648
vn 0.218603 0.515342 0.828635
vn 0.699967 0.409278 -0.585268
vn 0.918254 0.182398 -0.351484
vn 0.708069 0.408464 -0.576017
vn 0.258257 0.636268 -0.726957
vn 0.452255 -0.342945 -0.823319
vn 0.666263 0.275255 -0.693057
vn 0.708616 0.086265 0.700301
vn 0.550002 -0.015497 0.835020
vn 0.226742 0.482501 -0.846038
vn -0.057233 0.477909 0.876543
vn 0.087967 0.360276 -0.928689
vn -0.142069 0.348324 -0.926546
vn -0.582294 0.475191 0.659642
vn -0.311162 0.762281 0.567544
vn -0.491484 0.784840 0.377451
vn -0.666907 0.658057 0.349566
vn 0.432433 -0.057321 0.899842
vn 0.522956 0.583068 0.621731
vn 0.522955 0.583068 0.621731
vn 0.983014 0.178951 0.040751
vn 0.946352 0.054391 -0.318526
vn -0.507124 -0.164440 0.846041
vn -0.765616 0.077507 0.638612
vn -0.025270 -0.216234 -0.976014
vn -0.558972 -0.035641 -0.828420
vn 0.856154 0.073367 -0.511486
vn 0.200588 0.939347 -0.278193
vn 0.348915 0.407790 0.843780
vn 0.158771 0.529383 0.833394
vn 0.011898 -0.999576 0.026585
vn 0.053508 -0.998464 0.014387
vn -0.871261 0.272073 -0.408509
vn -0.503609 0.059397 0.861888
vn -0.503609 0.059397 0.861887
vn -0.329800 -0.122770 0.936034
vn -0.517377 0.281711 0.808059
vn -0.517377 0.281711 0.808060
vn -0.898992 -0.042957 0.435854
vn -0.982638 -0.086281 0.164252
vn 0.033863 -0.998971 0.030169
vn 0.494259 -0.758878 0.424043
vn 0.243103 0.930311 -0.274630
vn -0.777190 0.566524 -0.273909
vn -0.705050 0.124197 0.698197
vn -0.704398 0.126563 0.698431
vn 0.789985 0.367687 0.490642
vn 0.748360 -0.078506 0.658630
vn -0.289227 0.595258 -0.749677
vn -0.345440 0.542625 -0.765656
vn -0.345441 0.542625 -0.765656
vn -0.331424 0.309556 0.891254
vn -0.519458 0.371304 0.769608
vn 0.547740 -0.210803 0.809656
vn -0.021364 -0.038204 0.999042
vn -0.034366 0.386015 -0.921852
vn 0.255303 0.607435 -0.752225
vn -0.647916 0.168460 0.742850
vn -0.371369 -0.042249 0.927524
vn -0.371368 -0.042249 0.927524
vn -0.052025 0.011801 -0.998576
vn -0.465607 0.366686 -0.805451
vn -0.465608 0.366686 -0.805451
vn -0.132722 0.175851 -0.975429
vn -0.261811 0.378616 -0.887753
vn -0.261811 0.378616 -0.887753
vn -0.760913 0.108568 -0.639707
vn -0.702788 0.162461 -0.692601
vn -0.940836 0.334148 -0.056319
vn -0.963191 0.264728 0.046707
vn -0.130190 0.282735 0.950322
vn -0.057855 0.432706 0.899677
vn -0.057855 0.432707 0.899676
vn -0.828214 -0.429129 -0.360431
vn -0.817032 0.438996 -0.373820
vn -0.275632 0.247459 0.928865
vn -0.460324 0.162983 0.872662
vn -0.941955 -0.295857 -0.158713
vn -0.789881 0.612595 0.028571
vn -0.406085 0.350717 0.843856
vn -0.406085 0.350718 0.843856
vn -0.254108 0.654514 0.712068
vn -0.412285 0.264103 0.871935
vn -0.631633 0.769218 0.096659
vn -0.271842 0.937495 -0.217267
vn 0.729797 0.683118 0.027321
vn -0.803136 0.367239 0.469157
vn -0.940537 0.090366 -0.327450
vn -0.655461 0.323922 -0.682235
vn -0.742831 -0.521375 -0.419964
vn -0.847126 0.495708 0.191445
vn -0.964717 0.241357 0.105201
vn 0.834312 0.550909 0.020561
vn -0.379108 0.639635 -0.668688
vn -0.799888 0.260725 -0.540557
vn -0.405553 0.418185 -0.812803
vn -0.031161 -0.998696 -0.040437
vn -0.032563 -0.999419 -0.010087
vn -0.973716 0.225198 -0.034107
vn -0.992029 0.098963 -0.078008
vn -0.336813 0.746947 -0.573260
vn 0.259190 0.262066 -0.929592
vn -0.586808 -0.264284 -0.765382
vn -0.931303 0.293198 -0.216124
vn -0.847583 0.361538 -0.388449
vn -0.715017 0.598647 -0.361070
vn 0.872327 0.338719 -0.352583
vn 0.823926 -0.069971 -0.562362
vn 0.823925 -0.069971 -0.562362
vn -0.187693 -0.000902 0.982227
vn -0.127199 0.576619 0.807051
vn 0.918016 0.055916 -0.392582
vn 0.940057 -0.090635 -0.328753
vn 0.018127 -0.999780 -0.010601
vn 0.008658 -0.999050 -0.042710
vn 0.026474 0.270877 0.962250
vn -0.061962 -0.097507 0.993304
vn -0.428568 0.334110 -0.839464
vn -0.706601 -0.176531 -0.685238
vn -0.508738 0.016359 0.860766
vn -0.847008 0.052180 0.529013
vn 0.373755 0.344815 0.861051
vn 0.373755 0.344815 0.861052
vn 0.562636 0.384945 0.731613
vn -0.322787 -0.083662 0.942767
vn -0.506182 0.077216 0.858963
vn 0.186303 0.233551 0.954330
vn -0.068373 0.725074 0.685269
vn -0.760388 0.254624 -0.597475
vn -0.760389 0.254624 -0.597475
vn -0.779877 0.112941 -0.615659
vn 0.755093 0.134996 0.641569
vn 0.660126 0.297480 0.689738
vn -0.289360 -0.060309 -0.955319
vn -0.289360 -0.060309 -0.955319
vn -0.770803 -0.023294 -0.636647
vn -0.147528 0.963044 0.225348
vn 0.929901 0.259575 0.260587
vn 0.099526 0.623577 0.775401
vn -0.377059 0.489846 0.786052
vn 0.102593 -0.223095 0.969383
vn 0.851083 0.093907 0.516564
vn 0.312467 0.177443 -0.933209
vn 0.312467 0.177443 -0.933209
vn 0.490109 0.326759 -0.808098
vn 0.058173 0.348302 0.935576
vn -0.332467 0.386680 0.860200
vn 0.946041 0.162185 -0.280538
vn 0.946042 0.162185 -0.280538
vn 0.962782 -0.031570 -0.268428
vn -0.952623 0.032880 0.302371
vn -0.950018 -0.266689 0.162303
vn 0.710382 0.405181 -0.575487
vn 0.680431 0.587801 -0.437612
vn 0.155650 0.975869 0.153143
vn 0.802368 0.519457 -0.293887
vn -0.820712 0.259935 0.508789
vn -0.898779 0.359767 0.250529
vn 0.243141 0.347597 -0.905571
vn 0.420163 -0.252525 -0.871605
vn 0.364493 0.635441 0.680706
vn 0.205703 0.412314 0.887515
vn -0.298103 0.310447 0.902639
vn -0.156793 0.189653 -0.969251
vn 0.900326 -0.230304 -0.369288
vn 0.900326 -0.230305 -0.369288
vn 0.906740 0.188858 0.377034
vn 0.906740 0.188858 0.377034
vn 0.120159 0.156998 0.980262
vn 0.664417 0.256086 0.702118

# Mesh
g transform1
usemtl initialShadingGroup
f 1/1/1 2/2/1 3/3/1
f 4/4/2 5/5/2 6/6/2
f 7/7/3 8/8/3 9/9/3
f 10/10/4 11/11/4 12/12/4
f 13/13/5 14/14/5 15/15/5
f 2/2/6 16/16/6 3/3/6
f 17/17/7 18/18/7 19/19/7
f 20/20/8 21/21/8 22/22/8
f 23/23/9 24/24/9 25/25/9
f 26/26/10 27/27/10 28/28/10
f 29/29/11 30/30/11 31/31/11
f 32/32/12 33/33/12 34/34/12
f 35/35/13 1/1/13 3/3/13
f 36/36/14 37/37/14 38/38/14
f 39/39/15 40/40/15 15/15/15
f 41/41/16 42/42/17 43/43/17
f 5/44/18 44/45/18 6/46/18
f 45/47/19 46/48/19 16/16/19
f 47/49/20 48/50/20 49/51/20
f 50/52/21 51/53/21 52/54/21
f 21/21/22 53/55/22 54/56/22
f 55/57/23 56/58/23 57/59/23
f 58/60/24 59/61/24 53/62/24
f 60/63/25 61/64/25 58/60/25
f 62/65/26 58/60/26 63/66/26
f 64/67/27 65/68/27 66/69/27
f 67/70/28 68/71/28 69/72/28
f 31/31/29 70/73/29 71/74/29
f 68/71/30 72/75/30 73/76/30
f 62/65/31 63/66/31 72/75/31
f 2/2/32 45/47/32 16/16/32
f 74/77/33 75/78/33 76/79/33
f 77/80/34 78/81/34 79/82/34
f 34/34/35 80/83/35 81/84/35
f 82/85/36 83/86/36 84/87/36
f 2/2/37 85/88/37 45/47/37
f 13/13/38 86/89/38 14/14/38
f 87/90/39 88/91/39 80/83/39
f 89/92/40 90/93/40 91/94/40
f 92/95/41 93/96/41 20/97/41
f 30/30/42 94/98/42 64/67/42
f 95/99/43 96/100/43 97/101/43
f 92/102/44 20/103/44 98/104/45
f 90/93/46 99/105/46 75/106/46
f 100/107/47 101/108/47 102/109/47
f 103/110/48 104/111/48 105/112/48
f 106/113/49 107/114/49 108/115/49
f 109/116/50 110/117/50 111/118/50
f 112/119/51 113/120/51 98/104/51
f 114/121/52 103/110/52 115/122/52
f 116/123/53 117/124/53 118/125/53
f 119/126/54 86/89/54 120/127/54
f 115/122/55 121/128/55 114/121/55
f 122/129/56 101/108/56 104/111/56
f 113/120/57 92/102/58 98/104/58
f 123/130/59 112/119/59 92/102/59
f 124/131/60 125/132/60 126/133/60
f 127/134/61 128/135/61 5/44/61
f 112/119/62 129/136/62 113/120/62
f 113/120/63 123/130/63 92/102/63
f 130/137/64 1/1/64 131/138/64
f 132/139/65 133/140/65 38/38/65
f 134/141/66 19/142/66 135/143/67
f 90/93/68 75/106/68 136/144/68
f 137/145/69 112/119/69 123/130/69
f 129/136/70 123/130/70 113/120/70
f 138/146/71 112/119/71 137/145/71
f 139/147/72 137/145/72 123/130/72
f 140/148/73 115/149/73 141/150/73
f 142/151/74 143/152/74 144/153/74
f 145/154/75 138/146/75 139/147/75
f 138/146/76 137/145/76 139/147/76
f 146/155/77 139/147/77 129/136/77
f 139/147/78 123/130/78 129/136/78
f 147/156/79 148/157/79 149/158/79
f 150/159/80 151/160/80 149/158/80
f 145/154/81 139/147/82 146/155/82
f 138/146/83 145/154/83 112/119/83
f 152/161/84 88/91/84 153/162/84
f 152/161/85 153/162/85 8/8/85
f 154/163/86 155/164/86 156/165/86
f 157/166/87 158/167/87 66/69/87
f 112/119/88 145/154/88 146/155/88
f 146/155/89 129/136/89 112/119/89
f 135/168/90 19/19/90 159/169/90
f 50/52/91 160/170/91 161/171/91
f 93/96/92 92/95/93 115/149/93
f 162/172/94 115/122/94 92/102/94
f 163/173/95 164/174/96 165/175/96
f 166/176/97 109/116/97 167/177/97
f 42/42/98 168/178/98 43/43/98
f 86/89/99 169/179/99 14/14/99
f 170/180/100 171/181/100 54/56/100
f 22/22/101 171/181/101 172/182/101
f 173/183/102 174/184/102 175/185/102
f 176/186/103 177/187/103 178/188/103
f 179/189/104 4/4/105 180/190/104
f 56/58/106 181/191/106 182/192/106
f 183/193/107 184/194/107 185/195/107
f 186/196/108 36/36/108 38/38/108
f 187/197/109 188/198/110 26/26/109
f 173/199/111 189/200/111 174/201/111
f 18/18/112 159/169/112 19/19/112
f 56/58/113 44/45/113 57/59/113
f 190/202/114 191/203/114 166/176/114
f 192/204/115 185/195/115 184/194/115
f 64/67/116 66/69/116 193/205/116
f 70/73/117 66/69/117 158/167/117
f 41/41/118 194/206/118 195/207/118
f 196/208/119 126/133/119 197/209/119
f 179/189/120 180/190/120 198/210/120
f 199/211/121 200/212/121 201/213/121
f 132/139/122 38/38/122 37/37/122
f 202/214/123 203/215/123 23/23/123
f 104/111/124 121/128/124 122/129/124
f 162/216/125 204/217/125 102/109/125
f 205/218/126 206/219/126 68/71/126
f 155/164/127 207/220/127 156/165/127
f 208/221/128 209/222/128 210/223/128
f 211/224/129 212/225/129 213/226/129
f 214/227/130 215/228/131 131/138/130
f 216/229/132 202/214/132 217/230/132
f 93/96/133 115/149/133 140/148/133
f 142/151/134 218/231/134 143/152/134
f 219/232/135 135/168/136 159/169/136
f 134/141/137 135/143/137 220/233/137
f 221/234/138 222/235/138 223/236/138
f 221/237/139 224/238/139 225/239/139
f 210/223/140 209/222/140 226/240/140
f 227/241/141 228/242/141 229/243/141
f 47/49/142 230/244/142 231/245/142
f 127/246/143 232/247/143 233/248/143
f 127/246/144 5/5/144 232/247/144
f 4/4/145 232/247/145 5/5/145
f 234/249/146 85/88/146 178/188/146
f 235/250/147 175/185/147 178/188/147
f 10/10/148 236/251/148 11/11/148
f 88/91/149 229/243/149 80/83/149
f 202/214/150 237/252/150 203/215/150
f 29/29/151 238/253/151 239/254/151
f 225/239/152 224/238/153 240/255/153
f 241/256/154 242/257/154 243/258/154
f 244/259/155 199/211/155 201/213/155
f 182/192/156 245/260/156 244/261/156
f 107/114/157 109/262/157 246/263/157
f 225/239/158 240/255/158 247/264/158
f 180/265/159 248/266/159 198/267/159
f 44/45/160 56/58/160 6/46/160
f 249/268/161 250/269/161 251/270/161
f 252/271/162 186/272/162 253/273/162
f 67/70/163 140/148/163 205/218/163
f 205/218/164 68/71/164 67/70/164
f 254/274/165 255/275/165 256/276/165
f 230/277/166 257/278/166 258/279/166
f 39/39/167 15/15/167 14/14/167
f 259/280/168 168/178/168 260/281/168
f 173/199/169 187/197/169 189/200/169
f 83/86/170 154/163/170 84/87/170
f 106/113/171 261/282/171 255/275/171
f 261/282/172 106/113/172 108/115/172
f 163/173/173 133/140/173 164/174/173
f 262/283/174 263/284/174 264/285/174
f 265/286/175 266/287/175 267/288/175
f 268/289/176 27/27/176 269/290/176
f 270/291/177 20/97/177 93/96/177
f 20/20/178 271/292/178 21/21/178
f 272/293/179 144/294/179 141/295/179
f 143/152/180 273/296/181 144/153/180
f 274/297/182 49/51/182 48/50/183
f 275/298/184 195/207/184 276/299/184
f 277/300/185 268/289/185 269/290/185
f 24/24/186 278/301/186 25/25/187
f 69/72/188 279/302/188 67/70/188
f 58/60/189 53/62/190 63/66/190
f 41/41/191 43/43/191 194/206/191
f 280/303/192 191/203/193 190/202/192
f 147/156/194 269/304/194 148/157/194
f 269/290/195 147/305/196 278/301/196
f 191/306/197 264/285/197 281/307/197
f 264/285/198 191/306/198 262/283/198
f 101/108/199 100/107/199 282/308/199
f 283/309/200 284/310/200 285/311/200
f 286/312/201 61/64/201 60/63/201
f 287/313/202 288/314/202 65/68/202
f 289/315/203 125/132/203 231/245/203
f 127/134/204 290/316/204 291/317/204
f 280/303/205 262/318/205 191/203/205
f 43/43/206 292/319/206 185/320/206
f 240/255/207 241/256/208 247/264/207
f 35/35/209 3/3/209 240/255/209
f 239/254/210 238/253/210 267/288/210
f 239/254/211 24/24/211 23/23/211
f 124/131/212 293/321/212 125/132/212
f 125/132/213 294/322/213 231/245/213
f 109/262/214 166/323/214 295/324/214
f 109/262/215 295/324/215 246/263/215
f 133/140/216 192/325/216 38/38/216
f 133/140/217 296/326/217 192/325/217
f 99/105/218 90/93/218 282/327/218
f 272/293/219 297/328/219 298/329/219
f 200/212/220 117/330/220 201/213/220
f 299/331/221 300/332/221 12/12/221
f 132/139/222 164/174/222 133/140/222
f 223/236/223 222/235/224 301/333/223
f 302/334/225 49/51/225 274/297/225
f 257/278/226 230/277/227 302/335/227
f 209/222/228 77/80/228 226/240/228
f 79/82/229 228/242/229 77/80/229
f 235/250/230 188/336/230 175/185/230
f 188/336/231 148/157/231 269/304/231
f 284/310/232 101/108/232 282/308/232
f 303/337/233 104/111/233 101/108/233
f 271/338/234 279/302/234 63/66/235
f 20/97/236 270/291/236 271/338/236
f 304/339/237 305/340/237 306/341/237
f 307/342/238 306/341/238 305/340/238
f 299/331/239 308/343/239 300/332/239
f 299/331/240 309/344/240 308/343/240
f 42/42/241 275/298/241 310/345/241
f 311/346/242 275/298/242 276/299/242
f 207/220/243 68/71/243 206/219/243
f 72/75/244 68/71/244 157/166/244
f 307/342/245 312/347/245 306/341/245
f 212/225/246 126/133/246 233/248/246
f 244/261/247 313/348/247 182/192/247
f 182/192/248 198/267/248 248/266/248
f 219/349/249 254/274/250 135/143/249
f 219/349/251 314/350/251 254/274/251
f 162/172/252 315/351/252 121/128/252
f 115/122/253 162/172/253 121/128/253
f 91/94/254 316/352/254 46/48/254
f 90/93/255 316/352/255 91/94/255
f 266/287/256 265/286/256 268/289/256
f 265/286/257 317/353/258 268/289/257
f 4/4/259 213/226/259 232/247/259
f 116/123/260 4/4/260 179/189/260
f 290/316/261 50/52/261 291/317/261
f 230/244/262 258/354/262 231/245/262
f 108/115/263 107/114/263 246/263/263
f 243/258/264 261/282/264 108/115/264
f 219/232/265 161/171/265 160/170/265
f 219/349/266 52/355/266 314/350/266
f 275/298/267 41/41/267 195/207/267
f 41/41/268 275/298/268 42/42/268
f 218/231/269 318/356/269 143/152/269
f 318/356/270 82/85/270 206/219/270
f 135/143/271 254/274/272 220/233/272
f 319/357/273 254/274/273 256/276/273
f 224/238/274 131/138/274 240/255/274
f 223/358/275 214/227/276 131/138/277
f 29/29/278 31/31/278 238/253/278
f 31/31/279 317/353/279 265/286/279
f 164/174/280 222/235/280 165/175/280
f 164/174/281 132/139/281 222/235/281
f 269/290/282 27/27/282 26/26/282
f 26/26/283 188/198/284 269/290/283
f 140/148/285 320/359/285 205/218/285
f 141/150/286 320/359/286 140/148/286
f 166/323/287 221/237/287 295/324/287
f 264/285/288 321/360/288 281/307/288
f 317/353/289 31/31/289 71/74/289
f 71/74/290 207/220/291 155/164/290
f 149/158/292 176/186/292 215/228/292
f 149/158/293 148/157/294 176/186/293
f 192/325/295 184/361/295 38/38/295
f 184/361/296 186/196/296 38/38/296
f 208/221/297 213/226/297 209/222/297
f 4/4/298 116/123/298 213/226/298
f 130/137/299 176/186/299 1/1/299
f 176/186/300 178/188/300 1/1/300
f 50/52/301 322/362/302 51/53/302
f 50/52/303 290/316/303 322/362/303
f 217/230/304 151/363/305 150/364/304
f 150/364/306 323/365/307 217/230/306
f 261/282/308 242/257/308 255/275/308
f 242/257/309 261/282/309 243/258/309
f 204/217/310 324/366/310 102/109/310
f 204/217/311 20/367/311 22/368/311
f 161/171/312 219/232/312 159/169/312
f 44/45/313 325/369/313 18/18/313
f 58/60/314 326/370/314 59/61/314
f 61/64/315 10/10/315 58/60/315
f 161/171/316 159/169/316 291/317/316
f 50/52/317 161/171/317 291/317/317
f 56/58/318 182/192/318 248/266/318
f 6/46/319 56/58/319 248/266/319
f 168/178/320 259/280/320 327/371/320
f 328/372/321 184/194/321 183/193/321
f 329/373/322 128/135/322 127/134/322
f 329/373/323 325/369/323 44/45/323
f 162/216/324 102/109/324 315/374/324
f 101/108/325 122/129/326 102/109/325
f 17/17/327 57/59/327 18/18/327
f 57/59/328 44/45/328 18/18/328
f 330/375/329 10/10/329 12/12/329
f 58/60/330 10/10/330 326/370/330
f 68/71/331 207/220/331 157/166/331
f 207/220/332 331/376/332 157/166/332
f 169/179/333 7/7/333 9/9/333
f 183/377/334 327/371/334 328/378/334
f 66/69/335 65/68/335 332/379/335
f 288/314/336 60/63/336 65/68/336
f 333/380/337 28/28/337 27/27/337
f 317/353/338 71/74/338 333/380/338
f 313/381/339 244/259/339 201/213/339
f 117/330/340 198/382/340 201/213/340
f 13/13/341 305/340/341 304/339/341
f 213/226/342 208/221/342 211/224/342
f 334/383/343 253/273/343 186/272/343
f 328/384/344 186/196/344 184/361/344
f 306/341/345 312/347/345 212/225/345
f 211/224/346 306/341/346 212/225/346
f 292/319/347 43/43/347 168/178/347
f 168/178/348 327/371/348 292/319/348
f 321/360/349 221/234/349 281/307/349
f 335/385/350 222/235/350 221/234/350
f 290/386/351 231/245/351 258/354/351
f 231/245/352 290/386/352 289/315/352
f 195/207/353 48/50/354 276/299/354
f 124/131/355 48/50/355 293/321/355
f 336/387/356 17/17/356 19/19/356
f 136/144/357 336/388/357 19/142/357
f 81/84/358 236/251/358 61/64/358
f 236/251/359 10/10/359 61/64/359
f 127/246/360 289/315/360 290/386/360
f 127/246/361 233/248/361 289/315/361
f 93/96/362 67/70/362 270/291/362
f 140/148/363 67/70/363 93/96/363
f 321/360/364 163/173/364 165/175/364
f 321/360/365 335/385/366 221/234/366
f 142/151/367 174/201/367 218/231/367
f 83/86/368 82/85/368 174/201/368
f 117/330/369 200/212/369 300/332/369
f 78/81/370 118/125/370 117/124/370
f 297/328/371 337/389/371 282/327/371
f 337/390/372 284/310/372 282/308/372
f 166/176/373 191/203/373 338/391/373
f 166/392/374 338/393/374 221/234/374
f 104/111/375 103/110/376 114/121/376
f 104/111/377 114/121/377 121/128/377
f 321/360/378 165/175/378 335/385/378
f 165/175/379 222/235/379 335/385/379
f 310/345/380 40/40/380 39/39/380
f 311/346/381 276/299/381 40/40/381
f 327/371/382 339/394/382 334/383/382
f 259/280/383 169/179/383 327/371/383
f 14/14/384 169/179/384 259/280/384
f 260/281/385 14/14/385 259/280/385
f 26/26/386 28/28/386 187/197/386
f 187/197/387 154/163/387 189/200/387
f 115/149/388 103/395/388 141/150/388
f 141/150/389 283/396/389 285/397/389
f 332/379/390 72/75/390 66/69/390
f 157/166/391 66/69/391 72/75/391
f 324/366/392 204/217/392 22/368/392
f 340/398/393 76/399/393 282/308/393
f 40/40/394 276/299/394 196/208/394
f 196/208/395 276/299/395 48/50/395
f 268/289/396 317/353/396 27/27/396
f 27/27/397 317/353/397 333/380/397
f 303/337/398 101/108/398 284/310/399
f 105/112/400 284/310/400 283/309/400
f 209/222/401 118/125/401 77/80/401
f 118/125/402 78/81/402 77/80/402
f 233/248/403 232/247/403 212/225/403
f 213/226/404 212/225/404 232/247/404
f 100/107/405 340/398/405 282/308/405
f 102/109/406 324/366/406 100/107/406
f 180/190/407 4/4/407 6/6/407
f 180/265/408 6/46/408 248/266/408
f 103/395/409 283/396/409 141/150/409
f 103/110/410 105/112/410 283/309/410
f 76/79/411 22/22/411 74/77/411
f 76/399/412 324/366/412 22/368/412
f 70/73/413 158/167/413 71/74/413
f 207/220/414 71/74/414 331/376/414
f 104/111/415 303/337/415 105/112/415
f 105/112/416 303/337/416 284/310/416
f 307/342/417 305/340/417 15/15/417
f 13/13/418 15/15/418 305/340/418
f 309/344/419 229/400/419 308/343/419
f 228/242/420 79/82/420 229/243/420
f 1/1/421 35/35/421 131/138/421
f 240/255/422 131/138/422 35/35/422
f 330/375/423 326/370/423 10/10/423
f 199/211/424 244/259/424 326/370/424
f 233/248/425 126/133/425 125/132/425
f 233/248/426 125/132/426 289/315/426
f 300/401/427 78/81/427 117/124/427
f 78/81/428 300/401/428 79/82/429
f 84/87/430 206/219/430 82/85/430
f 207/220/431 206/219/431 84/87/431
f 328/378/432 334/383/432 186/272/432
f 328/378/433 327/371/433 334/383/433
f 324/366/434 340/398/434 100/107/434
f 340/398/435 324/366/435 76/399/435
f 59/61/436 326/370/436 244/259/436
f 54/56/437 244/261/437 245/260/437
f 128/135/438 44/45/438 5/44/438
f 128/135/439 329/373/439 44/45/439
f 228/242/440 226/240/440 77/80/441
f 341/402/442 226/240/442 228/242/442
f 65/68/443 60/63/443 332/379/443
f 60/63/444 58/60/444 342/403/444
f 200/212/445 12/12/445 300/332/445
f 330/375/446 12/12/446 200/212/446
f 333/380/447 155/164/447 154/163/447
f 71/74/448 155/164/449 333/380/449
f 312/347/450 307/342/450 197/209/450
f 197/209/451 40/40/451 196/208/451
f 209/222/452 116/123/452 118/125/452
f 116/123/453 209/222/453 213/226/454
f 332/379/455 60/63/455 342/403/455
f 72/75/456 332/379/456 62/65/456
f 307/342/457 40/40/457 197/209/457
f 15/15/458 40/40/458 307/342/458
f 236/251/459 299/331/459 11/11/459
f 12/12/460 11/11/460 299/331/460
f 149/158/461 25/404/461 147/156/461
f 147/305/462 25/25/462 278/301/462
f 72/75/463 63/66/464 73/76/464
f 279/302/465 73/76/465 63/66/465
f 108/115/466 246/263/466 243/258/466
f 241/256/467 243/258/467 247/264/467
f 312/347/468 197/209/468 126/133/468
f 212/225/469 312/347/469 126/133/469
f 343/405/470 314/350/470 322/406/470
f 314/350/471 343/405/471 254/274/471
f 225/239/472 247/264/472 246/263/472
f 246/263/473 247/264/474 243/258/474
f 89/92/475 298/329/475 297/328/475
f 89/92/476 91/94/476 85/88/476
f 255/275/477 254/274/477 343/405/477
f 106/113/478 255/275/478 343/405/478
f 183/377/479 292/319/479 327/371/479
f 185/320/480 292/319/480 183/377/480
f 298/329/481 89/92/481 85/88/481
f 234/249/482 298/329/482 85/88/482
f 322/406/483 258/279/483 343/405/483
f 290/386/484 258/354/484 322/407/484
f 150/159/485 149/158/485 215/228/485
f 215/228/486 214/227/486 150/159/486
f 297/328/487 90/93/487 89/92/487
f 297/328/488 282/327/489 90/93/489
f 325/369/490 329/373/490 291/317/490
f 329/373/491 127/134/492 291/317/491
f 46/48/493 319/357/493 256/276/493
f 344/408/494 220/233/494 46/48/494
f 330/375/495 199/211/495 326/370/495
f 200/212/496 199/211/496 330/375/496
f 308/343/497 79/409/497 300/332/497
f 308/343/498 229/400/498 79/409/498
f 9/9/499 8/8/499 253/273/499
f 287/313/500 65/68/501 64/67/501
f 8/8/502 153/162/502 345/410/502
f 8/8/503 345/410/503 249/268/503
f 181/191/504 56/58/504 55/57/504
f 171/181/505 170/180/505 172/182/505
f 120/127/506 210/223/506 341/402/506
f 210/223/507 226/240/507 341/402/507
f 345/410/508 64/67/508 249/268/508
f 249/268/509 64/67/509 250/269/509
f 346/411/510 181/191/510 55/57/510
f 17/17/511 55/57/511 57/59/511
f 153/162/512 34/34/513 33/33/513
f 153/162/514 88/91/514 87/90/514
f 347/412/515 346/411/515 55/57/515
f 22/22/516 348/413/516 74/77/516
f 250/269/517 349/414/517 96/100/517
f 349/414/518 29/29/518 239/254/519
f 88/91/520 227/241/520 229/243/520
f 119/126/521 88/91/521 152/161/521
f 36/415/522 186/272/522 252/271/522
f 36/415/523 252/271/523 95/99/523
f 208/221/524 120/127/524 304/339/524
f 210/223/525 120/127/525 208/221/525
f 234/249/526 350/416/526 351/417/526
f 178/188/527 350/416/527 234/249/527
f 8/8/528 249/268/528 253/273/528
f 253/273/529 249/268/529 251/270/529
f 80/83/530 236/251/530 81/84/530
f 309/344/531 80/83/531 229/400/531
f 318/356/532 320/359/532 143/152/532
f 320/359/533 141/150/533 143/152/533
f 153/162/534 33/33/534 345/410/534
f 345/410/535 287/313/535 64/67/535
f 175/185/536 174/184/536 142/418/536
f 350/416/537 142/418/537 144/294/537
f 119/126/538 152/161/538 86/89/538
f 7/7/539 152/161/539 8/8/539
f 298/329/540 351/417/540 272/293/540
f 351/417/541 298/329/541 234/249/541
f 99/105/542 282/327/542 76/419/542
f 99/105/543 76/419/543 75/106/543
f 32/32/544 288/314/544 287/313/544
f 61/64/545 286/312/546 32/32/546
f 350/416/547 144/294/547 351/417/547
f 144/294/548 272/293/548 351/417/549
f 86/89/550 7/7/550 169/179/550
f 86/89/551 152/161/551 7/7/551
f 285/311/552 284/310/552 337/390/552
f 141/295/553 285/420/553 272/293/553
f 30/30/554 29/29/554 94/98/554
f 29/29/555 349/414/555 250/269/555
f 272/293/556 337/389/556 297/328/556
f 285/420/557 337/389/557 272/293/557
f 9/9/558 253/273/558 334/383/558
f 339/394/559 9/9/559 334/383/559
f 278/301/560 267/288/560 266/287/560
f 266/287/561 268/289/561 277/300/561
f 74/77/562 352/421/562 347/412/562
f 74/77/563 347/412/563 336/387/563
f 46/48/564 220/233/564 319/357/564
f 319/357/565 220/233/565 254/274/565
f 170/180/566 352/421/566 348/413/566
f 74/77/567 348/413/567 352/421/567
f 202/214/568 95/99/568 237/252/568
f 353/422/569 95/99/569 202/214/569
f 281/307/570 221/234/570 338/393/570
f 191/306/571 281/307/572 338/393/572
f 301/333/573 222/235/573 354/423/573
f 37/424/574 353/422/574 354/425/574
f 260/281/575 168/178/575 42/42/575
f 42/42/576 310/345/576 39/39/576
f 150/364/577 214/426/577 323/365/577
f 323/365/578 216/229/578 217/230/578
f 223/427/579 301/428/579 214/426/579
f 301/428/580 323/365/580 214/426/580
f 274/297/581 48/50/581 110/117/581
f 109/116/582 107/429/582 110/117/582
f 120/127/583 86/89/583 13/13/583
f 304/339/584 120/127/584 13/13/584
f 341/402/585 228/242/585 227/241/585
f 119/126/586 227/241/586 88/91/586
f 39/39/587 260/281/587 42/42/587
f 14/14/588 260/281/588 39/39/588
f 154/163/589 156/165/589 84/87/589
f 156/165/590 207/220/590 84/87/590
f 87/90/591 34/34/591 153/162/591
f 87/90/592 80/83/592 34/34/592
f 32/32/593 286/312/593 288/314/593
f 288/314/594 286/312/594 60/63/594
f 81/84/595 32/32/595 34/34/595
f 81/84/596 61/64/596 32/32/596
f 159/169/597 325/369/597 291/317/597
f 325/369/598 159/169/598 18/18/598
f 3/3/599 241/256/599 240/255/599
f 3/3/600 242/257/600 241/256/600
f 309/344/601 236/251/601 80/83/601
f 299/331/602 236/251/602 309/344/602
f 316/352/603 344/408/603 46/48/603
f 316/352/604 90/93/604 136/144/604
f 341/402/605 119/126/605 120/127/605
f 119/126/606 341/402/606 227/241/606
f 352/421/607 181/191/607 346/411/607
f 352/421/608 346/411/608 347/412/608
f 352/421/609 170/180/609 181/191/609
f 54/56/610 245/260/610 170/180/610
f 75/78/611 74/77/611 336/387/611
f 136/144/612 75/106/612 336/388/612
f 304/339/613 211/224/613 208/221/613
f 304/339/614 306/341/614 211/224/614
f 30/30/615 64/67/615 193/205/615
f 193/205/616 66/69/616 70/73/616
f 70/73/617 30/30/617 193/205/617
f 31/31/618 30/30/618 70/73/618
f 216/229/619 323/365/619 301/428/619
f 216/229/620 301/428/620 354/425/620
f 331/376/621 158/167/621 157/166/621
f 158/167/622 331/376/622 71/74/622
f 47/49/623 49/51/623 230/244/623
f 230/244/624 49/51/624 302/334/625
f 117/124/626 116/123/626 179/189/626
f 198/210/627 117/124/627 179/189/627
f 353/422/628 216/229/628 354/425/628
f 353/422/629 202/214/629 216/229/629
f 189/200/630 83/86/630 174/201/630
f 154/163/631 83/86/631 189/200/631
f 313/381/632 201/213/632 198/382/632
f 198/267/633 182/192/633 313/348/633
f 107/429/634 302/334/634 274/297/634
f 107/429/635 274/297/635 110/117/635
f 3/3/636 16/16/636 242/257/636
f 16/16/637 46/48/637 256/276/637
f 354/423/638 222/235/638 132/139/638
f 132/139/639 37/37/640 354/423/640
f 246/263/641 295/324/641 225/239/641
f 295/324/642 221/237/642 225/239/643
f 131/138/644 215/228/644 130/137/644
f 215/228/645 176/186/645 130/137/645
f 16/16/646 256/276/646 242/257/646
f 255/275/647 242/257/647 256/276/647
f 64/67/648 94/98/648 250/269/648
f 250/269/649 94/98/649 29/29/649
f 224/238/650 223/358/650 131/138/650
f 224/238/651 221/237/651 223/358/651
f 258/279/652 257/278/652 343/405/652
f 257/278/653 106/113/653 343/405/653
f 59/430/654 244/261/654 54/56/654
f 53/55/655 59/430/656 54/56/655
f 162/172/657 112/119/657 98/104/657
f 112/119/658 162/172/658 92/102/658
f 48/50/659 195/207/659 110/117/659
f 195/207/660 194/206/660 110/117/660
f 270/291/661 67/70/661 279/302/661
f 271/338/662 270/291/662 279/302/662
f 339/394/663 169/179/663 9/9/663
f 169/179/664 339/394/664 327/371/665
f 63/66/666 53/62/666 271/338/666
f 271/292/667 53/55/668 21/21/668
f 21/21/669 171/181/669 22/22/669
f 21/21/670 54/56/671 171/181/671
f 265/286/672 267/288/672 238/253/672
f 238/253/673 31/31/673 265/286/673
f 287/313/674 33/33/674 32/32/674
f 33/33/675 287/313/675 345/410/675
f 196/208/676 48/50/676 124/131/676
f 126/133/677 196/208/678 124/131/677
f 277/300/679 269/290/679 278/301/679
f 278/301/680 266/287/680 277/300/680
f 95/99/681 37/424/681 36/415/681
f 37/424/682 95/99/682 353/422/682
f 151/363/683 23/23/683 25/25/683
f 149/158/684 151/160/684 25/404/684
f 252/271/685 96/100/686 95/99/685
f 96/100/687 251/270/687 250/269/687
f 264/285/688 163/173/688 321/360/688
f 133/140/689 163/173/689 296/326/689
f 122/129/690 121/128/690 315/351/690
f 122/129/691 315/374/691 102/109/691
f 267/288/692 278/301/692 24/24/692
f 239/254/693 267/288/693 24/24/693
f 173/183/694 175/185/694 188/336/694
f 173/199/695 188/198/695 187/197/695
f 96/100/696 349/414/696 97/101/696
f 237/252/697 349/414/697 203/215/697
f 69/72/698 68/71/698 73/76/698
f 69/72/699 73/76/699 279/302/699
f 174/201/700 82/85/700 218/231/700
f 218/231/701 82/85/701 318/356/701
f 178/188/702 85/88/702 2/2/702
f 178/188/703 2/2/703 1/1/703
f 203/215/704 349/414/704 239/254/704
f 203/215/705 239/254/705 23/23/705
f 320/359/706 318/356/706 205/218/706
f 206/219/707 205/218/707 318/356/707
f 177/187/708 235/250/708 178/188/708
f 148/157/709 177/187/709 176/186/709
f 148/157/710 235/250/710 177/187/710
f 235/250/711 148/157/711 188/336/711
f 136/144/712 19/142/712 134/141/712
f 316/352/713 136/144/713 344/408/714
f 190/202/715 166/176/715 167/177/715
f 190/202/716 355/431/716 280/303/716
f 136/144/717 134/141/717 344/408/717
f 344/408/718 134/141/718 220/233/718
f 45/47/719 91/94/719 46/48/719
f 85/88/720 91/94/720 45/47/720
f 167/177/721 355/431/721 190/202/721
f 194/206/722 111/118/722 110/117/722
f 175/185/723 142/418/723 350/416/723
f 178/188/724 175/185/724 350/416/724
f 43/43/725 280/303/725 194/206/725
f 280/303/726 43/43/726 185/320/726
f 107/114/727 106/113/728 302/335/728
f 257/278/729 302/335/729 106/113/729
f 111/118/730 194/206/730 355/431/730
f 194/206/731 280/303/731 355/431/731
f 111/118/732 355/431/732 167/177/732
f 111/118/733 167/177/733 109/116/733
f 333/380/734 154/163/735 28/28/734
f 28/28/736 154/163/736 187/197/736
f 294/322/737 47/49/737 231/245/737
f 125/132/738 293/321/738 294/322/738
f 342/403/739 58/60/739 62/65/740
f 342/403/741 62/65/741 332/379/741
f 280/303/742 185/320/742 262/318/742
f 263/284/743 262/283/743 185/195/743
f 296/326/744 264/285/744 263/284/744
f 264/285/745 296/326/745 163/173/745
f 51/432/746 322/406/746 314/350/746
f 314/350/747 52/355/747 51/432/747
f 172/182/748 348/413/749 22/22/748
f 172/182/750 170/180/750 348/413/750
f 253/273/751 251/270/751 252/271/751
f 251/270/752 96/100/752 252/271/752
f 347/412/753 55/57/753 17/17/754
f 347/412/755 17/17/755 336/387/755
f 23/23/756 217/230/756 202/214/756
f 23/23/757 151/363/757 217/230/757
f 181/191/758 170/180/758 245/260/758
f 181/191/759 245/260/759 182/192/759
f 192/204/760 296/326/760 263/284/760
f 185/195/761 192/204/761 263/284/761
f 95/99/762 97/101/762 237/252/762
f 97/101/763 349/414/763 237/252/763
f 143/152/764 141/150/764 273/296/764
f 273/296/765 141/150/765 144/153/765
f 311/346/766 40/40/766 310/345/766
f 275/298/767 311/346/767 310/345/767
f 98/433/768 204/217/768 162/216/768
f 204/217/769 98/433/769 20/367/769
f 219/232/770 160/170/770 52/54/771
f 50/52/772 52/54/772 160/170/773
f 293/321/774 48/50/774 47/49/774
f 47/49/775 294/322/775 293/321/775
