# This file uses centimeters as units for non-parametric coordinates.

mtllib ĞüÑÂ£¨Õı³£´óĞ¡£©.mtl
g default
v -1.206254 3.410461 2.013741
v -3.443604 3.411112 2.895839
v -2.977585 9.803410 1.490639
v -3.499297 8.816916 2.162533
v -2.339897 8.925202 0.574386
v -3.280466 9.782384 4.705324
v -1.706833 9.801690 3.829167
v -2.629120 3.415114 0.744445
v -1.435338 9.792422 1.847036
v -1.337574 9.120479 2.333033
v -2.061285 9.814434 4.535698
v -1.890244 8.616243 4.757011
v -1.491803 8.784704 3.703144
v -2.329482 9.773959 1.002509
v -1.831502 3.413192 4.771808
v -1.314164 3.412008 3.818269
v -3.285863 3.411156 4.929335
v -2.929725 5.850226 0.761666
v -2.418015 5.670239 0.606578
v -3.430805 5.253093 2.024384
v -3.012665 8.948021 0.849988
v -0.913877 6.550420 1.819454
v -0.990919 5.004556 1.924307
v -3.485065 3.401270 -2.929138
v -3.372817 3.401271 0.294762
v -0.922731 3.398630 -1.465865
v -2.554318 3.401271 1.046332
v -3.940436 3.401574 -1.734644
v -0.945245 11.954844 -0.573174
v -0.557882 10.275004 -0.492895
v -1.297439 10.501650 1.854991
v -1.869898 11.941831 -3.373369
v -1.081692 11.884864 0.849097
v -1.185263 10.426149 -2.538333
v -3.409958 11.930484 -1.764951
v -1.032434 3.403166 1.526700
v -3.370093 10.436582 -1.407276
v -2.603396 11.940092 0.933849
v -2.942434 8.098645 1.325830
v -3.186037 11.885439 0.189088
v -3.190805 11.954844 -2.733476
v -3.436057 10.395317 -2.922470
v -1.502181 11.901356 1.324782
v -3.572073 7.563336 0.618975
v -3.432544 6.842690 -2.958230
v -3.674247 3.399742 -1.289741
v -1.890225 3.399938 -3.684944
v -0.683179 6.617863 1.391947
v -3.487718 5.491852 0.580164
v -1.200679 6.438665 1.784625
v -0.586742 5.863612 -0.303086
v -0.617824 10.520956 1.242953
v -3.034318 5.481581 1.045807
v 3.313653 3.404682 7.047267
v -2.142764 3.404679 -6.746108
v -2.353242 3.404682 3.326070
v 3.248674 3.404680 -3.536820
v -0.569636 3.404682 5.829842
v -2.659476 3.404680 -1.602370
v -3.301798 3.404680 -3.237783
v 3.546169 3.404681 1.797939
v 3.388293 12.104592 1.097436
v 4.279184 9.836178 1.489635
v 2.075417 10.666526 8.215038
v 1.834753 12.642616 6.988490
v 1.658863 11.930233 -7.473548
v 3.644641 10.617752 6.716852
v 3.031035 11.283385 5.382877
v 3.119640 10.089263 -5.075885
v -1.353868 12.595688 -2.113748
v -2.167008 11.759065 -3.245392
v -1.485986 13.081622 3.247602
v 2.403658 12.754792 -3.721771
v 2.274687 3.404682 7.835652
v -2.181008 9.809075 -1.908075
v -1.225539 10.441762 5.870227
v -2.680206 10.754377 3.084994
v -1.506752 12.518735 -6.084938
v 1.606978 10.534471 -8.381979
v -1.439084 9.443096 -7.411527
v -2.343136 10.042335 -6.032884
v -2.772458 10.416452 -3.115560
v 1.977156 11.416246 7.156879
v -0.486748 12.075463 5.473328
v -2.900283 8.605470 3.740312
v -2.217580 6.861843 -6.366184
v -2.077992 5.984167 -6.994624
v -1.504529 7.472545 -7.131500
v -2.488111 6.460937 -1.515370
v 1.292752 5.600228 -8.749893
v 1.441735 7.598434 -8.678138
v -3.069819 6.831505 -3.031921
v 1.786311 3.403424 -8.609449
v 3.698784 6.737021 7.223650
v -2.557840 5.358978 4.098036
v 2.386742 6.501842 8.225005
v 4.181465 5.967909 1.996228
v 2.353912 9.247586 8.749890
v 4.016786 9.232780 7.114325
v -1.539429 8.188253 6.655852
v -2.772207 7.389829 4.564208
v -2.861627 5.657069 4.517728
v 1.006774 12.492224 3.740079
v 3.028266 12.592336 5.375672
v 2.542915 6.687171 8.542496
v -1.173039 5.859601 6.343291
v -1.959685 3.403218 -4.636978
v -2.834954 3.403558 -4.730879
v -3.691760 3.400479 -3.094641
v -2.185740 3.401704 -3.057500
v -2.573318 9.881349 -2.533403
v -2.189343 8.630799 -2.798150
v -3.131078 9.825870 -2.150176
v -2.027281 9.806601 -4.511089
v -1.843853 8.588612 -4.130116
v -3.157697 9.764029 -4.080078
v -2.937630 3.400656 -2.051705
v -3.565710 9.840390 -2.919440
v -3.930254 6.867498 -3.014031
v -2.768380 9.770983 -4.699071
v -3.342434 3.403930 -4.236968
v -2.971580 5.762644 -1.924799
v -2.659843 9.032717 -2.096943
v -3.845702 5.126192 -2.957738
v -1.806658 3.409068 3.928876
v -2.342406 3.409837 6.280553
v -3.227982 11.082265 5.100843
v -2.974520 9.730993 5.910164
v -3.625168 9.959484 4.052291
v -0.763448 11.088897 7.164891
v -0.586419 11.097089 5.378701
v -3.651626 3.413223 4.385198
v -2.082563 11.108238 4.019273
v -1.414276 10.146086 3.942813
v -0.206477 11.113401 6.070631
v 0.072654 9.479359 6.058729
v -0.568279 9.667538 5.125455
v -3.254081 11.072496 4.288859
v 0.122342 3.411522 6.022932
v -0.373360 3.410580 5.047668
v -0.575126 3.409597 7.301374
v -3.806320 6.304414 4.643661
v -3.644169 6.118871 4.134935
v -3.051096 5.619986 5.773933
v -3.780328 9.939857 4.761385
v -1.792139 7.005854 3.584793
v -1.752273 5.318704 3.708163
v -1.962692 3.432499 -7.581602
v -3.617092 3.429492 -5.056812
v -0.972357 3.430224 -5.237633
v -2.898553 3.432756 -7.000915
v -1.992591 10.741291 -3.884855
v -1.231726 9.503127 -4.381365
v -2.964195 9.683849 -3.160678
v -0.641275 10.712772 -7.008516
v -0.590900 9.602057 -6.110643
v -2.532713 10.746472 -6.756846
v -2.612718 3.434133 -3.244585
v -2.673816 9.781936 -6.484884
v -3.385015 10.760346 -4.472595
v -3.816717 7.646661 -4.381454
v -3.396120 10.706606 -5.302934
v -1.879591 10.708524 -7.409501
v -2.828250 10.731379 -3.621821
v -3.879849 7.153333 -5.193958
v -1.909625 6.387435 -7.575614
v -2.946216 3.431257 -6.561193
v -0.474276 3.431286 -7.268269
v -2.302796 6.205925 -3.154269
v -3.800799 5.235796 -5.177153
v -2.863025 6.051472 -3.155802
v -1.350243 5.555926 -4.265173
v -2.181483 9.690912 -3.224169
v -3.733292 5.227044 -4.621033
vt 0.550435 0.667633
vt 0.719736 0.717332
vt 0.543940 0.647228
vt 0.692003 0.690599
vt 0.667926 0.675632
vt 0.697903 0.573062
vt 0.647816 0.743073
vt 0.646165 0.703055
vt 0.719675 0.645708
vt 0.734014 0.703774
vt 0.640764 0.688343
vt 0.648111 0.665522
vt 0.648383 0.558439
vt 0.615913 0.682411
vt 0.676881 0.566659
vt 0.732215 0.584463
vt 0.608717 0.549146
vt 0.571075 0.650867
vt 0.544999 0.581005
vt 0.726355 0.616492
vt 0.554480 0.586993
vt 0.770100 0.592533
vt 0.583683 0.581556
vt 0.264498 0.352939
vt 0.277132 0.354465
vt 0.117568 0.277147
vt 0.299906 0.172326
vt 0.272172 0.236232
vt 0.248019 0.097484
vt 0.219481 0.279422
vt 0.149156 0.263804
vt 0.190618 0.255007
vt 0.287443 0.315070
vt 0.264761 0.282881
vt 0.288498 0.333987
vt 0.319669 0.179593
vt 0.358846 0.223294
vt 0.243487 0.333437
vt 0.237799 0.099191
vt 0.248937 0.271230
vt 0.242363 0.240578
vt 0.177610 0.112495
vt 0.226489 0.172107
vt 0.280690 0.092098
vt 0.212528 0.104693
vt 0.130695 0.125745
vt 0.079287 0.203768
vt 0.305544 0.129650
vt 0.303253 0.087181
vt 0.092689 0.203900
vt 0.334442 0.079578
vt 0.292829 0.132343
vt 0.121380 0.180333
vt 0.241125 0.738657
vt 0.222238 0.778111
vt 0.211097 0.744349
vt 0.340915 0.544705
vt 0.517354 0.485512
vt 0.463787 0.533661
vt 0.575338 0.286199
vt 0.494872 0.346556
vt 0.450426 0.293016
vt 0.261659 0.652363
vt 0.498756 0.605435
vt 0.471237 0.449843
vt 0.502333 0.394477
vt 0.404757 0.250059
vt 0.432135 0.320657
vt 0.378738 0.275718
vt 0.374227 0.703020
vt 0.244363 0.789220
vt 0.378814 0.656209
vt 0.389176 0.489610
vt 0.423502 0.685131
vt 0.381056 0.583889
vt 0.263266 0.752984
vt 0.681795 0.190062
vt 0.617400 0.240179
vt 0.482629 0.372248
vt 0.438701 0.408775
vt 0.344290 0.450306
vt 0.409359 0.425114
vt 0.386656 0.372214
vt 0.477891 0.178359
vt 0.552837 0.248650
vt 0.272589 0.406711
vt 0.314088 0.424512
vt 0.327953 0.333885
vt 0.365365 0.369630
vt 0.382494 0.396471
vt 0.212993 0.494013
vt 0.548515 0.221425
vt 0.118181 0.732534
vt 0.560015 0.166327
vt 0.523446 0.130315
vt 0.142382 0.709612
vt 0.089162 0.669468
vt 0.150580 0.581801
vt 0.191785 0.615109
vt 0.185220 0.732547
vt 0.527965 0.198727
vt 0.592358 0.200332
vt 0.721603 0.243960
vt 0.832766 0.205577
vt 0.708834 0.229700
vt 0.796495 0.153562
vt 0.786192 0.232827
vt 0.749769 0.096109
vt 0.762653 0.227254
vt 0.721560 0.217011
vt 0.746333 0.206692
vt 0.689245 0.117439
vt 0.719644 0.106293
vt 0.797233 0.254858
vt 0.776840 0.221567
vt 0.773187 0.088910
vt 0.736327 0.100598
vt 0.679863 0.171848
vt 0.786859 0.120798
vt 0.797412 0.079573
vt 0.515758 0.197282
vt 0.572897 0.079584
vt 0.123091 0.739169
vt 0.496676 0.912125
vt 0.511165 0.919577
vt 0.401026 0.827312
vt 0.556272 0.829476
vt 0.528111 0.821334
vt 0.531518 0.696033
vt 0.526191 0.900719
vt 0.514316 0.862015
vt 0.570058 0.769197
vt 0.600362 0.832061
vt 0.505437 0.849206
vt 0.506380 0.816530
vt 0.479814 0.694993
vt 0.479704 0.849871
vt 0.509349 0.695460
vt 0.568589 0.697914
vt 0.439099 0.696086
vt 0.428421 0.822695
vt 0.385528 0.751744
vt 0.569557 0.736278
vt 0.396195 0.755342
vt 0.607150 0.697104
vt 0.423092 0.741101
vt 0.544594 0.459158
vt 0.537966 0.475369
vt 0.606412 0.351625
vt 0.696283 0.507766
vt 0.638081 0.483666
vt 0.763446 0.462851
vt 0.609010 0.437345
vt 0.618103 0.378596
vt 0.626426 0.414102
vt 0.570566 0.489439
vt 0.600955 0.474618
vt 0.554003 0.487872
vt 0.689140 0.525036
vt 0.651408 0.558198
vt 0.762115 0.454132
vt 0.750998 0.401960
vt 0.615049 0.462650
vt 0.699651 0.443944
vt 0.768693 0.496100
vt 0.757569 0.432247
vt 0.739420 0.361333
vt 0.671818 0.317383
vt 0.735303 0.513702
vt 0.671802 0.328941
vt 0.779167 0.536467
vt 0.733343 0.503245
vt 0.692343 0.353520
vt 0.669735 0.159320
vt 0.164148 0.772716
vt 0.633523 0.117838
vt 0.194854 0.783434
vt 0.625321 0.117404
vt 0.072413 0.689691
vt 0.616864 0.317462
vt 0.534581 0.390115
vt 0.531841 0.454907
vt 0.554956 0.543882
vt 0.453612 0.471596
vt 0.532461 0.601805
vt 0.326449 0.650114
vt 0.319609 0.689359
vt 0.342279 0.551896
vt 0.643686 0.265879
vt 0.685369 0.217290
vt 0.696027 0.240299
vt 0.386770 0.829376
vt 0.609108 0.752675
vt 0.392478 0.697449
vt 0.395812 0.852844
vt 0.590433 0.854220
vt 0.566353 0.851422
vt 0.412787 0.850832
vt 0.522849 0.850026
vt 0.790641 0.271251
vt 0.706448 0.248168
vt 0.817543 0.123519
vt 0.665684 0.126387
vt 0.790662 0.216840
vt 0.778545 0.265089
vt 0.815193 0.210182
vt 0.529726 0.645170
vt 0.761506 0.639108
vt 0.562991 0.538953
vt 0.616312 0.747134
vt 0.628300 0.758135
vt 0.533229 0.665201
vt 0.657027 0.693763
vt 0.696693 0.706799
vt 0.600690 0.337195
vt 0.727059 0.550886
vt 0.724522 0.311129
vt 0.581336 0.352263
vt 0.628555 0.552689
vt 0.626695 0.532105
vt 0.617828 0.480945
vt 0.588434 0.369457
vt 0.625321 0.515072
vt 0.100632 0.283497
vt 0.348944 0.140035
vt 0.072413 0.142594
vt 0.119599 0.309157
vt 0.353144 0.253454
vt 0.329559 0.256217
vt 0.160661 0.295861
vt 0.310243 0.258154
vt 0.270532 0.267154
vt 0.131440 0.303287
vn -0.492856 0.534463 -0.686617
vn -0.492856 0.534463 -0.686617
vn -0.492856 0.534463 -0.686617
vn 0.936700 0.038427 0.348017
vn 0.936700 0.038427 0.348017
vn 0.936700 0.038427 0.348017
vn 0.016101 0.999114 -0.038882
vn 0.016101 0.999114 -0.038882
vn 0.016101 0.999114 -0.038882
vn 0.972951 0.189317 0.132385
vn 0.972951 0.189317 0.132385
vn 0.972951 0.189317 0.132385
vn 0.764928 0.128404 -0.631188
vn 0.764928 0.128404 -0.631188
vn 0.764928 0.128404 -0.631188
vn 0.821959 0.136911 -0.552846
vn 0.821959 0.136911 -0.552846
vn 0.821959 0.136911 -0.552846
vn 0.876213 0.205588 0.435872
vn 0.876213 0.205588 0.435872
vn 0.876213 0.205588 0.435872
vn -0.007677 0.035144 0.999353
vn -0.007677 0.035144 0.999353
vn -0.007677 0.035144 0.999353
vn -0.330070 0.428352 -0.841171
vn -0.330070 0.428352 -0.841171
vn -0.330070 0.428352 -0.841171
vn 0.878920 0.011280 0.476835
vn 0.878920 0.011280 0.476835
vn 0.878920 0.011280 0.476835
vn 0.997417 -0.039971 0.059680
vn 0.997417 -0.039971 0.059680
vn 0.997417 -0.039971 0.059680
vn 0.107680 0.004043 0.994177
vn 0.107680 0.004043 0.994177
vn 0.107680 0.004043 0.994177
vn -0.996998 0.003563 0.077345
vn -0.996998 0.003563 0.077345
vn -0.996998 0.003563 0.077345
vn -0.903073 0.421523 -0.082328
vn -0.903073 0.421523 -0.082328
vn -0.903073 0.421523 -0.082328
vn -0.016099 0.999847 -0.006879
vn -0.016099 0.999847 -0.006879
vn -0.016099 0.999847 -0.006879
vn -0.030926 0.998959 -0.033527
vn -0.030926 0.998959 -0.033527
vn -0.030926 0.998959 -0.033527
vn 0.615783 0.684438 0.390328
vn 0.615783 0.684438 0.390328
vn 0.615783 0.684438 0.390328
vn -0.911242 0.270194 -0.310859
vn -0.911242 0.270194 -0.310859
vn -0.911242 0.270194 -0.310859
vn 0.642318 0.338870 -0.687455
vn 0.642318 0.338870 -0.687455
vn 0.642318 0.338870 -0.687455
vn -0.996359 0.001301 0.085253
vn -0.996359 0.001301 0.085253
vn -0.996359 0.001301 0.085253
vn 0.917020 0.148002 0.370364
vn 0.917020 0.148002 0.370364
vn 0.917020 0.148002 0.370364
vn 0.129967 0.198005 0.971547
vn 0.129967 0.198005 0.971547
vn 0.129967 0.198005 0.971547
vn 0.932632 0.038523 0.358766
vn 0.932632 0.038523 0.358766
vn 0.932632 0.038523 0.358766
vn 0.639610 -0.128915 -0.757813
vn 0.639610 -0.128915 -0.757813
vn 0.639610 -0.128915 -0.757813
vn -0.299640 -0.030246 -0.953573
vn -0.299640 -0.030246 -0.953573
vn -0.299640 -0.030246 -0.953573
vn -0.929244 -0.112224 -0.352010
vn -0.929244 -0.112224 -0.352010
vn -0.929244 -0.112224 -0.352010
vn -0.873290 -0.203381 -0.442719
vn -0.873290 -0.203381 -0.442719
vn -0.873290 -0.203381 -0.442719
vn -0.937474 -0.004527 -0.348025
vn -0.937474 -0.004527 -0.348025
vn -0.937474 -0.004527 -0.348025
vn -0.927088 -0.014142 -0.374577
vn -0.927088 -0.014142 -0.374577
vn -0.927088 -0.014142 -0.374577
vn 0.691185 0.407442 0.596871
vn 0.691185 0.407442 0.596871
vn 0.691185 0.407442 0.596871
vn -0.998325 0.042495 -0.039251
vn -0.998325 0.042495 -0.039251
vn -0.998325 0.042495 -0.039251
vn 0.925271 0.272687 -0.263657
vn 0.925271 0.272687 -0.263657
vn 0.925271 0.272687 -0.263657
vn -0.993495 0.000762 0.113871
vn -0.993495 0.000762 0.113871
vn -0.993495 0.000762 0.113871
vn -0.471360 0.130603 0.872217
vn -0.471360 0.130603 0.872217
vn -0.471360 0.130603 0.872217
vn 0.968031 0.228202 0.104110
vn 0.968031 0.228202 0.104110
vn 0.968031 0.228202 0.104110
vn -0.787471 0.130958 0.602279
vn -0.787471 0.130958 0.602279
vn -0.787471 0.130958 0.602279
vn -0.856754 0.055109 0.512772
vn -0.856754 0.055109 0.512772
vn -0.856754 0.055109 0.512772
vn -0.960901 0.176936 -0.212984
vn -0.960901 0.176936 -0.212984
vn -0.960901 0.176936 -0.212984
vn -0.308614 0.035407 -0.950528
vn -0.308614 0.035407 -0.950528
vn -0.308614 0.035407 -0.950528
vn 0.861677 -0.048982 0.505087
vn 0.861677 -0.048982 0.505087
vn 0.861677 -0.048982 0.505087
vn 0.861677 -0.048982 0.505087
vn 0.619837 0.355647 0.699513
vn 0.619837 0.355647 0.699513
vn 0.619837 0.355647 0.699513
vn -0.926424 0.002868 -0.376471
vn -0.926424 0.002868 -0.376471
vn -0.926424 0.002868 -0.376471
vn -0.980514 -0.061473 0.186586
vn -0.980514 -0.061473 0.186586
vn -0.980514 -0.061473 0.186586
vn -0.934347 0.011250 -0.356188
vn -0.934347 0.011250 -0.356188
vn -0.934347 0.011250 -0.356188
vn -0.785519 0.130333 0.604957
vn -0.785519 0.130333 0.604957
vn -0.785519 0.130333 0.604957
vn 0.791008 0.020422 -0.611465
vn 0.791008 0.020422 -0.611465
vn 0.791008 0.020422 -0.611465
vn 0.916333 -0.026738 -0.399524
vn 0.916333 -0.026738 -0.399524
vn 0.916333 -0.026738 -0.399524
vn -0.995268 0.092007 0.031262
vn -0.995268 0.092007 0.031262
vn -0.995268 0.092007 0.031262
vn 0.930151 0.199769 -0.308076
vn 0.930151 0.199769 -0.308076
vn 0.930151 0.199769 -0.308076
vn 0.014916 0.999661 0.021337
vn 0.014916 0.999661 0.021337
vn 0.014916 0.999661 0.021337
vn 0.024736 0.999222 0.030735
vn 0.024736 0.999222 0.030735
vn 0.024736 0.999222 0.030735
vn 0.947755 0.318756 -0.012433
vn 0.947755 0.318756 -0.012433
vn 0.947755 0.318756 -0.012433
vn -0.310197 0.296742 0.903173
vn -0.310197 0.296742 0.903173
vn -0.310197 0.296742 0.903173
vn 0.955808 -0.009137 -0.293850
vn 0.955808 -0.009137 -0.293850
vn 0.955808 -0.009137 -0.293850
vn -0.953097 0.046192 0.299121
vn -0.953097 0.046192 0.299121
vn -0.953097 0.046192 0.299121
vn -0.410130 0.008772 -0.911985
vn -0.410130 0.008772 -0.911985
vn -0.410130 0.008772 -0.911985
vn -0.427868 0.174761 -0.886785
vn -0.427868 0.174761 -0.886785
vn -0.427868 0.174761 -0.886785
vn -0.996321 0.061756 -0.059427
vn -0.996321 0.061756 -0.059427
vn -0.996321 0.061756 -0.059427
vn -0.428252 -0.001104 -0.903659
vn -0.428252 -0.001104 -0.903659
vn -0.428252 -0.001104 -0.903659
vn -0.337474 -0.077629 0.938128
vn -0.337474 -0.077629 0.938128
vn -0.337474 -0.077629 0.938128
vn 0.611440 -0.033284 0.790591
vn 0.611440 -0.033284 0.790591
vn 0.611440 -0.033284 0.790591
vn 0.993649 -0.106412 0.036582
vn 0.993649 -0.106412 0.036582
vn 0.993649 -0.106412 0.036582
vn -0.711531 -0.133288 0.689896
vn -0.711531 -0.133288 0.689896
vn -0.711531 -0.133288 0.689896
vn 0.969107 -0.200107 0.144183
vn 0.969107 -0.200107 0.144183
vn 0.969107 -0.200107 0.144183
vn 0.999367 -0.005025 0.035225
vn 0.999367 -0.005025 0.035225
vn 0.999367 -0.005025 0.035225
vn 0.997902 -0.014303 0.063143
vn 0.997902 -0.014303 0.063143
vn 0.997902 -0.014303 0.063143
vn 0.039163 0.997834 0.052858
vn 0.039163 0.997834 0.052858
vn 0.039163 0.997834 0.052858
vn 0.467169 0.858061 0.213270
vn 0.467169 0.858061 0.213270
vn 0.467169 0.858061 0.213270
vn 0.891927 0.370942 -0.258588
vn 0.891927 0.370942 -0.258588
vn 0.891927 0.370942 -0.258588
vn -0.990486 0.077515 -0.113703
vn -0.990486 0.077515 -0.113703
vn -0.990486 0.077515 -0.113703
vn 0.932463 0.327709 -0.152052
vn 0.932463 0.327709 -0.152052
vn 0.932463 0.327709 -0.152052
vn -0.726877 0.686611 0.014677
vn -0.726877 0.686611 0.014677
vn -0.726877 0.686611 0.014677
vn -0.930000 0.041014 0.365264
vn -0.930000 0.041014 0.365264
vn -0.930000 0.041014 0.365264
vn -0.248699 0.968403 0.018552
vn -0.248699 0.968403 0.018552
vn -0.248699 0.968403 0.018552
vn 0.898655 0.215327 -0.382170
vn 0.898655 0.215327 -0.382170
vn 0.898655 0.215327 -0.382170
vn 0.079869 0.970128 -0.229067
vn 0.079869 0.970128 -0.229067
vn 0.079869 0.970128 -0.229067
vn -0.254346 0.534171 -0.806207
vn -0.254346 0.534171 -0.806207
vn -0.254346 0.534171 -0.806207
vn -0.958487 0.280881 -0.049077
vn -0.958487 0.280881 -0.049077
vn -0.958487 0.280881 -0.049077
vn -0.865792 0.287231 0.409758
vn -0.865792 0.287231 0.409758
vn -0.865792 0.287231 0.409758
vn 0.928066 0.370687 0.035836
vn 0.928066 0.370687 0.035836
vn 0.928066 0.370687 0.035836
vn -0.543902 0.422161 0.725224
vn -0.543902 0.422161 0.725224
vn -0.543902 0.422161 0.725224
vn -0.923118 0.085319 0.374931
vn -0.923118 0.085319 0.374931
vn -0.923118 0.085319 0.374931
vn -0.939686 0.314549 -0.134346
vn -0.939686 0.314549 -0.134346
vn -0.939686 0.314549 -0.134346
vn -0.338225 0.113271 -0.934223
vn -0.338225 0.113271 -0.934223
vn -0.338225 0.113271 -0.934223
vn -0.736849 0.385955 0.555061
vn -0.736849 0.385955 0.555061
vn -0.736849 0.385955 0.555061
vn 0.478790 0.736714 0.477507
vn 0.478790 0.736714 0.477507
vn 0.478790 0.736714 0.477507
vn -0.766633 0.456412 0.451621
vn -0.766633 0.456412 0.451621
vn -0.766633 0.456412 0.451621
vn -0.554367 0.049705 0.830787
vn -0.554367 0.049705 0.830787
vn -0.554367 0.049705 0.830787
vn -0.968752 -0.012284 -0.247726
vn -0.968752 -0.012284 -0.247726
vn -0.968752 -0.012284 -0.247726
vn -0.992100 -0.109263 0.061646
vn -0.992100 -0.109263 0.061646
vn -0.992100 -0.109263 0.061646
vn 0.316499 0.010463 -0.948535
vn 0.316499 0.010463 -0.948535
vn 0.316499 0.010463 -0.948535
vn -0.423542 -0.152251 -0.892990
vn -0.423542 -0.152251 -0.892990
vn -0.423542 -0.152251 -0.892990
vn -0.949506 -0.006377 -0.313684
vn -0.949506 -0.006377 -0.313684
vn -0.949506 -0.006377 -0.313684
vn -0.458282 -0.110110 -0.881960
vn -0.458282 -0.110110 -0.881960
vn -0.458282 -0.110110 -0.881960
vn -0.451597 0.092382 -0.887427
vn -0.451597 0.092382 -0.887427
vn -0.451597 0.092382 -0.887427
vn -0.991947 0.069248 -0.106049
vn -0.991947 0.069248 -0.106049
vn -0.991947 0.069248 -0.106049
vn -0.993080 0.058580 -0.101785
vn -0.993080 0.058580 -0.101785
vn -0.993080 0.058580 -0.101785
vn -0.851602 0.230748 0.470670
vn -0.851602 0.230748 0.470670
vn -0.851602 0.230748 0.470670
vn 0.910576 0.036033 -0.411768
vn 0.910576 0.036033 -0.411768
vn 0.910576 0.036033 -0.411768
vn 0.959890 -0.045181 -0.276711
vn 0.959890 -0.045181 -0.276711
vn 0.959890 -0.045181 -0.276711
vn 0.794382 0.172225 0.582491
vn 0.794382 0.172225 0.582491
vn 0.794382 0.172225 0.582491
vn 0.929307 0.340084 -0.143986
vn 0.929307 0.340084 -0.143986
vn 0.929307 0.340084 -0.143986
vn -0.929413 0.041675 0.366681
vn -0.929413 0.041675 0.366681
vn -0.929413 0.041675 0.366681
vn -0.081373 0.992433 -0.091956
vn -0.081373 0.992433 -0.091956
vn -0.081373 0.992433 -0.091956
vn -0.830854 0.025455 -0.555907
vn -0.830854 0.025455 -0.555907
vn -0.830854 0.025455 -0.555907
vn -0.049745 0.998610 -0.017438
vn -0.049745 0.998610 -0.017438
vn -0.049745 0.998610 -0.017438
vn -0.871131 0.459178 -0.174027
vn -0.871131 0.459178 -0.174027
vn -0.871131 0.459178 -0.174027
vn -0.777601 0.363160 0.513275
vn -0.777601 0.363160 0.513275
vn -0.777601 0.363160 0.513275
vn 0.744561 0.667487 -0.009418
vn 0.744561 0.667487 -0.009418
vn 0.744561 0.667487 -0.009418
vn -0.183594 0.793966 0.579579
vn -0.183594 0.793966 0.579579
vn -0.183594 0.793966 0.579579
vn 0.984398 -0.021214 -0.174674
vn 0.984398 -0.021214 -0.174674
vn 0.984398 -0.021214 -0.174674
vn -0.860814 0.136463 0.490283
vn -0.860814 0.136463 0.490283
vn -0.860814 0.136463 0.490283
vn -0.759066 0.243683 -0.603687
vn -0.759066 0.243683 -0.603687
vn -0.759066 0.243683 -0.603687
vn -0.902743 0.389415 -0.182787
vn -0.902743 0.389415 -0.182787
vn -0.902743 0.389415 -0.182787
vn -0.397085 0.356109 -0.845878
vn -0.397085 0.356109 -0.845878
vn -0.397085 0.356109 -0.845878
vn -0.984834 0.078076 -0.154941
vn -0.984834 0.078076 -0.154941
vn -0.984834 0.078076 -0.154941
vn -0.467175 -0.073155 -0.881133
vn -0.467175 -0.073155 -0.881133
vn -0.467175 -0.073155 -0.881133
vn -0.962714 0.080681 -0.258211
vn -0.962714 0.080681 -0.258211
vn -0.962714 0.080681 -0.258211
vn -0.465998 0.066425 -0.882289
vn -0.465998 0.066425 -0.882289
vn -0.465998 0.066425 -0.882289
vn -0.968645 0.023070 -0.247377
vn -0.968645 0.023070 -0.247377
vn -0.968645 0.023070 -0.247377
vn -0.697594 -0.078043 -0.712230
vn -0.697594 -0.078043 -0.712230
vn -0.697594 -0.078043 -0.712230
vn -0.801050 0.259008 -0.539661
vn -0.801050 0.259008 -0.539661
vn -0.801050 0.259008 -0.539661
vn 0.645799 0.040560 -0.762430
vn 0.645799 0.040560 -0.762430
vn 0.645799 0.040560 -0.762430
vn -0.851462 0.229781 0.471394
vn -0.851462 0.229781 0.471394
vn -0.851462 0.229781 0.471394
vn -0.408127 -0.281921 0.868305
vn -0.408127 -0.281921 0.868305
vn -0.408127 -0.281921 0.868305
vn 0.615506 -0.112425 0.780072
vn 0.615506 -0.112425 0.780072
vn 0.615506 -0.112425 0.780072
vn 0.992160 -0.116993 0.043947
vn 0.992160 -0.116993 0.043947
vn 0.992160 -0.116993 0.043947
vn 0.960695 -0.247790 0.125164
vn 0.960695 -0.247790 0.125164
vn 0.960695 -0.247790 0.125164
vn 0.998820 -0.019404 0.044516
vn 0.998820 -0.019404 0.044516
vn 0.998820 -0.019404 0.044516
vn -0.707660 -0.202213 0.676999
vn -0.707660 -0.202213 0.676999
vn -0.707660 -0.202213 0.676999
vn 0.986667 -0.120947 0.108900
vn 0.986667 -0.120947 0.108900
vn 0.986667 -0.120947 0.108900
vn 0.149260 0.924442 0.350898
vn 0.149260 0.924442 0.350898
vn 0.149260 0.924442 0.350898
vn 0.039718 0.993150 -0.109886
vn 0.039718 0.993150 -0.109886
vn 0.039718 0.993150 -0.109886
vn 0.859879 0.004624 0.510477
vn 0.859879 0.004624 0.510477
vn 0.859879 0.004624 0.510477
vn 0.952650 0.003684 0.304046
vn 0.952650 0.003684 0.304046
vn 0.952650 0.003684 0.304046
vn 0.505660 0.353259 0.787094
vn 0.505660 0.353259 0.787094
vn 0.505660 0.353259 0.787094
vn -0.854915 0.037594 -0.517405
vn -0.854915 0.037594 -0.517405
vn -0.854915 0.037594 -0.517405
vn 0.946512 0.217184 0.238633
vn 0.946512 0.217184 0.238633
vn 0.946512 0.217184 0.238633
vn 0.989280 -0.035937 0.141541
vn 0.989280 -0.035937 0.141541
vn 0.989280 -0.035937 0.141541
vn -0.866334 0.090606 0.491177
vn -0.866334 0.090606 0.491177
vn -0.866334 0.090606 0.491177
vn 0.244830 0.021640 -0.969324
vn 0.244830 0.021640 -0.969324
vn 0.244830 0.021640 -0.969324
vn -0.954577 -0.058877 -0.292089
vn -0.954577 -0.058877 -0.292089
vn -0.954577 -0.058877 -0.292089
vn -0.697424 0.010874 -0.716576
vn -0.697424 0.010874 -0.716576
vn -0.697424 0.010874 -0.716576
vn -0.933382 0.125157 -0.336353
vn -0.933382 0.125157 -0.336353
vn -0.933382 0.125157 -0.336353
vn 0.939103 0.235344 0.250398
vn 0.939103 0.235344 0.250398
vn 0.939103 0.235344 0.250398
vn -0.071970 0.993279 -0.090654
vn -0.071970 0.993279 -0.090654
vn -0.071970 0.993279 -0.090654
vn -0.043845 0.998905 -0.016333
vn -0.043845 0.998905 -0.016333
vn -0.043845 0.998905 -0.016333
vn 0.859825 0.161466 0.484386
vn 0.859825 0.161466 0.484386
vn 0.859825 0.161466 0.484386
vn 0.967808 -0.011802 0.251411
vn 0.967808 -0.011802 0.251411
vn 0.967808 -0.011802 0.251411
vn -0.846069 0.037690 -0.531739
vn -0.846069 0.037690 -0.531739
vn -0.846069 0.037690 -0.531739
vn 0.106667 0.003851 -0.994287
vn 0.106667 0.003851 -0.994287
vn 0.106667 0.003851 -0.994287
vn 0.921432 0.017355 -0.388151
vn 0.921432 0.017355 -0.388151
vn 0.921432 0.017355 -0.388151
vn -0.720792 -0.118472 0.682952
vn -0.720792 -0.118472 0.682952
vn -0.720792 -0.118472 0.682952
vn 0.800772 -0.020654 0.598612
vn 0.800772 -0.020654 0.598612
vn 0.800772 -0.020654 0.598612
vn 0.822682 -0.027596 0.567831
vn 0.822682 -0.027596 0.567831
vn 0.822682 -0.027596 0.567831
vn 0.778592 -0.041260 0.626173
vn 0.778592 -0.041260 0.626173
vn 0.778592 -0.041260 0.626173
vn -0.998547 -0.017213 -0.051059
vn -0.998547 -0.017213 -0.051059
vn -0.998547 -0.017213 -0.051059
vn 0.661650 -0.107308 -0.742094
vn 0.661650 -0.107308 -0.742094
vn 0.661650 -0.107308 -0.742094
vn 0.005491 0.999960 0.007059
vn 0.005491 0.999960 0.007059
vn 0.005491 0.999960 0.007059
vn 0.969528 -0.016862 -0.244401
vn 0.969528 -0.016862 -0.244401
vn 0.969528 -0.016862 -0.244401
vn -0.992048 -0.038147 -0.119938
vn -0.992048 -0.038147 -0.119938
vn -0.992048 -0.038147 -0.119938
vn -0.299462 -0.097246 0.949139
vn -0.299462 -0.097246 0.949139
vn -0.299462 -0.097246 0.949139
vn 0.036120 0.999344 -0.002723
vn 0.036120 0.999344 -0.002723
vn 0.036120 0.999344 -0.002723
vn 0.957487 0.278675 0.074564
vn 0.957487 0.278675 0.074564
vn 0.957487 0.278675 0.074564
vn -0.789026 0.057128 -0.611698
vn -0.789026 0.057128 -0.611698
vn -0.789026 0.057128 -0.611698
vn -0.574388 -0.081612 0.814505
vn -0.574388 -0.081612 0.814505
vn -0.574388 -0.081612 0.814505
vn -0.142478 -0.822700 0.550331
vn -0.142478 -0.822700 0.550331
vn -0.142478 -0.822700 0.550331
vn -0.015188 0.998986 -0.042383
vn -0.015188 0.998986 -0.042383
vn -0.015188 0.998986 -0.042383
vn -0.938206 -0.056603 -0.341416
vn -0.938206 -0.056603 -0.341416
vn -0.938206 -0.056603 -0.341416
vn -0.809595 -0.043089 0.585405
vn -0.809595 -0.043089 0.585405
vn -0.809595 -0.043089 0.585405
vn -0.020952 0.054551 0.998291
vn -0.020952 0.054551 0.998291
vn -0.020952 0.054551 0.998291
vn -0.902788 0.429421 0.023887
vn -0.902788 0.429421 0.023887
vn -0.902788 0.429421 0.023887
vn 0.819095 0.032638 -0.572728
vn 0.819095 0.032638 -0.572728
vn 0.819095 0.032638 -0.572728
vn 0.666589 0.138217 -0.732499
vn 0.666589 0.138217 -0.732499
vn 0.666589 0.138217 -0.732499
vn -0.094362 0.098241 -0.990679
vn -0.094362 0.098241 -0.990679
vn -0.094362 0.098241 -0.990679
vn 0.042098 0.108173 -0.993240
vn 0.042098 0.108173 -0.993240
vn 0.042098 0.108173 -0.993240
vn 0.864964 0.151246 -0.478499
vn 0.864964 0.151246 -0.478499
vn 0.864964 0.151246 -0.478499
vn 0.818077 0.030271 0.574311
vn 0.818077 0.030271 0.574311
vn 0.818077 0.030271 0.574311
vn -0.918216 0.346803 -0.191328
vn -0.918216 0.346803 -0.191328
vn -0.918216 0.346803 -0.191328
vn 0.891407 0.009973 -0.453095
vn 0.891407 0.009973 -0.453095
vn 0.891407 0.009973 -0.453095
vn 0.614978 -0.034187 -0.787803
vn 0.614978 -0.034187 -0.787803
vn 0.614978 -0.034187 -0.787803
vn 0.877845 0.004365 0.478925
vn 0.877845 0.004365 0.478925
vn 0.877845 0.004365 0.478925
vn -0.500172 0.003122 0.865921
vn -0.500172 0.003122 0.865921
vn -0.500172 0.003122 0.865921
vn -0.608701 0.320537 0.725768
vn -0.608701 0.320537 0.725768
vn -0.608701 0.320537 0.725768
vn 0.003010 0.999984 0.004887
vn 0.003010 0.999984 0.004887
vn 0.003010 0.999984 0.004887
vn -0.043391 0.999058 0.000284
vn -0.043391 0.999058 0.000284
vn -0.043391 0.999058 0.000284
vn 0.765381 0.557210 -0.322039
vn 0.765381 0.557210 -0.322039
vn 0.765381 0.557210 -0.322039
vn -0.783512 0.204496 0.586763
vn -0.783512 0.204496 0.586763
vn -0.783512 0.204496 0.586763
vn -0.223624 0.273406 -0.935543
vn -0.223624 0.273406 -0.935543
vn -0.223624 0.273406 -0.935543
vn -0.494240 0.001511 0.869324
vn -0.494240 0.001511 0.869324
vn -0.494240 0.001511 0.869324
vn 0.829532 0.107596 -0.547996
vn 0.829532 0.107596 -0.547996
vn 0.829532 0.107596 -0.547996
vn 0.880171 0.147070 0.451297
vn 0.880171 0.147070 0.451297
vn 0.880171 0.147070 0.451297
vn 0.826952 0.032740 -0.561319
vn 0.826952 0.032740 -0.561319
vn 0.826952 0.032740 -0.561319
vn -0.260329 -0.103534 -0.959953
vn -0.260329 -0.103534 -0.959953
vn -0.260329 -0.103534 -0.959953
vn -0.955064 -0.024697 -0.295368
vn -0.955064 -0.024697 -0.295368
vn -0.955064 -0.024697 -0.295368
vn -0.819196 -0.094404 0.565690
vn -0.819196 -0.094404 0.565690
vn -0.819196 -0.094404 0.565690
vn -0.863616 -0.167955 0.475351
vn -0.863616 -0.167955 0.475351
vn -0.863616 -0.167955 0.475351
vn -0.818994 -0.003767 0.573789
vn -0.818994 -0.003767 0.573789
vn -0.818994 -0.003767 0.573789
vn -0.834713 -0.011866 0.550557
vn -0.834713 -0.011866 0.550557
vn -0.834713 -0.011866 0.550557
vn -0.611673 -0.014824 0.790972
vn -0.611673 -0.014824 0.790972
vn -0.611673 -0.014824 0.790972
vn -0.239338 -0.088774 -0.966869
vn -0.239338 -0.088774 -0.966869
vn -0.239338 -0.088774 -0.966869
vn -0.033018 0.999395 -0.010958
vn -0.033018 0.999395 -0.010958
vn -0.033018 0.999395 -0.010958
vn 0.258079 0.480710 0.838041
vn 0.258079 0.480710 0.838041
vn 0.258079 0.480710 0.838041
vn -0.770103 0.040681 -0.636621
vn -0.770103 0.040681 -0.636621
vn -0.770103 0.040681 -0.636621
vn 0.882553 0.319162 0.345306
vn 0.882553 0.319162 0.345306
vn 0.882553 0.319162 0.345306
vn -0.859453 -0.018317 -0.510887
vn -0.859453 -0.018317 -0.510887
vn -0.859453 -0.018317 -0.510887
vn -0.904899 0.137254 0.402889
vn -0.904899 0.137254 0.402889
vn -0.904899 0.137254 0.402889
vn -0.990530 0.137149 -0.006310
vn -0.990530 0.137149 -0.006310
vn -0.990530 0.137149 -0.006310
vn -0.992786 0.053245 -0.107432
vn -0.992786 0.053245 -0.107432
vn -0.992786 0.053245 -0.107432
vn 0.307674 0.040966 -0.950609
vn 0.307674 0.040966 -0.950609
vn 0.307674 0.040966 -0.950609
vn 0.070778 0.394191 0.916299
vn 0.070778 0.394191 0.916299
vn 0.070778 0.394191 0.916299
vn -0.578975 0.035339 -0.814579
vn -0.578975 0.035339 -0.814579
vn -0.578975 0.035339 -0.814579
vn -0.910397 -0.079193 -0.406085
vn -0.910397 -0.079193 -0.406085
vn -0.910397 -0.079193 -0.406085
vn -0.527207 0.011188 -0.849663
vn -0.527207 0.011188 -0.849663
vn -0.527207 0.011188 -0.849663
vn -0.990832 0.135027 0.004508
vn -0.990832 0.135027 0.004508
vn -0.990832 0.135027 0.004508
vn 0.999363 0.023867 -0.026542
vn 0.999363 0.023867 -0.026542
vn 0.999363 0.023867 -0.026542
vn 0.970877 -0.026323 0.238128
vn 0.970877 -0.026323 0.238128
vn 0.970877 -0.026323 0.238128
vn -0.815341 0.093474 -0.571386
vn -0.815341 0.093474 -0.571386
vn -0.815341 0.093474 -0.571386
vn 0.851376 0.376867 0.364870
vn 0.851376 0.376867 0.364870
vn 0.851376 0.376867 0.364870
vn 0.023282 0.998879 0.041220
vn 0.023282 0.998879 0.041220
vn 0.023282 0.998879 0.041220
vn 0.011615 0.998853 -0.046460
vn 0.011615 0.998853 -0.046460
vn 0.011615 0.998853 -0.046460
vn 0.769699 0.234955 0.593599
vn 0.769699 0.234955 0.593599
vn 0.769699 0.234955 0.593599
vn -0.783902 0.332545 0.524321
vn -0.783902 0.332545 0.524321
vn -0.783902 0.332545 0.524321
vn 0.937815 -0.008877 0.347021
vn 0.937815 -0.008877 0.347021
vn 0.937815 -0.008877 0.347021
vn -0.942419 0.044406 -0.331473
vn -0.942419 0.044406 -0.331473
vn -0.942419 0.044406 -0.331473
vn 0.277618 0.034978 -0.960055
vn 0.277618 0.034978 -0.960055
vn 0.277618 0.034978 -0.960055
vn -0.703917 0.058832 -0.707841
vn -0.703917 0.058832 -0.707841
vn -0.703917 0.058832 -0.707841
vn 0.206004 -0.001717 -0.978550
vn 0.206004 -0.001717 -0.978550
vn 0.206004 -0.001717 -0.978550
vn -0.792783 -0.191524 0.578631
vn -0.792783 -0.191524 0.578631
vn -0.792783 -0.191524 0.578631
vn 0.006436 -0.033286 0.999425
vn 0.006436 -0.033286 0.999425
vn 0.006436 -0.033286 0.999425
vn 0.767629 -0.106424 0.631996
vn 0.767629 -0.106424 0.631996
vn 0.767629 -0.106424 0.631996
vn -0.988616 -0.092647 0.118556
vn -0.988616 -0.092647 0.118556
vn -0.988616 -0.092647 0.118556
vn 0.682903 -0.200021 0.702592
vn 0.682903 -0.200021 0.702592
vn 0.682903 -0.200021 0.702592
vn 0.772619 -0.004511 0.634854
vn 0.772619 -0.004511 0.634854
vn 0.772619 -0.004511 0.634854
vn 0.755260 -0.013147 0.655294
vn 0.755260 -0.013147 0.655294
vn 0.755260 -0.013147 0.655294
vn 0.919629 -0.016060 0.392459
vn 0.919629 -0.016060 0.392459
vn 0.919629 -0.016060 0.392459
vn 0.691142 0.022161 -0.722379
vn 0.691142 0.022161 -0.722379
vn 0.691142 0.022161 -0.722379
vn -0.870195 -0.099589 0.482538
vn -0.870195 -0.099589 0.482538
vn -0.870195 -0.099589 0.482538
vn -0.000949 0.999399 0.034637
vn -0.000949 0.999399 0.034637
vn -0.000949 0.999399 0.034637
vn -0.340492 0.008048 -0.940213
vn -0.340492 0.008048 -0.940213
vn -0.340492 0.008048 -0.940213
vn -0.340492 0.008048 -0.940213
vn 0.642130 -0.042601 -0.765411
vn 0.642130 -0.042601 -0.765411
vn 0.642130 -0.042601 -0.765411
vn 0.642130 -0.042601 -0.765411
vn 0.641852 0.010099 0.766762
vn 0.641852 0.010099 0.766762
vn 0.641852 0.010099 0.766762
vn 0.641852 0.010099 0.766762
vn -0.668278 -0.154009 0.727795
vn -0.668278 -0.154009 0.727795
vn -0.668278 -0.154009 0.727795
vn -0.723526 -0.045675 0.688785
vn -0.723526 -0.045675 0.688785
vn -0.723526 -0.045675 0.688785
vn -0.723526 -0.045675 0.688785
vn -0.032718 0.999451 -0.005169
vn -0.032718 0.999451 -0.005169
vn -0.032718 0.999451 -0.005169
vn -0.032718 0.999451 -0.005169
vn -0.298869 -0.050204 0.952973
vn -0.298869 -0.050204 0.952973
vn -0.298869 -0.050204 0.952973
vn -0.298869 -0.050204 0.952973
vn 0.986725 -0.117818 -0.111767
vn 0.986725 -0.117818 -0.111767
vn 0.986725 -0.117818 -0.111767
vn 0.986725 -0.117818 -0.111767
vn -0.314936 -0.866437 0.387431
vn -0.314936 -0.866437 0.387431
vn -0.314936 -0.866437 0.387431
vn -0.539500 0.289486 0.790656
vn -0.539500 0.289486 0.790656
vn -0.539500 0.289486 0.790656
vn -0.539500 0.289486 0.790656
vn 0.650095 0.371290 0.662963
vn 0.650095 0.371290 0.662963
vn 0.650095 0.371290 0.662963
vn 0.650095 0.371290 0.662963
vn -0.777672 -0.303082 0.550789
vn -0.777672 -0.303082 0.550789
vn -0.777672 -0.303082 0.550789
vn -0.777672 -0.303082 0.550789
vn -0.994492 -0.104808 0.000822
vn -0.994492 -0.104808 0.000822
vn -0.994492 -0.104808 0.000822
vn -0.994492 -0.104808 0.000822
vn 0.723345 -0.031833 0.689753
vn 0.723345 -0.031833 0.689753
vn 0.723345 -0.031833 0.689753
vn 0.723345 -0.031833 0.689753
vn 0.600034 -0.121117 0.790753
vn 0.600034 -0.121117 0.790753
vn 0.600034 -0.121117 0.790753
vn 0.228470 0.970507 0.076921
vn 0.228470 0.970507 0.076921
vn 0.228470 0.970507 0.076921
vn 0.228470 0.970507 0.076921
vn -0.871534 0.265180 0.412442
vn -0.871534 0.265180 0.412442
vn -0.871534 0.265180 0.412442
vn 0.392958 -0.865116 0.311704
vn 0.392958 -0.865116 0.311704
vn 0.392958 -0.865116 0.311704
vn -0.866265 0.031332 0.498601
vn -0.866265 0.031332 0.498601
vn -0.866265 0.031332 0.498601
vn -0.458594 -0.145332 0.876681
vn -0.458594 -0.145332 0.876681
vn -0.458594 -0.145332 0.876681
vn -0.458594 -0.145332 0.876681
vn -0.032213 0.999211 -0.023216
vn -0.032213 0.999211 -0.023216
vn -0.032213 0.999211 -0.023216
vn -0.032213 0.999211 -0.023216
vn -0.750400 0.000522 0.660984
vn -0.750400 0.000522 0.660984
vn -0.750400 0.000522 0.660984
vn -0.750400 0.000522 0.660984
vn 0.908549 -0.043415 -0.415516
vn 0.908549 -0.043415 -0.415516
vn 0.908549 -0.043415 -0.415516
vn 0.908549 -0.043415 -0.415516
vn -0.967436 0.007008 -0.253017
vn -0.967436 0.007008 -0.253017
vn -0.967436 0.007008 -0.253017
vn -0.967436 0.007008 -0.253017
vn -0.268277 -0.036889 -0.962635
vn -0.268277 -0.036889 -0.962635
vn -0.268277 -0.036889 -0.962635
vn -0.268277 -0.036889 -0.962635
vn -0.012088 0.999864 0.011218
vn -0.012088 0.999864 0.011218
vn -0.012088 0.999864 0.011218
vn 0.044840 0.010368 0.998940
vn 0.044840 0.010368 0.998940
vn 0.044840 0.010368 0.998940
vn 0.044840 0.010368 0.998940
vn -0.993012 -0.042848 0.109959
vn -0.993012 -0.042848 0.109959
vn -0.993012 -0.042848 0.109959
vn -0.993012 -0.042848 0.109959
vn -0.002753 0.999760 -0.021732
vn -0.002753 0.999760 -0.021732
vn -0.002753 0.999760 -0.021732
vn -0.002753 0.999760 -0.021732
vn -0.817192 -0.047203 0.574430
vn -0.817192 -0.047203 0.574430
vn -0.817192 -0.047203 0.574430
vn -0.817192 -0.047203 0.574430
s off
g transform1
usemtl set1
f 3/1/1 14/212/2 21/3/3
f 10/4/4 13/5/5 16/6/6
f 9/7/7 14/211/8 3/210/9
f 13/5/10 9/214/11 7/213/12
f 9/214/13 22/9/14 5/10/15
f 22/9/16 9/214/17 10/4/18
f 11/11/19 12/12/20 7/213/21
f 17/13/22 12/12/23 6/14/24
f 14/212/25 5/207/26 21/3/27
f 16/6/28 12/12/29 15/15/30
f 1/16/31 10/4/32 16/6/33
f 17/13/34 15/15/35 12/12/36
f 6/14/37 2/17/38 17/13/39
f 6/14/40 3/1/41 4/18/42
f 6/14/43 7/8/44 9/7/45
f 11/11/46 7/8/47 6/14/48
f 13/5/49 10/4/50 9/214/51
f 3/1/52 21/3/53 4/18/54
f 5/10/55 14/2/56 9/214/57
f 2/17/58 6/14/59 4/18/60
f 12/12/61 13/5/62 7/213/63
f 12/12/64 11/11/65 6/14/66
f 16/6/67 13/5/68 12/12/69
f 19/208/70 23/20/71 1/16/72
f 18/21/73 19/19/74 8/209/75
f 18/21/76 8/209/77 2/17/78
f 20/23/79 18/21/80 2/17/81
f 20/23/82 4/18/83 21/3/84
f 21/3/85 18/21/86 20/23/87
f 33/233/88 43/227/89 52/26/90
f 44/27/91 37/28/92 46/29/93
f 32/30/94 30/31/95 34/32/96
f 37/28/97 40/231/98 35/232/99
f 38/229/100 39/36/101 31/37/102
f 30/31/103 29/230/104 33/233/105
f 39/36/106 38/229/107 44/27/108
f 46/29/109 35/232/110 28/39/111
f 41/40/112 42/41/113 35/232/114
f 47/42/115 42/41/116 32/30/117
f 10/4/118 1/16/119 23/20/120 22/9/121
f 43/227/122 31/224/123 52/26/124
f 28/39/125 42/41/126 45/43/127
f 25/44/128 44/27/129 46/29/130
f 28/39/131 45/43/132 24/45/133
f 38/229/134 40/231/135 44/27/136
f 32/30/137 34/32/138 47/42/139
f 34/32/140 26/46/141 47/42/142
f 44/27/143 40/231/144 37/28/145
f 32/30/146 29/230/147 30/31/148
f 32/30/149 35/34/150 40/33/151
f 41/40/152 35/34/153 32/30/154
f 33/233/155 52/26/156 30/31/157
f 31/37/158 43/228/159 38/229/160
f 26/46/161 34/32/162 30/31/163
f 46/29/164 37/28/165 35/232/166
f 47/42/167 45/43/168 42/41/169
f 42/41/170 41/40/171 32/30/172
f 28/39/173 35/232/174 42/41/175
f 24/45/176 45/43/177 47/42/178
f 50/225/179 53/48/180 27/49/181
f 48/50/182 50/47/183 36/226/184
f 48/50/185 36/226/186 26/46/187
f 53/48/188 49/52/189 25/44/190
f 51/53/191 48/50/192 26/46/193
f 51/53/194 30/31/195 52/26/196
f 52/26/197 48/50/198 51/53/199
f 29/38/200 38/35/201 33/24/202
f 68/54/203 83/55/204 67/56/205
f 69/184/206 66/58/207 73/59/208
f 77/60/209 75/61/210 89/62/211
f 73/59/212 63/188/213 69/184/214
f 70/64/215 78/183/216 71/185/217
f 59/67/218 92/68/219 60/69/220
f 84/70/221 65/187/222 103/72/223
f 69/184/224 79/182/225 66/58/226
f 78/183/227 73/59/228 66/58/229
f 79/182/230 78/183/231 66/58/232
f 75/61/233 72/180/234 70/181/235
f 71/66/236 75/61/237 70/181/238
f 63/188/239 62/75/240 104/186/241
f 64/77/242 84/189/243 76/78/244
f 89/62/245 82/79/246 92/68/247
f 78/65/248 81/80/249 71/66/250
f 91/81/251 80/82/252 79/73/253
f 71/66/254 82/79/255 75/61/256
f 83/55/257 64/177/258 67/56/259
f 77/60/260 76/78/261 84/189/262
f 84/189/263 83/190/264 65/191/265
f 92/68/266 81/80/267 86/83/268
f 56/84/269 85/85/270 59/67/271
f 91/81/272 93/86/273 90/87/274
f 55/88/275 90/87/276 93/86/277
f 60/69/278 87/89/279 55/88/280
f 91/81/281 88/90/282 80/82/283
f 88/90/284 90/87/285 87/89/286
f 89/62/287 85/85/288 77/60/289
f 85/85/290 89/62/291 59/67/292
f 76/78/293 77/60/294 85/85/295
f 79/73/296 69/57/297 93/86/298
f 69/57/299 57/91/300 93/86/301
f 104/76/302 65/71/303 83/55/304
f 73/59/305 62/75/306 63/188/307
f 59/67/308 89/62/309 92/68/310
f 73/59/311 70/64/312 72/74/313
f 80/82/314 86/83/315 81/80/316
f 78/183/317 70/64/318 73/59/319
f 75/61/320 77/60/321 72/180/322
f 72/180/323 77/60/324 84/189/325
f 68/54/326 67/56/327 63/63/328
f 64/77/329 83/190/330 84/189/331
f 57/91/332 69/57/333 63/63/334
f 89/62/335 75/61/336 82/79/337
f 80/82/338 81/80/339 78/65/340
f 81/80/341 82/79/342 71/66/343
f 80/82/344 78/65/345 79/73/346
f 92/68/347 82/79/348 81/80/349
f 55/88/350 87/89/351 90/87/352
f 60/69/353 92/68/354 87/89/355
f 88/90/356 91/81/357 90/87/358
f 86/83/359 87/89/360 92/68/361
f 80/82/362 88/90/363 86/83/364
f 86/83/365 88/90/366 87/89/367
f 79/73/368 93/86/369 91/81/370
f 101/92/371 76/78/372 85/85/373
f 96/178/374 106/94/375 58/95/376
f 94/96/377 96/93/378 54/97/379
f 94/96/380 54/97/381 61/98/382
f 97/99/383 94/96/384 61/98/385
f 97/99/386 63/63/387 99/100/388
f 102/101/389 106/94/390 100/102/391
f 99/100/392 94/96/393 97/99/394
f 72/74/395 84/70/396 103/72/397
f 62/75/398 103/72/399 104/186/400
f 68/54/401 104/76/402 83/55/403
f 68/54/404 63/63/405 104/76/406
f 111/103/407 113/201/408 123/105/409
f 119/106/410 116/204/411 121/108/412
f 114/109/413 112/110/414 115/111/415
f 110/112/416 107/113/417 115/111/418
f 118/206/419 119/106/420 113/104/421
f 107/113/422 120/115/423 114/109/424
f 109/116/425 119/106/426 121/108/427
f 121/108/428 120/115/429 108/117/430
f 119/106/431 118/206/432 116/204/433
f 114/109/434 111/103/435 112/110/436
f 114/109/437 116/107/438 118/114/439
f 120/115/440 116/107/441 114/109/442
f 111/103/443 123/105/444 112/110/445
f 110/112/446 115/111/447 112/110/448
f 121/108/449 116/204/450 120/115/451
f 108/117/452 120/115/453 107/113/454
f 114/109/455 115/111/456 107/113/457
f 122/202/458 124/119/459 109/116/460
f 122/118/461 117/203/462 110/112/463
f 110/112/464 112/110/465 123/105/466
f 123/105/467 122/118/468 110/112/469
f 20/23/470 2/17/471 4/18/472
f 19/208/473 1/16/474 8/22/475
f 3/210/476 6/14/477 9/7/478
f 51/53/479 26/46/480 30/31/481
f 49/52/482 44/27/483 25/44/484
f 50/225/485 27/49/486 36/51/487
f 38/35/488 43/25/489 33/24/490
f 63/63/491 67/56/492 99/100/493
f 102/101/494 101/92/495 95/121/496
f 74/122/497 96/178/498 58/95/499
f 106/94/500 96/178/501 105/176/502
f 103/72/503 65/187/504 104/186/505
f 124/119/506 119/106/507 109/116/508
f 122/202/509 109/116/510 117/120/511
f 113/201/512 122/118/513 123/105/514
f 127/198/515 138/195/516 145/126/517
f 134/127/518 137/128/519 140/129/520
f 137/128/521 133/197/522 131/199/523
f 133/197/524 146/132/525 129/133/526
f 146/132/527 133/197/528 134/127/529
f 135/134/530 136/135/531 131/199/532
f 141/136/533 136/135/534 130/137/535
f 138/195/536 129/192/537 145/126/538
f 140/129/539 136/135/540 139/138/541
f 125/139/542 134/127/543 140/129/544
f 141/136/545 139/138/546 136/135/547
f 130/137/548 126/140/549 141/136/550
f 130/137/551 127/198/552 128/141/553
f 130/137/554 131/131/555 133/130/556
f 135/134/557 131/131/558 130/137/559
f 137/128/560 134/127/561 133/197/562
f 127/198/563 145/126/564 128/141/565
f 129/133/566 138/196/567 133/197/568
f 126/140/569 130/137/570 128/141/571
f 136/135/572 137/128/573 131/199/574
f 136/135/575 135/134/576 130/137/577
f 140/129/578 137/128/579 136/135/580
f 143/193/581 147/143/582 125/139/583
f 142/144/584 143/142/585 132/194/586
f 142/144/587 132/194/588 126/140/589
f 144/146/590 142/144/591 126/140/592
f 144/146/593 128/141/594 145/126/595
f 145/126/596 142/144/597 144/146/598
f 144/146/599 126/140/600 128/141/601
f 143/193/602 125/139/603 132/145/604
f 133/130/605 138/125/606 127/124/607
f 152/222/608 164/218/609 173/149/610
f 165/150/611 159/151/612 167/152/613
f 155/153/614 153/154/615 156/155/616
f 159/151/617 162/223/618 157/221/619
f 160/220/620 161/159/621 154/160/622
f 161/159/623 160/220/624 165/150/625
f 167/152/626 157/221/627 151/161/628
f 168/162/629 163/163/630 155/153/631
f 164/218/632 154/215/633 173/149/634
f 151/161/635 163/163/636 166/164/637
f 149/165/638 165/150/639 167/152/640
f 151/161/641 166/164/642 148/166/643
f 160/220/644 162/223/645 165/150/646
f 155/153/647 156/155/648 168/162/649
f 156/155/650 150/167/651 168/162/652
f 165/150/653 162/223/654 159/151/655
f 155/153/656 152/222/657 153/154/658
f 155/153/659 157/157/660 162/156/661
f 163/163/662 157/157/663 155/153/664
f 152/222/665 173/149/666 153/154/667
f 154/160/668 164/219/669 160/220/670
f 150/167/671 156/155/672 153/154/673
f 167/152/674 159/151/675 157/221/676
f 168/162/677 166/164/678 163/163/679
f 151/161/680 157/221/681 163/163/682
f 148/166/683 166/164/684 168/162/685
f 171/216/686 174/169/687 149/165/688
f 169/170/689 171/168/690 158/217/691
f 169/170/692 158/217/693 150/167/694
f 174/169/695 170/172/696 149/165/697
f 172/173/698 169/170/699 150/167/700
f 172/173/701 153/154/702 173/149/703
f 173/149/704 169/170/705 172/173/706
f 172/173/707 150/167/708 153/154/709
f 170/172/710 165/150/711 149/165/712
f 171/216/713 149/165/714 158/171/715
f 160/158/716 164/148/717 152/147/718
f 18/21/719 21/3/720 5/207/721 19/19/722
f 22/9/723 23/20/724 19/208/725 5/10/726
f 48/50/727 52/26/728 31/224/729 50/47/730
f 53/48/731 25/44/732 27/49/733
f 44/27/734 49/52/735 53/48/736 39/36/737
f 32/30/738 40/33/739 38/35/740 29/38/741
f 39/36/742 53/48/743 50/225/744 31/37/745
f 57/91/746 63/63/747 97/99/748 61/98/749
f 102/101/750 95/121/751 106/94/752
f 76/78/753 100/102/754 98/174/755 64/77/756
f 64/177/757 98/175/758 99/100/759 67/56/760
f 58/95/761 106/94/762 95/121/763 56/84/764
f 85/85/765 56/84/766 95/121/767 101/92/768
f 105/123/769 94/96/770 99/100/771 98/175/772
f 74/179/773 54/97/774 96/93/775
f 72/74/776 103/72/777 62/75/778 73/59/779
f 100/102/780 76/78/781 101/92/782
f 94/96/783 105/123/784 96/93/785
f 102/101/786 100/102/787 101/92/788
f 100/102/789 106/94/790 105/176/791 98/174/792
f 118/114/793 113/200/794 111/205/795 114/109/796
f 119/106/797 124/119/798 122/202/799 113/104/800
f 134/127/801 125/139/802 147/143/803 146/132/804
f 142/144/805 145/126/806 129/192/807 143/142/808
f 146/132/809 147/143/810 143/193/811 129/133/812
f 133/130/813 127/124/814 130/137/815
f 169/170/816 173/149/817 154/215/818 171/168/819
f 165/150/820 170/172/821 174/169/822 161/159/823
f 155/153/824 162/156/825 160/158/826 152/147/827
f 161/159/828 174/169/829 171/216/830 154/160/831
