# This file uses centimeters as units for non-parametric coordinates.

mtllib Ê¯°åÂ·3.mtl
g default
v 47.496872 68.607903 292.324432
v 157.415359 37.121346 -16.431818
v 169.428040 -17.585993 -28.057432
v -90.316315 24.447107 -257.875122
v -172.211670 13.796186 -0.501893
v -26.261919 28.096151 -291.759003
v -148.229294 20.189142 -213.489960
v 98.655006 22.582769 -220.208054
v -189.159424 12.924194 -83.939865
v 142.690445 66.278412 205.896255
v 179.442459 50.046349 167.597778
v 152.147079 -30.638170 -138.554688
v 93.829605 -38.348534 -150.814117
v 191.998077 -38.641693 40.559841
v -83.053322 1.557493 -267.247620
v -175.464554 -36.411713 -8.124420
v -33.915157 4.331923 -292.324463
v -158.654617 -4.681063 -208.373306
v 59.787540 2.802992 -262.457794
v -190.082291 -13.196325 -116.182030
v 105.484177 -11.250448 -225.169189
v -140.200638 -29.012918 109.649254
v -116.335892 -31.840181 163.363235
v 49.547462 -22.136927 278.172241
v 50.421696 -13.003874 289.700134
v -41.324635 -26.932049 212.043030
v -53.298206 -12.853241 211.231750
v -80.810661 -29.760313 187.883789
v 23.198301 -14.595938 273.366882
v 24.364645 -23.502684 260.670532
v 88.380989 -24.183035 242.757751
v 98.044380 1.680517 242.487793
v 149.466873 1.310253 195.798447
v 148.203445 -16.267824 186.078400
v 181.548004 6.638098 157.652847
v 178.916718 -15.715647 154.605133
v -173.150848 18.084955 -190.653229
v -191.998077 15.022993 -144.641251
v -191.623520 -10.312510 -149.625214
v -172.753647 -6.029558 -195.436340
v -55.190392 44.611786 211.530731
v -59.038849 29.389429 216.815445
v 8.154182 59.135532 259.483368
v -1.397055 41.868591 263.107025
v -154.678040 8.896685 81.358376
v -119.580963 14.133787 160.475876
v -111.314705 30.443764 159.572784
vt 0.571279 0.955408
vt 0.434749 0.605059
vt 0.463106 0.585625
vt 0.393135 0.266309
vt 0.377084 0.696287
vt 0.432105 0.269157
vt 0.263342 0.403902
vt 0.544167 0.668450
vt 0.282333 0.330058
vt 0.379223 0.788516
vt 0.482002 0.469036
vt 0.479594 0.398167
vt 0.290280 0.571870
vt 0.291344 0.632125
vt 0.265985 0.586223
vt 0.473026 0.315639
vt 0.382179 0.616692
vt 0.337453 0.615177
vt 0.303354 0.570699
vt 0.452936 0.382006
vt 0.488014 0.344213
vt 0.510887 0.648237
vt 0.291053 0.308365
vt 0.458657 0.651746
vt 0.326627 0.278825
vt 0.475703 0.884550
vt 0.264881 0.487804
vt 0.284643 0.546988
vt 0.269032 0.524413
vt 0.451346 0.576759
vt 0.428783 0.593951
vt 0.468220 0.510356
vt 0.304288 0.271961
vt 0.301540 0.672623
vt 0.332802 0.624101
vt 0.351662 0.642225
vt 0.396278 0.629236
vt 0.605653 0.946361
vt 0.351228 0.631997
vt 0.314566 0.284159
vt 0.415853 0.670680
vt 0.230664 0.407412
vt 0.241515 0.530913
vt 0.240895 0.469193
vt 0.231179 0.537032
vt 0.256742 0.591637
vt 0.677069 0.887026
vt 0.669355 0.835885
vt 0.283546 0.642514
vt 0.683587 0.919757
vt 0.657179 0.787586
vt 0.276312 0.301779
vt 0.479179 0.644732
vt 0.585863 0.703585
vt 0.331900 0.261190
vt 0.386578 0.251758
vt 0.255492 0.344466
vt 0.444345 0.259145
vt 0.513772 0.334669
vt 0.521637 0.478656
vt 0.482735 0.605433
vt 0.456827 0.640665
vt 0.346126 0.640435
vt 0.381130 0.690255
vn 0.768234 -0.107325 0.631108
vn 0.768234 -0.107325 0.631108
vn 0.768234 -0.107325 0.631108
vn -0.455625 0.167538 -0.874264
vn -0.455625 0.167538 -0.874264
vn -0.455625 0.167538 -0.874264
vn -0.988415 -0.102849 0.111614
vn -0.988415 -0.102849 0.111614
vn -0.988415 -0.102849 0.111614
vn 0.823711 0.533567 -0.191848
vn 0.823711 0.533567 -0.191848
vn 0.823711 0.533567 -0.191848
vn -0.590917 -0.184124 0.785440
vn -0.590917 -0.184124 0.785440
vn -0.590917 -0.184124 0.785440
vn 0.189836 0.810519 -0.554095
vn 0.189836 0.810519 -0.554095
vn 0.189836 0.810519 -0.554095
vn 0.006596 -0.998087 0.061477
vn 0.006596 -0.998087 0.061477
vn 0.006596 -0.998087 0.061477
vn 0.188389 -0.931859 -0.310079
vn 0.188389 -0.931859 -0.310079
vn 0.188389 -0.931859 -0.310079
vn -0.998757 -0.023423 0.044008
vn -0.998757 -0.023423 0.044008
vn -0.998757 -0.023423 0.044008
vn -0.616484 0.097687 -0.781284
vn -0.616484 0.097687 -0.781284
vn -0.616484 0.097687 -0.781284
vn 0.656940 0.237527 -0.715550
vn 0.656940 0.237527 -0.715550
vn 0.656940 0.237527 -0.715550
vn 0.989368 0.076348 -0.123783
vn 0.989368 0.076348 -0.123783
vn 0.989368 0.076348 -0.123783
vn 0.015789 -0.996116 -0.086624
vn 0.015789 -0.996116 -0.086624
vn 0.015789 -0.996116 -0.086624
vn 0.134728 -0.984569 -0.111681
vn 0.134728 -0.984569 -0.111681
vn 0.134728 -0.984569 -0.111681
vn 0.240110 -0.946016 0.217715
vn 0.240110 -0.946016 0.217715
vn 0.240110 -0.946016 0.217715
vn -0.675625 0.134069 -0.724952
vn -0.675625 0.134069 -0.724952
vn -0.675625 0.134069 -0.724952
vn 0.109805 -0.988946 0.099643
vn 0.109805 -0.988946 0.099643
vn 0.109805 -0.988946 0.099643
vn -0.511958 -0.045930 0.857782
vn -0.511958 -0.045930 0.857782
vn -0.511958 -0.045930 0.857782
vn 0.670938 -0.044435 0.740181
vn 0.670938 -0.044435 0.740181
vn 0.670938 -0.044435 0.740181
vn 0.058962 -0.998050 0.020471
vn 0.058962 -0.998050 0.020471
vn 0.058962 -0.998050 0.020471
vn 0.003154 -0.988238 0.152893
vn 0.003154 -0.988238 0.152893
vn 0.003154 -0.988238 0.152893
vn 0.058306 -0.996849 -0.053784
vn 0.058306 -0.996849 -0.053784
vn 0.058306 -0.996849 -0.053784
vn 0.671355 -0.044956 0.739771
vn 0.671355 -0.044956 0.739771
vn 0.671355 -0.044956 0.739771
vn -0.006293 -0.999979 0.001696
vn -0.006293 -0.999979 0.001696
vn -0.006293 -0.999979 0.001696
vn -0.014951 -0.997631 0.067150
vn -0.014951 -0.997631 0.067150
vn -0.014951 -0.997631 0.067150
vn -0.008454 -0.939090 -0.343568
vn -0.008454 -0.939090 -0.343568
vn -0.008454 -0.939090 -0.343568
vn 0.011618 -0.996102 -0.087441
vn 0.011618 -0.996102 -0.087441
vn 0.011618 -0.996102 -0.087441
vn -0.082305 -0.974458 -0.208946
vn -0.082305 -0.974458 -0.208946
vn -0.082305 -0.974458 -0.208946
vn -0.093687 -0.982088 -0.163482
vn -0.093687 -0.982088 -0.163482
vn -0.093687 -0.982088 -0.163482
vn -0.245400 -0.954081 -0.171780
vn -0.245400 -0.954081 -0.171780
vn -0.245400 -0.954081 -0.171780
vn 0.019937 -0.936115 -0.351128
vn 0.019937 -0.936115 -0.351128
vn 0.019937 -0.936115 -0.351128
vn -0.469798 -0.352923 0.809157
vn -0.469798 -0.352923 0.809157
vn -0.469798 -0.352923 0.809157
vn -0.319193 -0.730888 0.603256
vn -0.319193 -0.730888 0.603256
vn -0.319193 -0.730888 0.603256
vn 0.705992 -0.176610 0.685845
vn 0.705992 -0.176610 0.685845
vn 0.705992 -0.176610 0.685845
vn 0.648241 -0.234642 0.724380
vn 0.648241 -0.234642 0.724380
vn 0.648241 -0.234642 0.724380
vn 0.609403 -0.416766 0.674488
vn 0.609403 -0.416766 0.674488
vn 0.609403 -0.416766 0.674488
vn -0.342711 -0.783582 0.518217
vn -0.342711 -0.783582 0.518217
vn -0.342711 -0.783582 0.518217
vn 0.007974 -0.997762 0.066391
vn 0.007974 -0.997762 0.066391
vn 0.007974 -0.997762 0.066391
vn -0.924946 0.059236 -0.375454
vn -0.924946 0.059236 -0.375454
vn -0.924946 0.059236 -0.375454
vn -0.008228 0.998540 0.053397
vn -0.008228 0.998540 0.053397
vn -0.008228 0.998540 0.053397
vn 0.713804 -0.034270 0.699506
vn 0.713804 -0.034270 0.699506
vn 0.713804 -0.034270 0.699506
vn -0.466805 0.204209 -0.860460
vn -0.466805 0.204209 -0.860460
vn -0.466805 0.204209 -0.860460
vn -0.979513 0.033308 0.198609
vn -0.979513 0.033308 0.198609
vn -0.979513 0.033308 0.198609
vn 0.921893 0.262907 -0.284592
vn 0.921893 0.262907 -0.284592
vn 0.921893 0.262907 -0.284592
vn 0.487824 -0.136586 -0.862190
vn 0.487824 -0.136586 -0.862190
vn 0.487824 -0.136586 -0.862190
vn 0.876281 0.238279 -0.418754
vn 0.876281 0.238279 -0.418754
vn 0.876281 0.238279 -0.418754
vn 0.939002 0.255182 -0.230559
vn 0.939002 0.255182 -0.230559
vn 0.939002 0.255182 -0.230559
vn -0.998713 -0.021449 0.045963
vn -0.998713 -0.021449 0.045963
vn -0.998713 -0.021449 0.045963
vn -0.609238 0.127183 -0.782722
vn -0.609238 0.127183 -0.782722
vn -0.609238 0.127183 -0.782722
vn -0.912115 -0.044190 0.407546
vn -0.912115 -0.044190 0.407546
vn -0.912115 -0.044190 0.407546
vn 0.981035 -0.134507 0.139567
vn 0.981035 -0.134507 0.139567
vn 0.981035 -0.134507 0.139567
vn 0.924861 0.375130 -0.062522
vn 0.924861 0.375130 -0.062522
vn 0.924861 0.375130 -0.062522
vn 0.015788 -0.996116 -0.086625
vn 0.015788 -0.996116 -0.086625
vn 0.015788 -0.996116 -0.086625
vn -0.676982 0.132451 -0.723984
vn -0.676982 0.132451 -0.723984
vn -0.676982 0.132451 -0.723984
vn 0.783883 -0.472500 -0.402830
vn 0.783883 -0.472500 -0.402830
vn 0.783883 -0.472500 -0.402830
vn 0.703670 0.002371 0.710523
vn 0.703670 0.002371 0.710523
vn 0.703670 0.002371 0.710523
vn 0.043183 -0.994698 -0.093331
vn 0.043183 -0.994698 -0.093331
vn 0.043183 -0.994698 -0.093331
vn -0.074004 0.994414 -0.075264
vn -0.074004 0.994414 -0.075264
vn -0.074004 0.994414 -0.075264
vn -0.543673 -0.229970 0.807176
vn -0.543673 -0.229970 0.807176
vn -0.543673 -0.229970 0.807176
vn -0.321310 -0.788862 0.523886
vn -0.321310 -0.788862 0.523886
vn -0.321310 -0.788862 0.523886
vn 0.736511 -0.367101 0.568145
vn 0.736511 -0.367101 0.568145
vn 0.736511 -0.367101 0.568145
vn 0.637521 -0.626684 0.448146
vn 0.637521 -0.626684 0.448146
vn 0.637521 -0.626684 0.448146
vn 0.683366 -0.248160 0.686606
vn 0.683366 -0.248160 0.686606
vn 0.683366 -0.248160 0.686606
vn -0.570557 -0.445482 0.689936
vn -0.570557 -0.445482 0.689936
vn -0.570557 -0.445482 0.689936
vn -0.925101 0.060080 -0.374937
vn -0.925101 0.060080 -0.374937
vn -0.925101 0.060080 -0.374937
vn -0.643931 -0.185616 0.742226
vn -0.643931 -0.185616 0.742226
vn -0.643931 -0.185616 0.742226
vn -0.111664 0.984329 -0.136485
vn -0.111664 0.984329 -0.136485
vn -0.111664 0.984329 -0.136485
vn 0.309660 0.945203 -0.103449
vn 0.309660 0.945203 -0.103449
vn 0.309660 0.945203 -0.103449
vn -0.072904 0.996083 -0.050044
vn -0.072904 0.996083 -0.050044
vn -0.072904 0.996083 -0.050044
vn -0.035106 0.999378 -0.003313
vn -0.035106 0.999378 -0.003313
vn -0.035106 0.999378 -0.003313
vn -0.117121 0.982981 -0.141530
vn -0.117121 0.982981 -0.141530
vn -0.117121 0.982981 -0.141530
vn -0.606115 0.007168 0.795345
vn -0.606115 0.007168 0.795345
vn -0.606115 0.007168 0.795345
vn -0.111718 0.982426 -0.149527
vn -0.111718 0.982426 -0.149527
vn -0.111718 0.982426 -0.149527
vn -0.059140 0.997554 0.037256
vn -0.059140 0.997554 0.037256
vn -0.059140 0.997554 0.037256
vn -0.037472 0.997992 0.051064
vn -0.037472 0.997992 0.051064
vn -0.037472 0.997992 0.051064
vn -0.913926 -0.039137 0.403991
vn -0.913926 -0.039137 0.403991
vn -0.913926 -0.039137 0.403991
vn -0.008390 0.995781 0.091377
vn -0.008390 0.995781 0.091377
vn -0.008390 0.995781 0.091377
vn -0.007318 0.996266 0.086025
vn -0.007318 0.996266 0.086025
vn -0.007318 0.996266 0.086025
vn -0.628163 0.476549 0.615071
vn -0.628163 0.476549 0.615071
vn -0.628163 0.476549 0.615071
vn -0.111829 0.982370 -0.149813
vn -0.111829 0.982370 -0.149813
vn -0.111829 0.982370 -0.149813
vn -0.611967 0.433732 0.661342
vn -0.611967 0.433732 0.661342
vn -0.611967 0.433732 0.661342
vn -0.611967 0.433732 0.661342
vn -0.678397 0.383601 0.626600
vn -0.678397 0.383601 0.626600
vn -0.678397 0.383601 0.626600
vn -0.678397 0.383601 0.626600
vn -0.964655 -0.062854 0.255911
vn -0.964655 -0.062854 0.255911
vn -0.964655 -0.062854 0.255911
vn -0.964655 -0.062854 0.255911
vn -0.572498 -0.101541 0.813595
vn -0.572498 -0.101541 0.813595
vn -0.572498 -0.101541 0.813595
vn -0.572498 -0.101541 0.813595
vn -0.745760 0.620504 0.242521
vn -0.745760 0.620504 0.242521
vn -0.745760 0.620504 0.242521
vn -0.745760 0.620504 0.242521
s off
g EM_Rock37_LOD0
usemtl lambert2SG
f 11/61/1 33/2/2 35/3/3
f 15/4/4 6/58/5 17/6/6
f 16/7/7 9/57/8 20/9/9
f 8/59/10 3/11/11 12/12/12
f 27/13/13 44/14/14 42/15/15
f 17/6/16 8/59/17 19/16/18
f 31/17/19 30/18/20 26/19/21
f 13/20/22 21/21/23 12/12/24
f 20/9/25 38/52/26 39/23/27
f 7/55/28 15/4/29 18/25/30
f 19/16/31 8/59/32 21/21/33
f 2/60/34 11/61/35 35/3/36
f 39/23/37 18/25/38 20/9/39
f 22/27/40 28/28/41 23/29/42
f 36/30/43 34/31/44 14/32/45
f 18/25/46 37/33/47 7/55/48
f 3/11/49 13/20/50 12/12/51
f 1/34/52 29/35/53 25/63/54
f 1/64/55 32/37/56 10/62/57
f 34/31/58 26/19/59 28/28/60
f 14/32/61 34/31/62 22/27/63
f 34/31/64 28/28/65 22/27/66
f 10/62/67 32/37/68 33/2/69
f 13/20/70 14/32/71 16/7/72
f 16/7/73 14/32/74 22/27/75
f 19/16/76 21/21/77 13/20/78
f 15/4/79 17/6/80 19/16/81
f 18/25/82 15/4/83 13/20/84
f 16/7/85 18/25/86 13/20/87
f 16/7/88 20/9/89 18/25/90
f 15/4/91 19/16/92 13/20/93
f 27/13/94 28/28/95 26/19/96
f 29/35/97 24/39/98 25/63/99
f 35/3/100 34/31/101 36/30/102
f 32/37/103 24/39/104 31/17/105
f 32/37/106 34/31/107 33/2/108
f 29/35/109 26/19/110 30/18/111
f 31/17/112 24/39/113 30/18/114
f 39/23/115 37/33/116 40/40/117
f 7/24/118 9/8/119 8/10/120
f 11/61/121 10/62/122 33/2/123
f 15/4/124 4/56/125 6/58/126
f 16/7/127 5/42/128 9/57/129
f 8/59/130 2/60/131 3/11/132
f 17/6/133 6/58/134 8/59/135
f 8/59/136 12/12/137 21/21/138
f 2/60/139 14/32/140 3/11/141
f 20/9/142 9/57/143 38/52/144
f 7/55/145 4/56/146 15/4/147
f 22/27/148 46/43/149 45/44/150
f 35/3/151 36/30/152 14/32/153
f 14/32/154 2/60/155 35/3/156
f 39/23/157 40/40/158 18/25/159
f 18/25/160 40/40/161 37/33/162
f 3/11/163 14/32/164 13/20/165
f 1/64/166 25/36/167 32/37/168
f 34/31/169 31/17/170 26/19/171
f 5/54/172 47/51/173 2/26/174
f 27/13/175 23/29/176 28/28/177
f 29/35/178 30/18/179 24/39/180
f 35/3/181 33/2/182 34/31/183
f 32/37/184 25/36/185 24/39/186
f 32/37/187 31/17/188 34/31/189
f 29/35/190 27/13/191 26/19/192
f 39/23/193 38/52/194 37/33/195
f 46/43/196 27/13/197 42/15/198
f 10/38/199 2/26/200 41/48/201
f 10/38/202 11/1/203 2/26/204
f 2/26/205 8/10/206 5/54/207
f 5/54/208 8/10/209 9/8/210
f 41/48/211 2/26/212 47/51/213
f 46/43/214 23/29/215 27/13/216
f 43/47/217 1/50/218 10/38/219
f 38/22/220 9/8/221 7/24/222
f 38/22/223 7/24/224 37/53/225
f 22/27/226 23/29/227 46/43/228
f 8/10/229 6/5/230 4/41/231
f 4/41/232 7/24/233 8/10/234
f 43/49/235 44/14/236 1/34/237
f 41/48/238 43/47/239 10/38/240
f 41/46/241 42/15/242 44/14/243 43/49/244
f 47/45/245 46/43/246 42/15/247 41/46/248
f 16/7/249 22/27/250 45/44/251 5/42/252
f 44/14/253 27/13/254 29/35/255 1/34/256
f 47/45/257 5/42/258 45/44/259 46/43/260
