# This file uses centimeters as units for non-parametric coordinates.

mtllib Ê¯°åÂ·1.mtl
g default
v 59.843239 25.622444 -18.469624
v 60.171040 37.776287 -22.475948
v 11.779742 36.956959 -63.467506
v 37.062366 39.914330 -52.760578
v -60.179390 25.703997 14.529284
v -53.039879 30.253965 33.439846
v -52.727348 35.380562 -39.817593
v 58.503426 45.097786 30.267319
v 57.551121 50.175053 30.015476
v 30.325302 53.664787 56.695183
v 48.343910 17.273384 33.026714
v 7.752375 17.962891 58.622231
v 50.161118 48.254879 42.222202
v 48.030376 16.097921 -31.373528
v -36.174438 1.323491 26.562201
v 47.788704 5.058247 -4.915984
v -10.961215 23.565025 -59.280876
v -24.342043 17.336922 -51.326927
v -63.300312 36.585930 -16.208815
v -63.894505 38.823608 -6.242145
v -60.798805 34.603863 -25.524837
v -58.557278 38.074833 -30.042606
v 63.894569 43.551044 -5.325466
v -0.542127 44.309624 -64.335785
v -13.152038 44.490250 -63.077999
v -35.589851 40.197117 -54.787689
v -35.132519 42.699318 -54.736797
v -21.191042 40.601139 -61.637379
v 61.885242 30.395918 19.695456
v 63.757420 36.451298 15.336884
v 34.965389 25.024813 52.332394
v -32.628727 41.123684 54.311680
v -17.775789 49.720173 60.261753
v -45.595478 41.405754 43.389858
v -36.156628 32.971603 51.362171
v 44.306740 59.459595 39.901569
v 23.615997 64.647842 47.180027
v 54.537552 55.901917 22.647963
v 32.406898 44.958405 -54.580196
v -52.940983 52.983456 20.511570
v 40.125713 51.804214 -41.680370
v 12.561746 61.029156 59.089470
v 38.398258 21.785980 -46.709946
v 52.840084 55.480343 33.869759
v -51.568596 45.963840 33.214733
v -55.390388 18.425232 18.115940
v -54.450302 29.608946 -34.411831
v 57.019970 46.431931 -25.226471
v 13.476274 30.012852 -61.870838
v -6.910594 22.001152 60.441372
v 58.696056 23.815258 21.387068
v 10.013066 42.841728 -63.529289
v -18.293922 54.237274 58.535732
v 0.548112 54.906517 62.394592
v 7.548860 44.506939 64.335846
v 15.095064 41.108925 63.437595
v 61.031490 49.887188 15.131144
v -50.880714 41.303783 -39.933788
v 41.924061 56.612759 47.166096
v -34.353039 18.051105 47.198711
v 20.698385 26.930195 59.824219
vt 0.061442 0.442852
vt 0.226426 0.375031
vt 0.132582 0.420421
vt 0.075362 0.448845
vt 0.712710 0.060222
vt 0.338432 0.304011
vt 0.017490 0.808467
vt 0.020873 0.845829
vt 0.251449 0.323929
vt 0.237242 0.315379
vt 0.260855 0.286009
vt 0.286830 0.269843
vt 0.255849 0.791965
vt 0.613444 0.091600
vt 0.612626 0.073119
vt 0.648793 0.044332
vt 0.679435 0.030453
vt 0.370509 0.291731
vt 0.405099 0.305478
vt 0.256068 0.575449
vt 0.303741 0.582665
vt 0.360570 0.223722
vt 0.331798 0.244397
vt 0.300825 0.246363
vt 0.266135 0.258303
vt 0.088226 0.840713
vt 0.125564 0.883617
vt 0.436216 0.281920
vt 0.501738 0.238255
vt 0.571569 0.237100
vt 0.593743 0.086062
vt 0.591385 0.098086
vt 0.576199 0.108715
vt 0.164559 0.350717
vt 0.199262 0.444545
vt 0.189201 0.487852
vt 0.455888 0.521732
vt 0.418573 0.212411
vt 0.372768 0.262570
vt 0.184337 0.366632
vt 0.545821 0.162124
vt 0.561112 0.118641
vt 0.551426 0.180159
vt 0.422564 0.220733
vt 0.456686 0.211009
vt 0.475178 0.216210
vt 0.384840 0.252450
vt 0.387173 0.228162
vt 0.646815 0.039477
vt 0.330800 0.337753
vt 0.477463 0.182527
vt 0.510269 0.181888
vt 0.242490 0.377107
vt 0.282743 0.346515
vt 0.034065 0.455892
vt 0.231903 0.409509
vt 0.227190 0.543257
vt 0.226628 0.288287
vt 0.257619 0.275106
vt 0.418482 0.367304
vt 0.448438 0.492290
vt 0.483314 0.153425
vt 0.472990 0.510201
vt 0.690731 0.015506
vt 0.304545 0.340464
vt 0.190602 0.320020
vt 0.207049 0.529769
vt 0.604242 0.059041
vt 0.379438 0.344630
vt 0.217102 0.560743
vt 0.272816 0.338023
vt 0.049247 0.438943
vt 0.233832 0.565949
vt 0.098839 0.397157
vt 0.146526 0.341054
vt 0.328173 0.205917
vt 0.285019 0.241111
vt 0.689496 0.087681
vt 0.133573 0.664772
vt 0.170256 0.406664
vt 0.164144 0.890506
vt 0.017039 0.706493
vt 0.027063 0.675609
vt 0.082504 0.639342
vt 0.262466 0.336296
vt 0.299453 0.340559
vt 0.252118 0.827790
vt 0.019266 0.478573
vt 0.017039 0.497611
vt 0.059675 0.500122
vn 0.429277 -0.215592 -0.877064
vn 0.429277 -0.215592 -0.877064
vn 0.429277 -0.215592 -0.877064
vn 0.429277 -0.215592 -0.877064
vn 0.133901 -0.761990 -0.633594
vn 0.133901 -0.761990 -0.633594
vn 0.133901 -0.761990 -0.633594
vn 0.785846 -0.213422 0.580429
vn 0.785846 -0.213422 0.580429
vn 0.785846 -0.213422 0.580429
vn 0.785846 -0.213422 0.580429
vn 0.785846 -0.213422 0.580429
vn 0.785846 -0.213422 0.580429
vn 0.785846 -0.213422 0.580429
vn -0.479331 -0.376359 -0.792840
vn -0.479331 -0.376359 -0.792840
vn -0.479331 -0.376359 -0.792840
vn -0.479331 -0.376359 -0.792840
vn -0.479331 -0.376359 -0.792840
vn -0.479331 -0.376359 -0.792840
vn 0.328046 -0.728781 0.601053
vn 0.328046 -0.728781 0.601053
vn 0.328046 -0.728781 0.601053
vn 0.328046 -0.728781 0.601053
vn 0.382258 0.743901 0.548170
vn 0.382258 0.743901 0.548170
vn 0.382258 0.743901 0.548170
vn 0.382258 0.743901 0.548170
vn 0.382258 0.743901 0.548170
vn 0.382258 0.743901 0.548170
vn 0.927567 -0.347776 -0.136640
vn 0.927567 -0.347776 -0.136640
vn 0.927567 -0.347776 -0.136640
vn -0.168608 -0.769874 0.615520
vn -0.168608 -0.769874 0.615520
vn -0.168608 -0.769874 0.615520
vn -0.168608 -0.769874 0.615520
vn -0.930528 0.215917 -0.295801
vn -0.930528 0.215917 -0.295801
vn -0.930528 0.215917 -0.295801
vn 0.926401 0.246921 -0.284272
vn 0.926401 0.246921 -0.284272
vn 0.926401 0.246921 -0.284272
vn -0.236070 0.971542 0.019428
vn -0.236070 0.971542 0.019428
vn -0.236070 0.971542 0.019428
vn -0.236070 0.971542 0.019428
vn 0.524544 -0.027079 0.850953
vn 0.524544 -0.027079 0.850953
vn 0.524544 -0.027079 0.850953
vn 0.524544 -0.027079 0.850953
vn 0.524544 -0.027079 0.850953
vn 0.524544 -0.027079 0.850953
vn 0.793545 -0.127130 -0.595083
vn 0.793545 -0.127130 -0.595083
vn 0.793545 -0.127130 -0.595083
vn 0.793545 -0.127130 -0.595083
vn 0.793545 -0.127130 -0.595083
vn 0.793545 -0.127130 -0.595083
vn -0.814932 -0.568251 -0.113918
vn -0.814932 -0.568251 -0.113918
vn -0.814932 -0.568251 -0.113918
vn -0.814932 -0.568251 -0.113918
vn -0.814932 -0.568251 -0.113918
vn -0.814932 -0.568251 -0.113918
vn -0.275307 -0.125833 0.953086
vn -0.275307 -0.125833 0.953086
vn -0.275307 -0.125833 0.953086
vn -0.275307 -0.125833 0.953086
vn -0.275307 -0.125833 0.953086
vn -0.275307 -0.125833 0.953086
vn -0.275307 -0.125833 0.953086
vn 0.053417 -0.213487 0.975484
vn 0.053417 -0.213487 0.975484
vn 0.053417 -0.213487 0.975484
vn 0.053417 -0.213487 0.975484
vn 0.053417 -0.213487 0.975484
vn -0.381555 0.318542 -0.867725
vn -0.381555 0.318542 -0.867725
vn -0.381555 0.318542 -0.867725
vn -0.381555 0.318542 -0.867725
vn -0.577919 0.466963 0.669294
vn -0.577919 0.466963 0.669294
vn -0.577919 0.466963 0.669294
vn -0.577919 0.466963 0.669294
vn -0.577919 0.466963 0.669294
vn -0.688278 -0.089821 0.719865
vn -0.688278 -0.089821 0.719865
vn -0.688278 -0.089821 0.719865
vn -0.688278 -0.089821 0.719865
vn -0.935614 0.129302 0.328491
vn -0.935614 0.129302 0.328491
vn -0.935614 0.129302 0.328491
vn -0.935614 0.129302 0.328491
vn -0.935614 0.129302 0.328491
vn 0.155554 0.800628 -0.578617
vn 0.155554 0.800628 -0.578617
vn 0.155554 0.800628 -0.578617
vn 0.156000 -0.944206 0.290066
vn 0.156000 -0.944206 0.290066
vn 0.156000 -0.944206 0.290066
vn 0.156000 -0.944206 0.290066
vn 0.978383 -0.192529 -0.075497
vn 0.978383 -0.192529 -0.075497
vn 0.978383 -0.192529 -0.075497
vn 0.978383 -0.192529 -0.075497
vn 0.978383 -0.192529 -0.075497
vn 0.198636 0.242791 0.949524
vn 0.198636 0.242791 0.949524
vn 0.198636 0.242791 0.949524
vn 0.198636 0.242791 0.949524
vn 0.198636 0.242791 0.949524
vn 0.735008 -0.677990 -0.009586
vn 0.735008 -0.677990 -0.009586
vn 0.735008 -0.677990 -0.009586
vn 0.735008 -0.677990 -0.009586
vn 0.698089 0.383572 -0.604602
vn 0.698089 0.383572 -0.604602
vn 0.698089 0.383572 -0.604602
vn 0.698089 0.383572 -0.604602
vn -0.526759 -0.820334 -0.222661
vn -0.526759 -0.820334 -0.222661
vn -0.526759 -0.820334 -0.222661
vn -0.526759 -0.820334 -0.222661
vn 0.477731 0.866193 -0.146569
vn 0.477731 0.866193 -0.146569
vn 0.477731 0.866193 -0.146569
vn 0.477731 0.866193 -0.146569
vn 0.773745 0.317228 0.548348
vn 0.773745 0.317228 0.548348
vn 0.773745 0.317228 0.548348
vn 0.773745 0.317228 0.548348
vn 0.773745 0.317228 0.548348
vn 0.374886 0.061045 -0.925059
vn 0.374886 0.061045 -0.925059
vn 0.374886 0.061045 -0.925059
vn 0.374886 0.061045 -0.925059
vn -0.855586 -0.161179 -0.491928
vn -0.855586 -0.161179 -0.491928
vn -0.855586 -0.161179 -0.491928
vn -0.855586 -0.161179 -0.491928
vn 0.688193 0.711479 0.142084
vn 0.688193 0.711479 0.142084
vn 0.688193 0.711479 0.142084
vn 0.688193 0.711479 0.142084
vn 0.688193 0.711479 0.142084
vn 0.013327 -0.958813 -0.283725
vn 0.013327 -0.958813 -0.283725
vn 0.013327 -0.958813 -0.283725
vn 0.013327 -0.958813 -0.283725
vn 0.013327 -0.958813 -0.283725
vn 0.013327 -0.958813 -0.283725
vn 0.682812 -0.698299 0.214817
vn 0.682812 -0.698299 0.214817
vn 0.682812 -0.698299 0.214817
vn -0.369759 0.926124 -0.074649
vn -0.369759 0.926124 -0.074649
vn -0.369759 0.926124 -0.074649
vn -0.369759 0.926124 -0.074649
vn -0.747383 0.637343 -0.187650
vn -0.747383 0.637343 -0.187650
vn -0.747383 0.637343 -0.187650
vn -0.717224 0.197836 -0.668170
vn -0.717224 0.197836 -0.668170
vn -0.717224 0.197836 -0.668170
vn -0.717224 0.197836 -0.668170
vn -0.717224 0.197836 -0.668170
vn 0.968740 0.197851 0.149660
vn 0.968740 0.197851 0.149660
vn 0.968740 0.197851 0.149660
vn 0.968740 0.197851 0.149660
vn 0.968740 0.197851 0.149660
vn 0.677746 0.723831 -0.129339
vn 0.677746 0.723831 -0.129339
vn 0.677746 0.723831 -0.129339
vn -0.062459 -0.191801 -0.979444
vn -0.062459 -0.191801 -0.979444
vn -0.062459 -0.191801 -0.979444
vn -0.062459 -0.191801 -0.979444
vn -0.062459 -0.191801 -0.979444
vn -0.062459 -0.191801 -0.979444
vn -0.062459 -0.191801 -0.979444
vn -0.713704 -0.456877 0.530934
vn -0.713704 -0.456877 0.530934
vn -0.713704 -0.456877 0.530934
vn -0.713704 -0.456877 0.530934
vn -0.713704 -0.456877 0.530934
vn -0.713704 -0.456877 0.530934
vn -0.200650 0.329515 0.922583
vn -0.200650 0.329515 0.922583
vn -0.200650 0.329515 0.922583
vn -0.294749 0.822538 0.486368
vn -0.294749 0.822538 0.486368
vn -0.294749 0.822538 0.486368
vn -0.055120 0.985653 -0.159534
vn -0.055120 0.985653 -0.159534
vn -0.055120 0.985653 -0.159534
vn -0.055120 0.985653 -0.159534
vn -0.055120 0.985653 -0.159534
vn -0.055120 0.985653 -0.159534
vn -0.055120 0.985653 -0.159534
vn -0.055120 0.985653 -0.159534
vn -0.055120 0.985653 -0.159534
vn -0.055120 0.985653 -0.159534
vn -0.982320 -0.187188 0.002688
vn -0.982320 -0.187188 0.002688
vn -0.982320 -0.187188 0.002688
vn -0.166830 0.701419 0.692950
vn -0.166830 0.701419 0.692950
vn -0.166830 0.701419 0.692950
s off
g EM_Rock01a_LOD0
usemtl lambert3SG
f 3/1/1 4/74/2 43/3/3 49/4/4
f 43/3/5 17/90/6 49/4/7
f 31/6/8 11/86/9 51/85/10 29/9/11 30/10/12 8/11/13 13/12/14
f 17/5/15 18/78/16 47/14/17 7/15/18 26/16/19 28/17/20
f 31/6/21 61/18/22 12/19/23 11/86/24
f 36/77/25 37/76/26 42/22/27 10/23/28 59/24/29 44/25/30
f 51/8/31 16/26/32 14/27/33
f 50/83/34 60/84/35 15/79/36 12/82/37
f 22/31/38 21/32/39 19/33/40
f 2/34/41 48/75/42 23/66/43
f 45/62/44 53/38/45 42/22/46 37/76/47
f 10/23/48 56/39/49 61/18/50 31/6/51 13/12/52 59/24/53
f 2/34/54 1/40/55 14/80/56 43/3/57 4/74/58 48/75/59
f 5/41/60 20/42/61 19/33/62 21/32/63 47/14/64 46/43/65
f 33/44/66 32/45/67 35/46/68 60/29/69 50/28/70 55/47/71 54/48/72
f 55/47/73 50/28/74 12/19/75 61/18/76 56/39/77
f 27/49/78 25/64/79 28/17/80 26/16/81
f 32/45/82 33/44/83 53/38/84 45/62/85 34/51/86
f 6/52/87 35/46/88 32/45/89 34/51/90
f 45/62/91 20/42/92 5/41/93 6/52/94 34/51/95
f 39/53/96 52/54/97 24/65/98
f 16/26/99 11/7/100 12/82/101 15/79/102
f 30/10/103 29/9/104 1/40/105 2/34/106 23/66/107
f 54/48/108 55/47/109 56/39/110 10/23/111 42/22/112
f 1/40/113 29/9/114 51/85/115 14/80/116
f 41/56/117 48/35/118 4/2/119 39/53/120
f 46/43/121 47/14/122 18/78/123 15/30/124
f 48/35/125 41/56/126 38/57/127 57/67/128
f 9/59/129 44/25/130 59/24/131 13/12/132 8/11/133
f 39/53/134 4/2/135 3/71/136 52/54/137
f 7/15/138 47/14/139 21/32/140 22/31/141
f 38/57/142 36/20/143 44/73/144 9/70/145 57/67/146
f 14/27/147 16/26/148 15/79/149 18/13/150 17/87/151 43/81/152
f 16/26/153 51/8/154 11/7/155
f 58/68/156 22/31/157 20/42/158 45/62/159
f 19/33/160 20/42/161 22/31/162
f 26/16/163 7/15/164 22/31/165 58/68/166 27/49/167
f 9/59/168 8/11/169 30/10/170 23/66/171 57/58/172
f 57/67/173 23/36/174 48/35/175
f 3/1/176 49/4/177 17/90/178 28/89/179 25/88/180 24/55/181 52/72/182
f 6/52/183 5/41/184 46/43/185 15/30/186 60/29/187 35/46/188
f 33/44/189 54/48/190 53/38/191
f 40/61/192 45/37/193 37/21/194
f 41/56/195 39/53/196 24/65/197 25/50/198 27/69/199 58/60/200 40/61/201 37/21/202 36/20/203 38/57/204
f 40/61/205 58/60/206 45/63/207
f 42/22/208 53/38/209 54/48/210
