# This file uses centimeters as units for non-parametric coordinates.

mtllib Ê¯°åÂ·2.mtl
g default
v 34.096233 -17.458004 -323.814240
v 127.662041 -17.900459 283.985443
v -163.765289 -17.900700 -255.125977
v 136.704865 32.071396 -117.480370
v -199.904419 -17.900578 136.569351
v 130.898560 -21.028751 -113.346313
v -125.480598 -17.900509 219.750046
v -195.193451 -17.900623 -54.613209
v -224.329468 -17.457832 -110.032486
v 153.943420 -17.900578 54.740376
v 139.110626 64.009903 56.852890
v 163.925446 48.894531 60.939812
v 79.256622 50.917049 323.814453
v 62.660793 68.362389 299.179962
v 13.350540 110.497513 -290.367432
v 24.507805 50.364799 -314.989960
v 135.213196 46.925571 279.663208
v 119.680588 67.272247 264.733643
v 114.438477 85.856522 -195.019485
v -147.836914 64.843033 -88.820389
v -99.873062 65.486526 224.563217
v -169.122986 47.277512 -261.841217
v -151.634644 66.600586 -247.731812
v -175.739532 66.847519 -119.418358
v -200.787994 51.314423 -110.621384
v -162.708740 66.014725 127.866982
v 74.144768 118.905243 -253.557877
v 79.256622 -17.457642 323.814484
v -174.234528 42.618313 -75.400986
v -164.663086 54.573318 -80.889427
v -122.908287 52.166626 232.361130
v -130.660583 38.917511 234.570023
v -195.061249 54.464092 136.363068
v -202.326813 43.321533 138.376190
vt 0.089891 0.364869
vt 0.151584 0.475535
vt 0.061153 0.383080
vt 0.050360 0.127288
vt 0.074189 0.081769
vt 0.070139 0.221240
vt 0.169600 0.449805
vt 0.423176 0.530975
vt 0.536679 0.543815
vt 0.424384 0.564237
vt 0.206620 0.510253
vt 0.347665 0.517544
vt 0.336991 0.554864
vt 0.523235 0.508635
vt 0.229524 0.457970
vt 0.172702 0.442169
vt 0.174610 0.427883
vt 0.022336 0.131713
vt 0.008948 0.009492
vt 0.045332 0.005333
vt 0.306881 0.537069
vt 0.219429 0.480793
vt 0.328081 0.506693
vt 0.079418 0.334863
vt 0.106956 0.363105
vt 0.112555 0.328233
vt 0.202685 0.263702
vt 0.210873 0.276904
vt 0.423803 0.516207
vt 0.222233 0.474434
vt 0.507197 0.477273
vt 0.033673 0.221364
vt 0.339775 0.236029
vt 0.379562 0.247879
vt 0.086784 0.042164
vt 0.080287 0.004775
vt 0.046728 0.346119
vt 0.355936 0.504384
vt 0.333248 0.499429
vt 0.340087 0.490633
vt 0.093229 0.329422
vt 0.338031 0.390979
vt 0.234380 0.439957
vt 0.408985 0.271850
vt 0.418377 0.364563
vt 0.358474 0.399045
vn -0.453111 0.000000 0.891454
vn -0.453111 0.000000 0.891454
vn -0.453111 0.000000 0.891454
vn 0.859634 0.479506 -0.176362
vn 0.859634 0.479506 -0.176362
vn 0.859634 0.479506 -0.176362
vn -0.364237 -0.266002 0.892510
vn -0.364237 -0.266002 0.892510
vn -0.364237 -0.266002 0.892510
vn -0.325204 -0.123330 -0.937567
vn -0.325204 -0.123330 -0.937567
vn -0.325204 -0.123330 -0.937567
vn -0.724360 -0.235085 0.648103
vn -0.724360 -0.235085 0.648103
vn -0.724360 -0.235085 0.648103
vn -0.927025 0.315597 -0.202541
vn -0.927025 0.315597 -0.202541
vn -0.927025 0.315597 -0.202541
vn -0.264977 0.087479 -0.960278
vn -0.264977 0.087479 -0.960278
vn -0.264977 0.087479 -0.960278
vn -0.411089 0.870105 0.271889
vn -0.411089 0.870105 0.271889
vn -0.411089 0.870105 0.271889
vn -0.916859 -0.114761 -0.382360
vn -0.916859 -0.114761 -0.382360
vn -0.916859 -0.114761 -0.382360
vn 0.867564 -0.290102 -0.403948
vn 0.867564 -0.290102 -0.403948
vn 0.867564 -0.290102 -0.403948
vn 0.791090 0.187592 -0.582225
vn 0.791090 0.187592 -0.582225
vn 0.791090 0.187592 -0.582225
vn -0.949999 0.285800 -0.125778
vn -0.949999 0.285800 -0.125778
vn -0.949999 0.285800 -0.125778
vn 0.948370 -0.126349 -0.290913
vn 0.948370 -0.126349 -0.290913
vn 0.948370 -0.126349 -0.290913
vn -0.802018 -0.049302 0.595261
vn -0.802018 -0.049302 0.595261
vn -0.802018 -0.049302 0.595261
vn 0.353427 0.859066 0.370264
vn 0.353427 0.859066 0.370264
vn 0.353427 0.859066 0.370264
vn -0.845270 0.293171 0.446733
vn -0.845270 0.293171 0.446733
vn -0.845270 0.293171 0.446733
vn 0.515719 0.856052 0.034768
vn 0.515719 0.856052 0.034768
vn 0.515719 0.856052 0.034768
vn -0.671014 0.724011 -0.159837
vn -0.671014 0.724011 -0.159837
vn -0.671014 0.724011 -0.159837
vn -0.680115 0.509915 0.526717
vn -0.680115 0.509915 0.526717
vn -0.680115 0.509915 0.526717
vn -0.680115 0.509915 0.526717
vn -0.268241 0.788176 0.553919
vn -0.268241 0.788176 0.553919
vn -0.268241 0.788176 0.553919
vn -0.186441 0.724814 -0.663238
vn -0.186441 0.724814 -0.663238
vn -0.186441 0.724814 -0.663238
vn -0.186441 0.724814 -0.663238
vn 0.982633 -0.127068 -0.135228
vn 0.982633 -0.127068 -0.135228
vn 0.982633 -0.127068 -0.135228
vn 0.982633 -0.127068 -0.135228
vn -0.273701 0.934381 0.228078
vn -0.273701 0.934381 0.228078
vn -0.273701 0.934381 0.228078
vn 0.566133 0.815246 -0.121936
vn 0.566133 0.815246 -0.121936
vn 0.566133 0.815246 -0.121936
vn 0.566133 0.815246 -0.121936
vn 0.537166 0.755958 -0.374140
vn 0.537166 0.755958 -0.374140
vn 0.537166 0.755958 -0.374140
vn 0.537166 0.755958 -0.374140
vn 0.626629 -0.010238 0.779250
vn 0.626629 -0.010238 0.779250
vn 0.626629 -0.010238 0.779250
vn 0.626629 -0.010238 0.779250
vn -0.371978 0.848173 0.377141
vn -0.371978 0.848173 0.377141
vn -0.371978 0.848173 0.377141
vn -0.371978 0.848173 0.377141
vn -0.511335 0.661334 0.548793
vn -0.511335 0.661334 0.548793
vn -0.511335 0.661334 0.548793
vn -0.381851 0.364991 0.849100
vn -0.381851 0.364991 0.849100
vn -0.381851 0.364991 0.849100
vn -0.534626 0.844081 -0.041257
vn -0.534626 0.844081 -0.041257
vn -0.534626 0.844081 -0.041257
vn 0.983832 -0.132770 0.120194
vn 0.983832 -0.132770 0.120194
vn 0.983832 -0.132770 0.120194
vn 0.983832 -0.132770 0.120194
vn -0.998944 -0.038799 -0.024615
vn -0.998944 -0.038799 -0.024615
vn -0.998944 -0.038799 -0.024615
vn 0.370670 0.716547 0.590901
vn 0.370670 0.716547 0.590901
vn 0.370670 0.716547 0.590901
vn -0.662454 0.438132 0.607615
vn -0.662454 0.438132 0.607615
vn -0.662454 0.438132 0.607615
vn 0.752003 0.650811 0.104576
vn 0.752003 0.650811 0.104576
vn 0.752003 0.650811 0.104576
vn -0.550476 0.828221 -0.105006
vn -0.550476 0.828221 -0.105006
vn -0.550476 0.828221 -0.105006
vn -0.302636 0.669718 0.678151
vn -0.302636 0.669718 0.678151
vn -0.302636 0.669718 0.678151
vn -0.347024 0.936623 -0.048085
vn -0.347024 0.936623 -0.048085
vn -0.347024 0.936623 -0.048085
vn 0.004335 0.999990 -0.000740
vn 0.004335 0.999990 -0.000740
vn 0.004335 0.999990 -0.000740
vn 0.004335 0.999990 -0.000740
vn 0.004335 0.999990 -0.000740
vn 0.004335 0.999990 -0.000740
vn 0.004335 0.999990 -0.000740
vn 0.004335 0.999990 -0.000740
vn 0.004335 0.999990 -0.000740
vn 0.004335 0.999990 -0.000740
vn -0.819972 0.561331 -0.112043
vn -0.819972 0.561331 -0.112043
vn -0.819972 0.561331 -0.112043
vn -0.819972 0.561331 -0.112043
s off
g polySurface1 transform1
usemtl set1
f 13/1/1 7/2/2 28/3/3
f 4/4/4 19/5/5 12/6/6
f 7/2/7 13/1/8 32/7/9
f 22/8/10 1/9/11 3/10/12
f 5/11/13 7/2/14 32/7/15
f 25/12/16 22/8/17 9/13/18
f 22/8/19 16/14/20 1/9/21
f 26/15/22 31/16/23 21/17/24
f 3/10/25 9/13/26 22/8/27
f 19/5/28 6/18/29 1/19/30
f 16/20/31 19/5/32 1/19/33
f 8/21/34 34/22/35 29/23/36
f 6/18/37 19/5/38 4/4/39
f 5/11/40 32/7/41 34/22/42
f 17/24/43 14/25/44 13/1/45
f 8/21/46 25/12/47 9/13/48
f 18/26/49 12/27/50 11/28/51
f 25/12/52 23/29/53 22/8/54
f 32/7/55 31/16/56 33/30/57 34/22/58
f 31/16/59 14/25/60 21/17/61
f 16/14/62 22/8/63 23/29/64 15/31/65
f 10/32/66 6/18/67 4/4/68 12/6/69
f 26/15/70 33/30/71 31/16/72
f 19/33/73 27/34/74 11/28/75 12/27/76
f 27/35/77 19/5/78 16/20/79 15/36/80
f 13/1/81 28/3/82 2/37/83 17/24/84
f 24/38/85 25/12/86 30/39/87 20/40/88
f 29/23/89 30/39/90 25/12/91
f 31/16/92 32/7/93 13/1/94
f 30/39/95 26/15/96 20/40/97
f 12/6/98 17/24/99 2/37/100 10/32/101
f 8/21/102 5/11/103 34/22/104
f 17/24/105 18/41/106 14/25/107
f 8/21/108 29/23/109 25/12/110
f 18/41/111 17/24/112 12/6/113
f 25/12/114 24/38/115 23/29/116
f 31/16/117 13/1/118 14/25/119
f 30/39/120 33/30/121 26/15/122
f 20/42/123 26/43/124 21/17/125 14/25/126 18/26/127 11/28/128 27/34/129 15/44/130 23/45/131 24/46/132
f 29/23/133 34/22/134 33/30/135 30/39/136
