# This file uses centimeters as units for non-parametric coordinates.

mtllib Ê¯°åÂ·4.mtl
g default
v 58.067669 60.016998 -324.786102
v 138.886993 54.419746 267.385468
v -141.197433 61.181152 -257.895081
v -150.361710 50.492798 125.746613
v 135.584671 54.573479 -134.212616
v -59.555859 51.970993 220.688904
v -167.068817 59.397350 -60.981911
v -198.217178 63.370026 -122.113823
v 149.877823 47.512947 67.810219
v 181.429230 144.539536 45.716122
v 75.341759 150.858826 310.761627
v 62.883400 173.007614 263.573517
v 54.306675 165.348434 -283.770142
v 51.298107 146.220947 -319.186768
v 156.876770 150.701843 256.589233
v 125.530243 158.394089 206.033295
v 131.417374 145.085510 -196.248672
v -99.795326 166.101776 -80.198692
v -56.565910 168.296799 204.619064
v -105.696350 172.137253 -226.756973
v -136.301773 166.480637 -115.708115
v -106.056732 171.326294 122.647743
v 85.703506 60.849129 297.111053
v -147.602844 139.102829 -73.849152
v -128.952209 149.569016 -63.935207
v -93.588326 153.385437 216.602951
v -103.206390 134.195312 238.247604
v -166.728027 153.459442 120.179420
v -119.029434 161.349945 -245.944443
v -151.996689 157.117538 -125.072411
v -106.326729 146.424805 -273.008881
v -151.728363 144.204514 -230.944336
v -178.753479 139.319397 -117.096161
v 70.840042 159.687698 272.688416
v -168.353790 150.474442 -119.735931
v -62.218548 161.991867 213.353836
v -178.870499 112.190659 66.350540
v -180.568268 115.762321 124.868156
v -172.802414 137.084854 140.558746
v -173.464340 128.315048 106.232712
v -151.928604 115.644203 -244.754196
v -149.544693 96.220200 -250.567535
v -143.748337 107.018318 -243.744339
v -123.353790 102.141937 -273.952881
v -111.533401 127.658493 -276.716614
v -107.974068 114.789047 -271.774658
v -166.729553 94.236557 -61.516655
v -157.603851 114.846741 -62.879475
v -155.971786 104.730591 -56.637878
v 35.332481 93.641792 -330.005463
v 33.594215 121.973068 -326.787262
v 47.472485 108.993088 -325.874359
v -193.938629 96.084915 -119.473862
v -188.483215 114.393509 -117.419197
v -184.957733 106.307159 -113.605736
v 92.714157 97.493973 -278.330170
v -167.599030 119.111435 162.726852
v 86.671806 103.299843 309.202393
v 155.446716 105.959686 264.853546
v 176.117508 96.225151 63.771255
v -164.174118 92.107330 152.405121
v -86.671486 93.631683 234.844788
v 115.769638 104.501282 297.734711
v 190.256409 98.814713 81.840622
v 198.217148 132.231323 78.239944
v 89.273163 134.746490 330.005646
v 174.923233 134.736862 270.053772
v -110.204819 122.989784 254.661209
v -178.247910 114.145935 179.452301
v 168.971588 107.186356 277.088379
v -177.431076 94.906364 166.766968
v 123.603905 172.467026 202.830582
v 118.845779 108.807983 313.862213
v 91.504288 104.516922 319.726501
v 92.835251 107.728569 324.042236
v -94.956863 96.841324 246.199646
v -98.059982 100.177704 249.143539
v -73.704781 72.273666 229.892944
v -9.740257 128.893127 292.333435
vt 0.328756 0.131347
vt 0.613546 0.742017
vt 0.359049 0.120555
vt 0.362171 0.135133
vt 0.333705 0.151976
vt 0.331457 0.140321
vt 0.473170 0.093105
vt 0.472467 0.105621
vt 0.466066 0.088103
vt 0.180810 0.496266
vt 0.520209 0.125225
vt 0.232014 0.485738
vt 0.274477 0.162614
vt 0.616512 0.079527
vt 0.614587 0.092247
vt 0.570744 0.090751
vt 0.651688 0.051612
vt 0.650065 0.059137
vt 0.626320 0.057383
vt 0.522121 0.086346
vt 0.613670 0.063107
vt 0.614824 0.065455
vt 0.743491 0.055878
vt 0.654863 0.073183
vt 0.259132 0.136322
vt 0.323421 0.119256
vt 0.656736 0.086513
vt 0.763439 0.079899
vt 0.673968 0.106554
vt 0.332722 0.136210
vt 0.050019 0.700158
vt 0.124061 0.693822
vt 0.938473 0.041779
vt 0.973140 0.044475
vt 0.164033 0.178505
vt 0.065692 0.686432
vt 0.617233 0.109869
vt 0.284078 0.566207
vt 0.158195 0.163057
vt 0.250267 0.117221
vt 0.243801 0.142803
vt 0.242107 0.159779
vt 0.243695 0.170350
vt 0.359762 0.151708
vt 0.071169 0.558546
vt 0.331763 0.167731
vt 0.446253 0.115045
vt 0.363943 0.128308
vt 0.262251 0.143240
vt 0.265298 0.148743
vt 0.520809 0.075920
vt 0.333296 0.159032
vt 0.022769 0.609257
vt 0.726183 0.607347
vt 0.754290 0.049360
vt 0.858410 0.025505
vt 0.521747 0.110991
vt 0.425047 0.110394
vt 0.707476 0.763058
vt 0.453643 0.105220
vt 0.272049 0.190041
vt 0.239665 0.152468
vt 0.625975 0.065472
vt 0.768070 0.733583
vt 0.521909 0.062522
vt 0.606476 0.037261
vt 0.610399 0.059545
vt 0.367409 0.161965
vt 0.097767 0.561045
vt 0.290679 0.522702
vt 0.457091 0.126431
vt 0.745495 0.070927
vt 0.519963 0.590753
vt 0.478925 0.100350
vt 0.521744 0.100067
vt 0.521930 0.083483
vt 0.821985 0.643993
vt 0.463579 0.114924
vt 0.229942 0.491654
vt 0.035994 0.607100
vt 0.337800 0.176137
vt 0.893692 0.071289
vt 0.238051 0.640772
vt 0.675501 0.114026
vt 0.615501 0.118611
vt 0.262224 0.177548
vt 0.014609 0.624486
vt 0.160616 0.194365
vt 0.472913 0.155196
vt 0.094303 0.542107
vt 0.535737 0.136075
vt 0.828443 0.674743
vt 0.522894 0.048859
vt 0.642487 0.025873
vt 0.353610 0.099754
vt 0.450829 0.065994
vt 0.751328 0.019855
vt 0.966229 0.018450
vt 0.521426 0.698546
vt 0.625209 0.582724
vt 0.979414 0.035923
vt 0.155584 0.173207
vt 0.143164 0.147831
vt 0.980530 0.051310
vt 0.970938 0.064689
vn -0.904914 0.015340 0.425318
vn -0.904914 0.015340 0.425318
vn -0.904914 0.015340 0.425318
vn -0.826561 0.316614 0.465352
vn -0.826561 0.316614 0.465352
vn -0.826561 0.316614 0.465352
vn -0.706788 0.172586 -0.686050
vn -0.706788 0.172586 -0.686050
vn -0.706788 0.172586 -0.686050
vn -0.237997 0.947723 0.212552
vn -0.237997 0.947723 0.212552
vn -0.237997 0.947723 0.212552
vn -0.911644 0.358462 -0.201024
vn -0.911644 0.358462 -0.201024
vn -0.911644 0.358462 -0.201024
vn -0.314497 0.603353 0.732841
vn -0.314497 0.603353 0.732841
vn -0.314497 0.603353 0.732841
vn 0.062393 -0.997569 0.031041
vn 0.062393 -0.997569 0.031041
vn 0.062393 -0.997569 0.031041
vn -0.215491 -0.750396 0.624875
vn -0.215491 -0.750396 0.624875
vn -0.215491 -0.750396 0.624875
vn 0.976672 -0.181810 0.114267
vn 0.976672 -0.181810 0.114267
vn 0.976672 -0.181810 0.114267
vn -0.936765 0.148100 -0.317076
vn -0.936765 0.148100 -0.317076
vn -0.936765 0.148100 -0.317076
vn 0.239134 0.970986 -0.000532
vn 0.239134 0.970986 -0.000532
vn 0.239134 0.970986 -0.000532
vn -0.337854 -0.301761 0.891513
vn -0.337854 -0.301761 0.891513
vn -0.337854 -0.301761 0.891513
vn -0.860511 -0.144838 0.488409
vn -0.860511 -0.144838 0.488409
vn -0.860511 -0.144838 0.488409
vn 0.812548 0.248550 -0.527246
vn 0.812548 0.248550 -0.527246
vn 0.812548 0.248550 -0.527246
vn 0.206161 0.152449 -0.966570
vn 0.206161 0.152449 -0.966570
vn 0.206161 0.152449 -0.966570
vn 0.635394 0.655578 -0.408034
vn 0.635394 0.655578 -0.408034
vn 0.635394 0.655578 -0.408034
vn 0.752327 0.242391 0.612578
vn 0.752327 0.242391 0.612578
vn 0.752327 0.242391 0.612578
vn -0.087976 0.968035 0.234880
vn -0.087976 0.968035 0.234880
vn -0.087976 0.968035 0.234880
vn -0.335530 -0.213524 -0.917512
vn -0.335530 -0.213524 -0.917512
vn -0.335530 -0.213524 -0.917512
vn -0.305147 0.265364 -0.914586
vn -0.305147 0.265364 -0.914586
vn -0.305147 0.265364 -0.914586
vn -0.616159 0.724979 0.307822
vn -0.616159 0.724979 0.307822
vn -0.616159 0.724979 0.307822
vn -0.250352 0.451271 -0.856550
vn -0.250352 0.451271 -0.856550
vn -0.250352 0.451271 -0.856550
vn -0.976084 -0.203936 -0.075302
vn -0.976084 -0.203936 -0.075302
vn -0.976084 -0.203936 -0.075302
vn -0.439048 -0.503481 -0.744139
vn -0.439048 -0.503481 -0.744139
vn -0.439048 -0.503481 -0.744139
vn -0.672073 0.710397 -0.208935
vn -0.672073 0.710397 -0.208935
vn -0.672073 0.710397 -0.208935
vn -0.093722 -0.989895 0.106414
vn -0.093722 -0.989895 0.106414
vn -0.093722 -0.989895 0.106414
vn -0.740607 0.655510 -0.147677
vn -0.740607 0.655510 -0.147677
vn -0.740607 0.655510 -0.147677
vn 0.930846 0.197398 0.307506
vn 0.930846 0.197398 0.307506
vn 0.930846 0.197398 0.307506
vn -0.570560 0.575971 -0.585422
vn -0.570560 0.575971 -0.585422
vn -0.570560 0.575971 -0.585422
vn 0.878652 -0.463950 0.112784
vn 0.878652 -0.463950 0.112784
vn 0.878652 -0.463950 0.112784
vn 0.925907 -0.183628 -0.330116
vn 0.925907 -0.183628 -0.330116
vn 0.925907 -0.183628 -0.330116
vn -0.248522 0.823373 0.510190
vn -0.248522 0.823373 0.510190
vn -0.248522 0.823373 0.510190
vn -0.907520 -0.420007 -0.000695
vn -0.907520 -0.420007 -0.000695
vn -0.907520 -0.420007 -0.000695
vn -0.113612 0.897687 -0.425736
vn -0.113612 0.897687 -0.425736
vn -0.113612 0.897687 -0.425736
vn -0.881345 0.136830 0.452226
vn -0.881345 0.136830 0.452226
vn -0.881345 0.136830 0.452226
vn -0.314820 -0.397238 -0.862027
vn -0.314820 -0.397238 -0.862027
vn -0.314820 -0.397238 -0.862027
vn 0.365642 -0.154383 0.917863
vn 0.365642 -0.154383 0.917863
vn 0.365642 -0.154383 0.917863
vn 0.241304 -0.812700 0.530369
vn 0.241304 -0.812700 0.530369
vn 0.241304 -0.812700 0.530369
vn -0.555108 -0.632005 0.540763
vn -0.555108 -0.632005 0.540763
vn -0.555108 -0.632005 0.540763
vn 0.363140 -0.262888 0.893879
vn 0.363140 -0.262888 0.893879
vn 0.363140 -0.262888 0.893879
vn -0.316486 0.887535 0.334841
vn -0.316486 0.887535 0.334841
vn -0.316486 0.887535 0.334841
vn -0.374635 0.360698 0.854135
vn -0.374635 0.360698 0.854135
vn -0.374635 0.360698 0.854135
vn -0.697667 -0.685860 -0.207019
vn -0.697667 -0.685860 -0.207019
vn -0.697667 -0.685860 -0.207019
vn -0.935679 0.332938 -0.116864
vn -0.935679 0.332938 -0.116864
vn -0.935679 0.332938 -0.116864
vn -0.831406 -0.487895 -0.265937
vn -0.831406 -0.487895 -0.265937
vn -0.831406 -0.487895 -0.265937
vn -0.913981 -0.137934 -0.381592
vn -0.913981 -0.137934 -0.381592
vn -0.913981 -0.137934 -0.381592
vn 0.779918 -0.247729 -0.574768
vn 0.779918 -0.247729 -0.574768
vn 0.779918 -0.247729 -0.574768
vn 0.277661 0.038738 -0.959898
vn 0.277661 0.038738 -0.959898
vn 0.277661 0.038738 -0.959898
vn 0.343158 0.801262 0.490123
vn 0.343158 0.801262 0.490123
vn 0.343158 0.801262 0.490123
vn -0.621471 -0.480526 0.618763
vn -0.621471 -0.480526 0.618763
vn -0.621471 -0.480526 0.618763
vn -0.278744 0.957240 -0.077418
vn -0.278744 0.957240 -0.077418
vn -0.278744 0.957240 -0.077418
vn -0.643816 0.336748 -0.687097
vn -0.643816 0.336748 -0.687097
vn -0.643816 0.336748 -0.687097
vn -0.910878 -0.243012 0.333537
vn -0.910878 -0.243012 0.333537
vn -0.910878 -0.243012 0.333537
vn 0.632709 0.771506 0.066759
vn 0.632709 0.771506 0.066759
vn 0.632709 0.771506 0.066759
vn -0.417560 -0.787827 0.452739
vn -0.417560 -0.787827 0.452739
vn -0.417560 -0.787827 0.452739
vn 0.632827 -0.166175 0.756251
vn 0.632827 -0.166175 0.756251
vn 0.632827 -0.166175 0.756251
vn -0.952312 0.138211 -0.272027
vn -0.952312 0.138211 -0.272027
vn -0.952312 0.138211 -0.272027
vn -0.256451 0.904717 0.340177
vn -0.256451 0.904717 0.340177
vn -0.256451 0.904717 0.340177
vn -0.724033 0.442746 0.528916
vn -0.724033 0.442746 0.528916
vn -0.724033 0.442746 0.528916
vn -0.270693 0.473536 -0.838146
vn -0.270693 0.473536 -0.838146
vn -0.270693 0.473536 -0.838146
vn -0.942985 0.113092 0.313034
vn -0.942985 0.113092 0.313034
vn -0.942985 0.113092 0.313034
vn -0.018721 -0.999758 -0.011516
vn -0.018721 -0.999758 -0.011516
vn -0.018721 -0.999758 -0.011516
vn 0.003981 0.999664 -0.025624
vn 0.003981 0.999664 -0.025624
vn 0.003981 0.999664 -0.025624
vn -0.457071 0.834837 0.306813
vn -0.457071 0.834837 0.306813
vn -0.457071 0.834837 0.306813
vn -0.995380 0.008224 -0.095666
vn -0.995380 0.008224 -0.095666
vn -0.995380 0.008224 -0.095666
vn -0.154715 0.832628 -0.531784
vn -0.154715 0.832628 -0.531784
vn -0.154715 0.832628 -0.531784
vn -0.543291 0.733323 0.408745
vn -0.543291 0.733323 0.408745
vn -0.543291 0.733323 0.408745
vn 0.874936 -0.477817 -0.078601
vn 0.874936 -0.477817 -0.078601
vn 0.874936 -0.477817 -0.078601
vn 0.863943 -0.350670 -0.361431
vn 0.863943 -0.350670 -0.361431
vn 0.863943 -0.350670 -0.361431
vn -0.341481 -0.404063 0.848601
vn -0.341481 -0.404063 0.848601
vn -0.341481 -0.404063 0.848601
vn -0.727886 0.566706 0.386040
vn -0.727886 0.566706 0.386040
vn -0.727886 0.566706 0.386040
vn -0.718771 0.672955 -0.174644
vn -0.718771 0.672955 -0.174644
vn -0.718771 0.672955 -0.174644
vn 0.567604 0.142456 0.810883
vn 0.567604 0.142456 0.810883
vn 0.567604 0.142456 0.810883
vn 0.527129 0.671370 0.520958
vn 0.527129 0.671370 0.520958
vn 0.527129 0.671370 0.520958
vn -0.694816 0.513979 0.503047
vn -0.694816 0.513979 0.503047
vn -0.694816 0.513979 0.503047
vn -0.590222 0.633206 -0.500689
vn -0.590222 0.633206 -0.500689
vn -0.590222 0.633206 -0.500689
vn -0.900486 0.431708 -0.052476
vn -0.900486 0.431708 -0.052476
vn -0.900486 0.431708 -0.052476
vn -0.483970 0.804976 0.343201
vn -0.483970 0.804976 0.343201
vn -0.483970 0.804976 0.343201
vn -0.404997 0.907468 -0.111709
vn -0.404997 0.907468 -0.111709
vn -0.404997 0.907468 -0.111709
vn 0.734040 0.144051 -0.663652
vn 0.734040 0.144051 -0.663652
vn 0.734040 0.144051 -0.663652
vn -0.508792 0.860057 -0.037857
vn -0.508792 0.860057 -0.037857
vn -0.508792 0.860057 -0.037857
vn 0.303900 0.950986 -0.057191
vn 0.303900 0.950986 -0.057191
vn 0.303900 0.950986 -0.057191
vn -0.834932 0.536874 -0.121062
vn -0.834932 0.536874 -0.121062
vn -0.834932 0.536874 -0.121062
vn -0.256371 0.854841 0.451132
vn -0.256371 0.854841 0.451132
vn -0.256371 0.854841 0.451132
vn -0.665704 -0.002537 -0.746212
vn -0.665704 -0.002537 -0.746212
vn -0.665704 -0.002537 -0.746212
vn -0.886131 0.079041 0.456644
vn -0.886131 0.079041 0.456644
vn -0.886131 0.079041 0.456644
vn -0.846840 0.267233 -0.459836
vn -0.846840 0.267233 -0.459836
vn -0.846840 0.267233 -0.459836
vn -0.283897 0.934195 0.216060
vn -0.283897 0.934195 0.216060
vn -0.283897 0.934195 0.216060
vn 0.106403 -0.992572 0.058989
vn 0.106403 -0.992572 0.058989
vn 0.106403 -0.992572 0.058989
vn 0.087973 -0.991313 0.097771
vn 0.087973 -0.991313 0.097771
vn 0.087973 -0.991313 0.097771
vn 0.073111 -0.993998 0.081376
vn 0.073111 -0.993998 0.081376
vn 0.073111 -0.993998 0.081376
vn 0.047139 -0.997738 0.047919
vn 0.047139 -0.997738 0.047919
vn 0.047139 -0.997738 0.047919
vn -0.215245 -0.750988 0.624248
vn -0.215245 -0.750988 0.624248
vn -0.215245 -0.750988 0.624248
vn 0.968541 -0.217752 0.120464
vn 0.968541 -0.217752 0.120464
vn 0.968541 -0.217752 0.120464
vn 0.117904 0.989994 0.077527
vn 0.117904 0.989994 0.077527
vn 0.117904 0.989994 0.077527
vn 0.140016 0.968070 0.207931
vn 0.140016 0.968070 0.207931
vn 0.140016 0.968070 0.207931
vn -0.332105 -0.244838 0.910912
vn -0.332105 -0.244838 0.910912
vn -0.332105 -0.244838 0.910912
vn -0.306150 -0.374669 0.875155
vn -0.306150 -0.374669 0.875155
vn -0.306150 -0.374669 0.875155
vn -0.300881 -0.341647 -0.890364
vn -0.300881 -0.341647 -0.890364
vn -0.300881 -0.341647 -0.890364
vn -0.588352 0.740272 0.325330
vn -0.588352 0.740272 0.325330
vn -0.588352 0.740272 0.325330
vn -0.498211 -0.427471 -0.754357
vn -0.498211 -0.427471 -0.754357
vn -0.498211 -0.427471 -0.754357
vn -0.772187 0.579362 -0.260897
vn -0.772187 0.579362 -0.260897
vn -0.772187 0.579362 -0.260897
vn -0.048363 -0.969852 0.238847
vn -0.048363 -0.969852 0.238847
vn -0.048363 -0.969852 0.238847
vn -0.005379 -0.993081 0.117313
vn -0.005379 -0.993081 0.117313
vn -0.005379 -0.993081 0.117313
vn -0.142421 -0.974815 0.171619
vn -0.142421 -0.974815 0.171619
vn -0.142421 -0.974815 0.171619
vn 0.951078 -0.302492 0.062845
vn 0.951078 -0.302492 0.062845
vn 0.951078 -0.302492 0.062845
vn 0.974980 -0.093374 -0.201730
vn 0.974980 -0.093374 -0.201730
vn 0.974980 -0.093374 -0.201730
vn -0.318078 0.780365 0.538383
vn -0.318078 0.780365 0.538383
vn -0.318078 0.780365 0.538383
vn -0.147654 0.771715 0.618591
vn -0.147654 0.771715 0.618591
vn -0.147654 0.771715 0.618591
vn -0.229751 0.846631 0.480031
vn -0.229751 0.846631 0.480031
vn -0.229751 0.846631 0.480031
vn -0.928376 -0.365803 0.065620
vn -0.928376 -0.365803 0.065620
vn -0.928376 -0.365803 0.065620
vn -0.121429 0.877645 -0.463675
vn -0.121429 0.877645 -0.463675
vn -0.121429 0.877645 -0.463675
vn -0.311279 -0.414482 -0.855166
vn -0.311279 -0.414482 -0.855166
vn -0.311279 -0.414482 -0.855166
vn 0.215721 -0.917373 0.334500
vn 0.215721 -0.917373 0.334500
vn 0.215721 -0.917373 0.334500
vn -0.620236 -0.513944 0.592596
vn -0.620236 -0.513944 0.592596
vn -0.620236 -0.513944 0.592596
vn -0.605704 -0.561926 0.563348
vn -0.605704 -0.561926 0.563348
vn -0.605704 -0.561926 0.563348
vn 0.434656 -0.311449 0.845029
vn 0.434656 -0.311449 0.845029
vn 0.434656 -0.311449 0.845029
vn -0.966660 0.236536 -0.098074
vn -0.966660 0.236536 -0.098074
vn -0.966660 0.236536 -0.098074
vn 0.804138 -0.283633 -0.522411
vn 0.804138 -0.283633 -0.522411
vn 0.804138 -0.283633 -0.522411
vn 0.311873 0.827432 0.467002
vn 0.311873 0.827432 0.467002
vn 0.311873 0.827432 0.467002
vn -0.630147 -0.445885 0.635690
vn -0.630147 -0.445885 0.635690
vn -0.630147 -0.445885 0.635690
vn -0.441575 0.890528 -0.109418
vn -0.441575 0.890528 -0.109418
vn -0.441575 0.890528 -0.109418
vn -0.652867 0.317055 -0.687925
vn -0.652867 0.317055 -0.687925
vn -0.652867 0.317055 -0.687925
vn -0.893806 -0.411244 0.178858
vn -0.893806 -0.411244 0.178858
vn -0.893806 -0.411244 0.178858
vn 0.541281 0.839961 0.038477
vn 0.541281 0.839961 0.038477
vn 0.541281 0.839961 0.038477
vn -0.278737 0.448898 -0.848997
vn -0.278737 0.448898 -0.848997
vn -0.278737 0.448898 -0.848997
vn -0.005841 -0.999759 0.021152
vn -0.005841 -0.999759 0.021152
vn -0.005841 -0.999759 0.021152
vn -0.018779 -0.998767 -0.045948
vn -0.018779 -0.998767 -0.045948
vn -0.018779 -0.998767 -0.045948
vn -0.086912 -0.996006 -0.020441
vn -0.086912 -0.996006 -0.020441
vn -0.086912 -0.996006 -0.020441
vn -0.013572 -0.999643 -0.023033
vn -0.013572 -0.999643 -0.023033
vn -0.013572 -0.999643 -0.023033
vn -0.023964 -0.999161 -0.033224
vn -0.023964 -0.999161 -0.033224
vn -0.023964 -0.999161 -0.033224
vn 0.004140 -0.999385 0.034814
vn 0.004140 -0.999385 0.034814
vn 0.004140 -0.999385 0.034814
vn -0.026750 -0.985868 0.165375
vn -0.026750 -0.985868 0.165375
vn -0.026750 -0.985868 0.165375
vn -0.022609 0.998466 0.050551
vn -0.022609 0.998466 0.050551
vn -0.022609 0.998466 0.050551
vn -0.023449 0.999202 -0.032332
vn -0.023449 0.999202 -0.032332
vn -0.023449 0.999202 -0.032332
vn -0.012149 0.999843 -0.012897
vn -0.012149 0.999843 -0.012897
vn -0.012149 0.999843 -0.012897
vn 0.056164 0.997666 0.038824
vn 0.056164 0.997666 0.038824
vn 0.056164 0.997666 0.038824
vn -0.030848 0.998626 0.042367
vn -0.030848 0.998626 0.042367
vn -0.030848 0.998626 0.042367
vn -0.549698 0.723542 0.417515
vn -0.549698 0.723542 0.417515
vn -0.549698 0.723542 0.417515
vn 0.972100 -0.168035 -0.163665
vn 0.972100 -0.168035 -0.163665
vn 0.972100 -0.168035 -0.163665
vn -0.351738 -0.578694 0.735795
vn -0.351738 -0.578694 0.735795
vn -0.351738 -0.578694 0.735795
vn -0.391602 -0.243787 0.887252
vn -0.391602 -0.243787 0.887252
vn -0.391602 -0.243787 0.887252
vn -0.791457 0.473381 0.386661
vn -0.791457 0.473381 0.386661
vn -0.791457 0.473381 0.386661
vn -0.649029 0.742460 -0.165875
vn -0.649029 0.742460 -0.165875
vn -0.649029 0.742460 -0.165875
vn 0.591376 0.077202 0.802692
vn 0.591376 0.077202 0.802692
vn 0.591376 0.077202 0.802692
vn -0.603490 0.666282 0.438027
vn -0.603490 0.666282 0.438027
vn -0.603490 0.666282 0.438027
vn -0.521177 0.714242 -0.467155
vn -0.521177 0.714242 -0.467155
vn -0.521177 0.714242 -0.467155
vn -0.915136 0.394480 -0.083137
vn -0.915136 0.394480 -0.083137
vn -0.915136 0.394480 -0.083137
vn -0.315311 0.945612 0.079981
vn -0.315311 0.945612 0.079981
vn -0.315311 0.945612 0.079981
vn -0.472338 0.877262 -0.085492
vn -0.472338 0.877262 -0.085492
vn -0.472338 0.877262 -0.085492
vn -0.505973 0.853004 -0.127970
vn -0.505973 0.853004 -0.127970
vn -0.505973 0.853004 -0.127970
vn -0.508845 0.854370 -0.105496
vn -0.508845 0.854370 -0.105496
vn -0.508845 0.854370 -0.105496
vn 0.729338 0.047654 -0.682492
vn 0.729338 0.047654 -0.682492
vn 0.729338 0.047654 -0.682492
vn 0.321215 0.944824 -0.064260
vn 0.321215 0.944824 -0.064260
vn 0.321215 0.944824 -0.064260
s off
g EM_Stone8_LOD0
usemtl initialShadingGroup
f 53/1/1 7/95/2 47/3/3
f 48/4/4 33/5/5 54/6/6
f 71/7/7 57/8/8 61/9/9
f 22/89/10 26/11/11 36/91/12
f 33/5/13 32/13/14 54/6/15
f 66/14/16 11/15/17 79/16/18
f 59/17/19 70/18/20 63/19/21
f 77/20/22 74/21/23 75/22/24
f 64/23/25 67/24/26 70/18/27
f 53/1/28 42/25/29 8/26/30
f 15/27/31 10/28/32 16/29/33
f 79/16/34 77/20/35 75/22/36
f 54/6/37 55/30/38 48/4/39
f 14/105/40 17/82/41 56/33/42
f 14/105/43 52/34/44 51/104/45
f 17/32/46 14/31/47 13/36/48
f 34/37/49 16/29/50 72/84/51
f 34/37/52 36/91/53 11/15/54
f 50/39/55 3/40/56 44/41/57
f 51/35/58 45/42/59 31/43/60
f 24/44/61 21/81/62 30/46/63
f 31/43/64 14/88/65 51/35/66
f 40/47/67 48/4/68 49/48/69
f 45/42/70 43/49/71 41/50/72
f 43/49/73 53/1/74 55/30/75
f 71/7/76 61/9/77 62/51/78
f 35/52/79 32/13/80 33/5/81
f 16/29/82 10/28/83 72/84/84
f 29/86/85 31/43/86 32/13/87
f 59/17/88 9/97/89 60/55/90
f 17/82/91 5/56/92 56/33/93
f 36/91/94 27/57/95 79/16/96
f 37/58/97 4/96/98 38/60/99
f 13/36/100 29/53/101 20/80/102
f 49/48/103 48/4/104 55/30/105
f 46/62/106 51/35/107 52/102/108
f 66/14/109 75/22/110 73/63/111
f 74/21/112 73/63/113 75/22/114
f 4/96/115 6/93/116 78/65/117
f 23/66/118 63/19/119 58/67/120
f 25/90/121 18/69/122 21/45/123
f 12/85/124 36/91/125 34/37/126
f 54/6/127 41/50/128 43/49/129
f 48/4/130 28/71/131 24/44/132
f 54/6/133 43/49/134 55/30/135
f 3/40/136 8/26/137 42/25/138
f 60/55/139 65/72/140 64/23/141
f 1/98/142 50/101/143 52/34/144
f 15/27/145 66/14/146 67/24/147
f 69/74/148 77/20/149 68/75/150
f 25/68/151 28/71/152 22/89/153
f 32/13/154 45/42/155 41/50/156
f 38/60/157 61/9/158 57/8/159
f 65/72/160 15/27/161 67/24/162
f 77/20/163 71/7/164 76/76/165
f 2/94/166 59/17/167 63/19/168
f 54/6/169 32/13/170 41/50/171
f 35/52/172 24/44/173 30/46/174
f 27/57/175 39/78/176 57/8/177
f 46/62/178 50/39/179 44/41/180
f 57/8/181 39/78/182 38/60/183
f 7/2/184 3/99/185 5/100/186
f 18/69/187 22/10/188 72/38/189
f 19/79/190 22/10/191 36/12/192
f 37/58/193 47/3/194 7/95/195
f 31/87/196 29/53/197 14/31/198
f 26/11/199 39/78/200 27/57/201
f 5/56/202 60/55/203 9/97/204
f 56/33/205 5/56/206 1/98/207
f 58/67/208 62/51/209 78/65/210
f 55/30/211 47/3/212 49/48/213
f 49/48/214 37/58/215 40/47/216
f 73/63/217 67/24/218 66/14/219
f 34/37/220 72/84/221 12/85/222
f 24/44/223 33/5/224 48/4/225
f 43/49/226 44/41/227 42/25/228
f 38/60/229 40/47/230 37/58/231
f 27/57/232 69/74/233 68/75/234
f 32/13/235 35/52/236 30/46/237
f 52/34/238 56/33/239 1/98/240
f 25/90/241 22/10/242 18/69/243
f 10/83/244 13/36/245 72/38/246
f 48/4/247 40/47/248 39/78/249
f 36/12/250 12/70/251 19/79/252
f 3/40/253 42/25/254 44/41/255
f 53/1/256 8/26/257 7/95/258
f 71/7/259 69/74/260 57/8/261
f 22/89/262 28/71/263 26/11/264
f 59/17/265 60/55/266 64/23/267
f 70/18/268 74/21/269 63/19/270
f 74/21/271 58/67/272 63/19/273
f 59/17/274 64/23/275 70/18/276
f 77/20/277 76/76/278 74/21/279
f 64/23/280 65/72/281 67/24/282
f 16/29/283 34/37/284 15/27/285
f 34/37/286 11/15/287 15/27/288
f 75/22/289 66/14/290 79/16/291
f 79/16/292 68/75/293 77/20/294
f 50/39/295 1/103/296 3/40/297
f 24/44/298 25/68/299 21/81/300
f 45/42/301 46/62/302 43/49/303
f 43/49/304 42/25/305 53/1/306
f 62/51/307 58/67/308 76/76/309
f 58/67/310 74/21/311 76/76/312
f 76/76/313 71/7/314 62/51/315
f 59/17/316 2/94/317 9/97/318
f 17/82/319 10/28/320 5/56/321
f 79/16/322 11/15/323 36/91/324
f 36/91/325 26/11/326 27/57/327
f 27/57/328 68/75/329 79/16/330
f 37/58/331 7/95/332 4/96/333
f 13/36/334 14/31/335 29/53/336
f 46/62/337 45/42/338 51/35/339
f 74/21/340 70/18/341 73/63/342
f 62/51/343 61/9/344 78/65/345
f 61/9/346 4/96/347 78/65/348
f 23/66/349 2/94/350 63/19/351
f 48/4/352 39/78/353 28/71/354
f 60/55/355 10/28/356 65/72/357
f 15/27/358 11/15/359 66/14/360
f 69/74/361 71/7/362 77/20/363
f 25/68/364 24/44/365 28/71/366
f 32/13/367 31/43/368 45/42/369
f 38/60/370 4/96/371 61/9/372
f 65/72/373 10/28/374 15/27/375
f 46/62/376 52/102/377 50/39/378
f 6/64/379 4/59/380 9/54/381
f 4/59/382 7/2/383 9/54/384
f 7/95/385 8/26/386 3/40/387
f 3/99/388 1/73/389 5/100/390
f 5/100/391 9/54/392 7/2/393
f 9/54/394 2/77/395 6/64/396
f 2/77/397 23/92/398 6/64/399
f 22/10/400 19/79/401 72/38/402
f 19/79/403 12/70/404 72/38/405
f 72/38/406 13/36/407 18/69/408
f 13/36/409 20/80/410 18/69/411
f 20/80/412 21/45/413 18/69/414
f 26/11/415 28/71/416 39/78/417
f 5/56/418 10/28/419 60/55/420
f 6/93/421 23/66/422 78/65/423
f 23/66/424 58/67/425 78/65/426
f 55/30/427 53/1/428 47/3/429
f 49/48/430 47/3/431 37/58/432
f 73/63/433 70/18/434 67/24/435
f 24/44/436 35/52/437 33/5/438
f 43/49/439 46/62/440 44/41/441
f 38/60/442 39/78/443 40/47/444
f 27/57/445 57/8/446 69/74/447
f 21/81/448 20/61/449 30/46/450
f 20/61/451 29/86/452 32/13/453
f 30/46/454 20/61/455 32/13/456
f 52/34/457 14/105/458 56/33/459
f 10/83/460 17/32/461 13/36/462
