# This file uses centimeters as units for non-parametric coordinates.

mtllib Ê¯°åÂ·5.mtl
g default
v -164.833200 13.105592 36.485195
v -102.978694 21.511030 -239.799786
v 130.340469 -4.650109 6.442460
v 20.080119 17.886895 -289.232254
v -118.144739 7.703671 147.768509
v 39.192510 59.109819 249.821258
v 42.114270 16.017042 287.319493
v -57.737446 25.020316 201.501608
v 176.888931 -5.988551 157.034874
v 158.238924 19.315684 150.094974
v 130.754459 38.341346 192.899585
v 127.479315 11.056901 223.913026
v 38.356858 -40.636268 280.779600
v 40.204418 -23.615108 291.487885
v 171.147311 -59.109741 107.047534
v 176.727533 -36.981714 96.427619
v -63.628459 -51.843792 207.773256
v -48.321128 -32.923272 237.942147
v -6.625804 -45.139450 253.829479
v -79.047656 -27.585369 -253.741550
v -89.473546 -15.213825 -257.541633
v -165.827870 -49.766871 -2.766165
v -176.888931 -36.679009 1.648712
v -16.069140 -29.759258 -280.023694
v -5.636214 -17.306542 -291.487885
v 41.589788 -37.962899 -256.824780
v 37.968421 -23.610577 -272.986817
v 91.621542 -43.735704 240.631580
v 105.310822 -29.154766 242.987466
v 133.646595 -46.781212 204.884529
v 137.433887 -31.678414 217.255402
v 86.641437 -49.208018 -203.342509
v -154.149723 -53.501785 70.404816
v -160.777986 -38.687378 67.631501
v -117.247474 -54.463488 155.805480
v -126.889038 -45.945492 162.453604
v 165.740299 -51.940197 168.598485
v 175.655389 -37.577361 172.813213
v -94.836044 -53.236789 184.445608
v -99.449289 -40.247425 201.551151
v 161.059117 -55.883855 -8.492335
v 84.252787 -2.690869 -203.038168
v -120.999694 -21.843053 171.328366
v -152.447045 -19.093065 94.604868
v -84.681243 -5.254805 204.979753
v -88.691616 -15.269150 207.395792
vt 0.468994 0.658936
vt 0.468994 0.658936
vt 0.468994 0.658936
vt 0.468994 0.658936
vt 0.468994 0.658936
vt 0.468994 0.658936
vt 0.468994 0.658936
vt 0.468994 0.658936
vt 0.468994 0.658936
vt 0.468994 0.658936
vt 0.468994 0.658936
vt 0.468994 0.658936
vt 0.468994 0.658936
vt 0.468994 0.658936
vt 0.468994 0.658936
vt 0.468994 0.658936
vt 0.468994 0.658936
vt 0.468994 0.658936
vt 0.468994 0.658936
vt 0.468994 0.658936
vt 0.468994 0.658936
vt 0.468994 0.658936
vt 0.468994 0.658936
vt 0.468994 0.658936
vt 0.468994 0.658936
vt 0.468994 0.658936
vt 0.468994 0.658936
vt 0.468994 0.658936
vt 0.468994 0.658936
vt 0.468994 0.658936
vt 0.468994 0.658936
vt 0.468994 0.658936
vt 0.468994 0.658936
vt 0.468994 0.658936
vt 0.468994 0.658936
vt 0.468994 0.658936
vt 0.468994 0.658936
vt 0.468994 0.658936
vt 0.468994 0.658936
vt 0.468994 0.658936
vt 0.468994 0.658936
vt 0.468994 0.658936
vt 0.468994 0.658936
vt 0.468994 0.658936
vt 0.468994 0.658936
vt 0.468994 0.658936
vn -0.092679 -0.988510 -0.119412
vn -0.092679 -0.988510 -0.119412
vn -0.092679 -0.988510 -0.119412
vn 0.812270 0.099675 0.574701
vn 0.812270 0.099675 0.574701
vn 0.812270 0.099675 0.574701
vn 0.504897 0.585853 0.633920
vn 0.504897 0.585853 0.633920
vn 0.504897 0.585853 0.633920
vn 0.827442 0.505289 -0.244994
vn 0.827442 0.505289 -0.244994
vn 0.827442 0.505289 -0.244994
vn 0.999388 -0.032145 0.013777
vn 0.999388 -0.032145 0.013777
vn 0.999388 -0.032145 0.013777
vn 0.094748 0.981920 0.163880
vn 0.094748 0.981920 0.163880
vn 0.094748 0.981920 0.163880
vn 0.307754 0.926991 -0.214420
vn 0.307754 0.926991 -0.214420
vn 0.307754 0.926991 -0.214420
vn 0.168965 -0.740448 -0.650529
vn 0.168965 -0.740448 -0.650529
vn 0.168965 -0.740448 -0.650529
vn -0.545833 0.396651 0.738061
vn -0.545833 0.396651 0.738061
vn -0.545833 0.396651 0.738061
vn -0.854024 0.372279 0.363390
vn -0.854024 0.372279 0.363390
vn -0.854024 0.372279 0.363390
vn 0.757872 0.616842 0.212451
vn 0.757872 0.616842 0.212451
vn 0.757872 0.616842 0.212451
vn -0.425990 -0.448191 0.785912
vn -0.425990 -0.448191 0.785912
vn -0.425990 -0.448191 0.785912
vn 0.809876 0.124721 -0.573188
vn 0.809876 0.124721 -0.573188
vn 0.809876 0.124721 -0.573188
vn -0.618058 0.607387 0.499084
vn -0.618058 0.607387 0.499084
vn -0.618058 0.607387 0.499084
vn -0.941513 -0.056911 0.332136
vn -0.941513 -0.056911 0.332136
vn -0.941513 -0.056911 0.332136
vn 0.357482 -0.202790 -0.911637
vn 0.357482 -0.202790 -0.911637
vn 0.357482 -0.202790 -0.911637
vn -0.346518 0.309949 -0.885357
vn -0.346518 0.309949 -0.885357
vn -0.346518 0.309949 -0.885357
vn -0.447677 -0.807123 0.384886
vn -0.447677 -0.807123 0.384886
vn -0.447677 -0.807123 0.384886
vn 0.574110 -0.569073 0.588688
vn 0.574110 -0.569073 0.588688
vn 0.574110 -0.569073 0.588688
vn -0.343922 -0.790179 0.507282
vn -0.343922 -0.790179 0.507282
vn -0.343922 -0.790179 0.507282
vn -0.892105 -0.344395 0.292473
vn -0.892105 -0.344395 0.292473
vn -0.892105 -0.344395 0.292473
vn 0.954332 -0.284465 -0.091268
vn 0.954332 -0.284465 -0.091268
vn 0.954332 -0.284465 -0.091268
vn 0.626175 0.024454 0.779299
vn 0.626175 0.024454 0.779299
vn 0.626175 0.024454 0.779299
vn 0.970900 -0.239196 0.011762
vn 0.970900 -0.239196 0.011762
vn 0.970900 -0.239196 0.011762
vn 0.117096 0.991519 0.056380
vn 0.117096 0.991519 0.056380
vn 0.117096 0.991519 0.056380
vn -0.727466 -0.667870 0.157296
vn -0.727466 -0.667870 0.157296
vn -0.727466 -0.667870 0.157296
vn 0.027185 -0.992814 0.116543
vn 0.027185 -0.992814 0.116543
vn 0.027185 -0.992814 0.116543
vn -0.584671 0.062542 0.808856
vn -0.584671 0.062542 0.808856
vn -0.584671 0.062542 0.808856
vn -0.342215 -0.464982 -0.816505
vn -0.342215 -0.464982 -0.816505
vn -0.342215 -0.464982 -0.816505
vn -0.429278 -0.650968 0.626068
vn -0.429278 -0.650968 0.626068
vn -0.429278 -0.650968 0.626068
vn 0.587045 -0.535536 -0.607108
vn 0.587045 -0.535536 -0.607108
vn 0.587045 -0.535536 -0.607108
vn -0.519860 0.540435 0.661571
vn -0.519860 0.540435 0.661571
vn -0.519860 0.540435 0.661571
vn -0.926962 -0.182544 -0.327748
vn -0.926962 -0.182544 -0.327748
vn -0.926962 -0.182544 -0.327748
vn -0.703504 0.483390 0.520976
vn -0.703504 0.483390 0.520976
vn -0.703504 0.483390 0.520976
vn -0.019526 -0.998663 -0.047859
vn -0.019526 -0.998663 -0.047859
vn -0.019526 -0.998663 -0.047859
vn -0.775406 -0.551697 -0.307206
vn -0.775406 -0.551697 -0.307206
vn -0.775406 -0.551697 -0.307206
vn -0.683897 -0.667087 -0.295430
vn -0.683897 -0.667087 -0.295430
vn -0.683897 -0.667087 -0.295430
vn 0.467903 -0.550941 0.691036
vn 0.467903 -0.550941 0.691036
vn 0.467903 -0.550941 0.691036
vn -0.968760 0.067634 0.238600
vn -0.968760 0.067634 0.238600
vn -0.968760 0.067634 0.238600
vn -0.083441 0.885405 -0.457269
vn -0.083441 0.885405 -0.457269
vn -0.083441 0.885405 -0.457269
vn 0.746908 0.273551 0.606052
vn 0.746908 0.273551 0.606052
vn 0.746908 0.273551 0.606052
vn 0.933578 0.050261 -0.354833
vn 0.933578 0.050261 -0.354833
vn 0.933578 0.050261 -0.354833
vn -0.749091 0.172988 0.639482
vn -0.749091 0.172988 0.639482
vn -0.749091 0.172988 0.639482
vn 0.774444 0.432188 0.462007
vn 0.774444 0.432188 0.462007
vn 0.774444 0.432188 0.462007
vn 0.454882 -0.629804 0.629627
vn 0.454882 -0.629804 0.629627
vn 0.454882 -0.629804 0.629627
vn -0.337341 -0.710958 0.617042
vn -0.337341 -0.710958 0.617042
vn -0.337341 -0.710958 0.617042
vn -0.551001 -0.802453 0.229055
vn -0.551001 -0.802453 0.229055
vn -0.551001 -0.802453 0.229055
vn 0.795532 -0.589848 0.138591
vn 0.795532 -0.589848 0.138591
vn 0.795532 -0.589848 0.138591
vn -0.914095 -0.385356 0.126220
vn -0.914095 -0.385356 0.126220
vn -0.914095 -0.385356 0.126220
vn -0.913848 0.356860 -0.193735
vn -0.913848 0.356860 -0.193735
vn -0.913848 0.356860 -0.193735
vn -0.920878 0.084913 0.380492
vn -0.920878 0.084913 0.380492
vn -0.920878 0.084913 0.380492
vn -0.078867 0.971437 -0.223809
vn -0.078867 0.971437 -0.223809
vn -0.078867 0.971437 -0.223809
vn -0.088274 -0.987598 -0.129839
vn -0.088274 -0.987598 -0.129839
vn -0.088274 -0.987598 -0.129839
vn -0.088320 -0.987152 -0.133159
vn -0.088320 -0.987152 -0.133159
vn -0.088320 -0.987152 -0.133159
vn 0.511487 0.617652 0.597401
vn 0.511487 0.617652 0.597401
vn 0.511487 0.617652 0.597401
vn 0.809038 0.522426 -0.269311
vn 0.809038 0.522426 -0.269311
vn 0.809038 0.522426 -0.269311
vn 0.807269 0.547939 -0.219271
vn 0.807269 0.547939 -0.219271
vn 0.807269 0.547939 -0.219271
vn 0.820931 0.543380 -0.175530
vn 0.820931 0.543380 -0.175530
vn 0.820931 0.543380 -0.175530
vn 0.169613 -0.717720 -0.675359
vn 0.169613 -0.717720 -0.675359
vn 0.169613 -0.717720 -0.675359
vn -0.857544 0.350221 0.376780
vn -0.857544 0.350221 0.376780
vn -0.857544 0.350221 0.376780
vn -0.429590 -0.442534 0.787157
vn -0.429590 -0.442534 0.787157
vn -0.429590 -0.442534 0.787157
vn 0.826671 0.046118 -0.560793
vn 0.826671 0.046118 -0.560793
vn 0.826671 0.046118 -0.560793
vn -0.351690 0.299191 -0.887017
vn -0.351690 0.299191 -0.887017
vn -0.351690 0.299191 -0.887017
vn -0.478017 -0.756819 0.445784
vn -0.478017 -0.756819 0.445784
vn -0.478017 -0.756819 0.445784
vn 0.563148 -0.603554 0.564435
vn 0.563148 -0.603554 0.564435
vn 0.563148 -0.603554 0.564435
vn 0.597405 0.050305 0.800360
vn 0.597405 0.050305 0.800360
vn 0.597405 0.050305 0.800360
vn 0.599503 0.055090 0.798474
vn 0.599503 0.055090 0.798474
vn 0.599503 0.055090 0.798474
vn 0.062291 0.997809 0.022302
vn 0.062291 0.997809 0.022302
vn 0.062291 0.997809 0.022302
vn 0.059660 0.998212 -0.003790
vn 0.059660 0.998212 -0.003790
vn 0.059660 0.998212 -0.003790
vn 0.029790 -0.992783 0.116165
vn 0.029790 -0.992783 0.116165
vn 0.029790 -0.992783 0.116165
vn 0.028833 -0.993628 0.108955
vn 0.028833 -0.993628 0.108955
vn 0.028833 -0.993628 0.108955
vn 0.030384 -0.999357 0.019027
vn 0.030384 -0.999357 0.019027
vn 0.030384 -0.999357 0.019027
vn -0.006450 -0.998354 0.056982
vn -0.006450 -0.998354 0.056982
vn -0.006450 -0.998354 0.056982
vn -0.032031 -0.993094 0.112863
vn -0.032031 -0.993094 0.112863
vn -0.032031 -0.993094 0.112863
vn 0.027398 -0.990425 0.135306
vn 0.027398 -0.990425 0.135306
vn 0.027398 -0.990425 0.135306
vn -0.522927 0.114044 0.844714
vn -0.522927 0.114044 0.844714
vn -0.522927 0.114044 0.844714
vn -0.543609 0.176654 0.820538
vn -0.543609 0.176654 0.820538
vn -0.543609 0.176654 0.820538
vn -0.342626 -0.527527 -0.777382
vn -0.342626 -0.527527 -0.777382
vn -0.342626 -0.527527 -0.777382
vn -0.520429 0.539229 0.662107
vn -0.520429 0.539229 0.662107
vn -0.520429 0.539229 0.662107
vn -0.712480 0.420792 0.561521
vn -0.712480 0.420792 0.561521
vn -0.712480 0.420792 0.561521
vn -0.019174 -0.999454 -0.026920
vn -0.019174 -0.999454 -0.026920
vn -0.019174 -0.999454 -0.026920
vn -0.020517 -0.999448 -0.026113
vn -0.020517 -0.999448 -0.026113
vn -0.020517 -0.999448 -0.026113
vn -0.009362 -0.999930 -0.007215
vn -0.009362 -0.999930 -0.007215
vn -0.009362 -0.999930 -0.007215
vn 0.503037 -0.498684 0.705881
vn 0.503037 -0.498684 0.705881
vn 0.503037 -0.498684 0.705881
vn -0.966564 0.072274 0.246029
vn -0.966564 0.072274 0.246029
vn -0.966564 0.072274 0.246029
vn 0.504378 -0.577285 0.642141
vn 0.504378 -0.577285 0.642141
vn 0.504378 -0.577285 0.642141
vn -0.817634 -0.012159 0.575610
vn -0.817634 -0.012159 0.575610
vn -0.817634 -0.012159 0.575610
vn -0.079145 0.971355 -0.224065
vn -0.079145 0.971355 -0.224065
vn -0.079145 0.971355 -0.224065
s off
g EM_Stone9_LOD0
usemtl lambert2SG
f 32/32/1 22/22/2 20/20/3
f 31/31/4 9/9/5 12/12/6
f 12/12/7 6/6/8 7/7/9
f 3/3/10 10/10/11 16/16/12
f 38/38/13 16/16/14 9/9/15
f 42/42/16 4/4/17 2/2/18
f 10/10/19 3/3/20 11/11/21
f 27/27/22 24/24/23 25/25/24
f 45/45/25 46/46/26 7/7/27
f 5/5/28 44/44/29 43/43/30
f 11/11/31 9/9/32 10/10/33
f 14/14/34 19/19/35 13/13/36
f 42/42/37 27/27/38 4/4/39
f 45/45/40 8/8/41 5/5/42
f 34/34/43 36/36/44 44/44/45
f 27/27/46 25/25/47 4/4/48
f 25/25/49 2/2/50 4/4/51
f 39/39/52 36/36/53 35/35/54
f 38/38/55 30/30/56 37/37/57
f 17/17/58 40/40/59 39/39/60
f 33/33/61 36/36/62 34/34/63
f 41/41/64 16/16/65 15/15/66
f 29/29/67 31/31/68 12/12/69
f 38/38/70 15/15/71 16/16/72
f 42/42/73 2/2/74 1/1/75
f 22/22/76 34/34/77 23/23/78
f 30/30/79 28/28/80 17/17/81
f 46/46/82 40/40/83 18/18/84
f 24/24/85 21/21/86 25/25/87
f 19/19/88 18/18/89 17/17/90
f 27/27/91 32/32/92 26/26/93
f 8/8/94 7/7/95 6/6/96
f 23/23/97 2/2/98 21/21/99
f 43/43/100 45/45/101 5/5/102
f 33/33/103 22/22/104 41/41/105
f 22/22/106 23/23/107 21/21/108
f 22/22/109 21/21/110 20/20/111
f 14/14/112 28/28/113 29/29/114
f 34/34/115 1/1/116 23/23/117
f 8/8/118 6/6/119 11/11/120
f 31/31/121 38/38/122 9/9/123
f 41/41/124 32/32/125 42/42/126
f 40/40/127 46/46/128 43/43/129
f 11/11/130 12/12/131 9/9/132
f 29/29/133 30/30/134 31/31/135
f 17/17/136 18/18/137 40/40/138
f 33/33/139 35/35/140 36/36/141
f 38/38/142 37/37/143 15/15/144
f 22/22/145 33/33/146 34/34/147
f 23/23/148 1/1/149 2/2/150
f 36/36/151 43/43/152 44/44/153
f 3/3/154 8/8/155 11/11/156
f 24/24/157 26/26/158 20/20/159
f 26/26/160 32/32/161 20/20/162
f 12/12/163 11/11/164 6/6/165
f 9/9/166 16/16/167 10/10/168
f 16/16/169 41/41/170 3/3/171
f 41/41/172 42/42/173 3/3/174
f 27/27/175 26/26/176 24/24/177
f 5/5/178 1/1/179 44/44/180
f 14/14/181 18/18/182 19/19/183
f 42/42/184 32/32/185 27/27/186
f 25/25/187 21/21/188 2/2/189
f 39/39/190 40/40/191 36/36/192
f 38/38/193 31/31/194 30/30/195
f 12/12/196 7/7/197 29/29/198
f 7/7/199 14/14/200 29/29/201
f 5/5/202 3/3/203 1/1/204
f 3/3/205 42/42/206 1/1/207
f 13/13/208 19/19/209 28/28/210
f 19/19/211 17/17/212 28/28/213
f 17/17/214 39/39/215 35/35/216
f 35/35/217 15/15/218 17/17/219
f 15/15/220 37/37/221 30/30/222
f 17/17/223 15/15/224 30/30/225
f 18/18/226 14/14/227 7/7/228
f 7/7/229 46/46/230 18/18/231
f 24/24/232 20/20/233 21/21/234
f 8/8/235 45/45/236 7/7/237
f 43/43/238 46/46/239 45/45/240
f 32/32/241 41/41/242 22/22/243
f 41/41/244 15/15/245 35/35/246
f 33/33/247 41/41/248 35/35/249
f 14/14/250 13/13/251 28/28/252
f 34/34/253 44/44/254 1/1/255
f 29/29/256 28/28/257 30/30/258
f 36/36/259 40/40/260 43/43/261
f 3/3/262 5/5/263 8/8/264
