# This file uses centimeters as units for non-parametric coordinates.

mtllib ÷»×Ó.mtl
g default
v -0.523900 -0.723268 0.591394
v -0.594732 -0.688635 0.594732
v -0.590539 -0.724123 0.525109
v -0.523900 -0.751225 0.523900
v -0.751224 -0.523900 0.523900
v -0.723267 -0.591394 0.523900
v -0.688635 -0.594732 0.594732
v -0.723267 -0.523900 0.591394
v -0.723267 -0.523900 -0.591394
v -0.688635 -0.594732 -0.594732
v -0.724122 -0.590539 -0.525109
v -0.751224 -0.523900 -0.523900
v -0.523900 -0.751225 -0.523900
v -0.591394 -0.723268 -0.523900
v -0.594732 -0.688635 -0.594732
v -0.523900 -0.723268 -0.591394
v -0.591394 -0.523900 0.723267
v -0.594732 -0.594732 0.688635
v -0.525109 -0.590539 0.724122
v -0.523900 -0.523900 0.751224
v 0.591394 -0.723268 0.523900
v 0.594732 -0.688635 0.594732
v 0.525109 -0.724123 0.590539
v 0.523900 -0.751225 0.523900
v 0.523900 -0.523900 0.751224
v 0.523900 -0.591394 0.723267
v 0.594732 -0.594732 0.688635
v 0.591394 -0.523900 0.723267
v -0.523900 0.591394 0.723267
v -0.594732 0.594732 0.688635
v -0.590539 0.525109 0.724122
v -0.523900 0.523900 0.751224
v -0.751224 0.523900 0.523900
v -0.723267 0.523900 0.591394
v -0.688635 0.594732 0.594732
v -0.723267 0.591394 0.523900
v 0.723267 -0.523900 0.591394
v 0.688635 -0.594732 0.594732
v 0.724122 -0.590539 0.525109
v 0.751224 -0.523900 0.523900
v 0.523900 -0.723268 -0.591394
v 0.594732 -0.688635 -0.594732
v 0.590539 -0.724123 -0.525109
v 0.523900 -0.751225 -0.523900
v 0.724122 -0.525109 -0.590539
v 0.751224 -0.523900 -0.523900
v 0.723267 -0.591394 -0.523900
v 0.688635 -0.594732 -0.594732
v 0.723267 0.591394 0.523900
v 0.688635 0.594732 0.594732
v 0.724122 0.525109 0.590539
v 0.751224 0.523900 0.523900
v 0.525109 0.590539 0.724122
v 0.523900 0.523900 0.751224
v 0.591394 0.523900 0.723267
v 0.594732 0.594732 0.688635
v -0.523900 0.751224 0.523900
v -0.591394 0.723267 0.523900
v -0.594732 0.688635 0.594732
v -0.523900 0.723267 0.591394
v -0.523900 0.723267 -0.591394
v -0.594732 0.688635 -0.594732
v -0.590539 0.724122 -0.525109
v -0.523900 0.751224 -0.523900
v -0.751224 0.523900 -0.523900
v -0.723267 0.591394 -0.523900
v -0.688635 0.594732 -0.594732
v -0.723267 0.523900 -0.591394
v 0.523900 0.751224 0.523900
v 0.523900 0.723267 0.591394
v 0.594732 0.688635 0.594732
v 0.591394 0.723267 0.523900
v 0.723267 0.523900 -0.591394
v 0.688635 0.594732 -0.594732
v 0.724122 0.590539 -0.525109
v 0.751224 0.523900 -0.523900
v 0.525109 0.724122 -0.590539
v 0.523900 0.751224 -0.523900
v 0.591394 0.723267 -0.523900
v 0.594732 0.688635 -0.594732
v -0.523900 0.523900 -0.751224
v -0.591394 0.523900 -0.723267
v -0.594732 0.594732 -0.688635
v -0.523900 0.591394 -0.723267
v -0.523900 -0.591394 -0.723267
v -0.594732 -0.594732 -0.688635
v -0.590539 -0.525109 -0.724122
v -0.523900 -0.523900 -0.751224
v 0.523900 0.523900 -0.751224
v 0.523900 0.591394 -0.723267
v 0.594732 0.594732 -0.688635
v 0.591394 0.523900 -0.723267
v 0.525109 -0.590539 -0.724122
v 0.523900 -0.523900 -0.751224
v 0.591394 -0.523900 -0.723267
v 0.594732 -0.594732 -0.688635
vt 0.507834 0.751400
vt 0.786001 0.026547
vt 0.800101 0.056618
vt 0.508166 0.764467
vt 0.508350 0.811840
vt 0.765059 0.014844
vt 0.765325 0.038853
vt 0.318004 0.813473
vt 0.319637 1.003819
vt 0.047699 0.020730
vt 0.060805 0.015747
vt 0.317602 0.766305
vt 0.027043 0.033058
vt 0.047993 0.044760
vt 0.766004 0.056689
vt 0.506201 0.561055
vt 0.285593 0.557019
vt 0.536159 0.533673
vt 0.506087 0.547783
vt 0.523853 0.512997
vt 0.767766 0.247248
vt 0.547862 0.512730
vt 0.562328 0.058641
vt 0.564450 0.309384
vt 0.549062 0.058755
vt 0.549735 0.040528
vt 0.562549 0.011521
vt 0.501418 -0.001266
vt 0.549447 0.016501
vt 0.528790 0.028808
vt 0.506017 0.513682
vt 0.315338 0.502249
vt 0.285533 0.535801
vt 0.015092 0.253612
vt 0.315452 0.515520
vt 0.297232 0.514843
vt 0.273203 0.515141
vt 0.302268 0.501910
vt 0.313717 0.311558
vt 0.504069 0.309925
vt 0.522175 0.297332
vt 0.503956 0.296653
vt 0.533874 0.276380
vt 0.551190 0.310140
vt 0.546205 0.297035
vt 0.515193 0.059043
vt 0.542815 0.265121
vt 0.501925 0.059156
vt 0.311600 0.060773
vt 0.298332 0.060886
vt 0.284258 0.030849
vt 0.311201 0.013605
vt 0.263326 0.019121
vt 0.263576 0.043126
vt 0.503671 0.262774
vt 0.313198 0.251118
vt 0.295550 0.299176
vt 0.300529 0.312295
vt 0.271542 0.299443
vt 0.313312 0.264390
vt 0.283245 0.278501
vt 0.264463 0.061171
vt 0.257086 0.297976
vt 0.251196 0.061283
vt 0.060925 0.049799
vt 0.060586 0.062869
vt 0.049197 0.253549
vt 0.266698 0.312560
vt 0.268218 0.502035
vt 0.062267 0.253219
vt 0.508236 0.798568
vt 0.046379 0.006486
vt 0.544837 0.544804
vt 0.751943 0.010001
vt 0.752205 0.043833
vt 0.562667 0.045571
vt 0.294219 0.546927
vt 0.552705 0.499613
vt 0.518874 0.499878
vt 0.517139 0.310264
vt 0.547865 0.002175
vt 0.501813 0.045885
vt 0.295398 0.022184
vt 0.560448 0.295713
vt 0.309779 0.297869
vt 0.250211 0.014267
vt 0.250457 0.048096
vt 0.274567 0.267369
vt 0.015994 0.042023
vt 0.047317 0.062981
vt 0.752940 0.057021
vt 0.565906 0.500198
vt 0.503559 0.249503
vt 0.253497 0.311975
vt 0.000170 0.063373
vt 0.505686 0.500616
vt 0.046534 0.059233
vt 0.250801 0.001068
vt 0.509983 1.002185
vt 0.766632 0.053082
vt 0.013441 0.063263
vt 0.005842 0.033140
vt 0.015785 0.024114
vt 0.317672 0.800406
vt 0.060051 0.002486
vt 0.766527 0.000388
vt 0.752528 -0.003200
vt 0.807219 0.026500
vt 0.797132 0.017869
vt 0.797250 0.035501
vt 0.254957 0.502790
vt 0.252741 0.251626
vt 0.258959 0.516461
vt 0.266017 0.251515
vt 0.300128 0.251449
vt 0.516834 0.249390
vt 0.550946 0.249321
vt 0.276585 0.547056
vt 0.564017 0.248989
vt 0.754491 0.247362
vt 0.562318 0.514197
vt 0.801870 0.247179
vt 0.001820 0.253723
vt 0.317488 0.753034
vt 0.813372 0.056505
vt 0.814938 0.246847
vt 0.264803 0.004665
vt 0.311269 0.047707
vt 0.517542 0.019850
vt 0.501529 0.012005
vt 0.311089 0.000334
vt 0.561786 -0.001737
vt 0.265140 0.057438
vt 0.295493 0.039822
vt 0.305473 0.030830
vt 0.507591 0.028871
vt 0.517736 0.037764
vt 0.548272 0.055001
vt 0.292199 0.267252
vt 0.313385 0.298491
vt 0.283198 0.257283
vt 0.533787 0.255179
vt 0.524907 0.265333
vt 0.507702 0.295875
vt 0.311706 0.516295
vt 0.315522 0.549621
vt 0.509624 0.514305
vt 0.527205 0.544922
vt 0.315854 0.562688
vt 0.536205 0.554891
vn -0.017896 -0.780809 0.624514
vn -0.024933 -0.999384 0.024709
vn 0.024709 -0.999384 0.024933
vn 0.018311 -0.780989 0.624276
vn -0.502244 -0.704294 0.501718
vn -0.018311 -0.624275 0.780990
vn -0.502657 -0.501196 0.704371
vn -0.624276 -0.780989 0.018311
vn -0.705489 -0.500147 0.502134
vn -0.780926 -0.624359 0.018164
vn -0.624361 -0.780925 -0.018164
vn -0.024740 -0.999379 -0.025100
vn -0.999379 -0.024740 0.025100
vn -0.781146 -0.018178 0.624084
vn -0.780994 0.018121 0.624275
vn -0.999371 0.025078 0.025078
vn -0.999376 -0.024911 -0.025047
vn -0.780990 -0.624275 -0.018311
vn -0.624093 -0.018001 0.781143
vn -0.780877 -0.017853 -0.624430
vn -0.999371 0.025078 -0.025078
vn -0.781146 0.018179 -0.624084
vn -0.704295 -0.502242 -0.501718
vn -0.624046 -0.018359 -0.781172
vn -0.501197 -0.502656 -0.704371
vn -0.500149 -0.705488 -0.502134
vn -0.018179 -0.781146 -0.624084
vn 0.017853 -0.780877 -0.624429
vn 0.024911 -0.999376 -0.025047
vn -0.018001 -0.624092 -0.781143
vn -0.024710 -0.024933 0.999384
vn -0.024933 0.024709 0.999384
vn -0.624046 0.018359 0.781172
vn 0.018164 -0.624360 0.780926
vn 0.025100 -0.024740 0.999379
vn 0.624514 -0.780808 0.017896
vn 0.624276 -0.780989 -0.018311
vn 0.501718 -0.704294 0.502244
vn 0.780990 -0.624275 0.018311
vn 0.704371 -0.501196 0.502657
vn 0.502133 -0.500147 0.705489
vn 0.624083 -0.018179 0.781146
vn 0.624429 0.017853 0.780877
vn 0.025047 0.024911 0.999376
vn 0.781143 -0.018001 0.624093
vn -0.018001 0.624093 0.781143
vn 0.018359 0.624046 0.781172
vn -0.501197 0.502656 0.704371
vn -0.018179 0.781146 0.624084
vn -0.501089 0.705564 0.501089
vn -0.705489 0.502132 0.500148
vn -0.781147 0.624083 0.018179
vn -0.780995 0.624275 -0.018121
vn -0.623938 0.781260 0.018270
vn 0.999384 -0.024933 0.024709
vn 0.999384 0.024709 0.024933
vn 0.781172 0.018359 0.624046
vn 0.780809 -0.624513 -0.017896
vn 0.999384 -0.024709 -0.024933
vn 0.502244 -0.704294 -0.501718
vn 0.018359 -0.624046 -0.781172
vn 0.501718 -0.502243 -0.704295
vn 0.704295 -0.501717 -0.502243
vn 0.781172 -0.018359 -0.624046
vn 0.624429 -0.017853 -0.780877
vn 0.781143 0.018001 -0.624093
vn 0.999384 0.024933 -0.024709
vn 0.781143 0.624093 0.018001
vn 0.781172 0.624046 -0.018359
vn 0.704371 0.502656 0.501197
vn 0.624084 0.781146 0.018178
vn 0.502133 0.705489 0.500148
vn 0.501718 0.502243 0.704295
vn 0.018121 0.780994 0.624276
vn -0.024740 0.999379 0.025100
vn 0.025078 0.999371 0.025078
vn -0.024933 0.999384 -0.024709
vn -0.624046 0.781172 -0.018359
vn -0.018001 0.781143 -0.624093
vn 0.025047 0.999376 -0.024911
vn 0.018359 0.781172 -0.624046
vn -0.501197 0.704370 -0.502657
vn -0.018179 0.624083 -0.781147
vn -0.501089 0.501088 -0.705564
vn -0.705489 0.500147 -0.502134
vn -0.623938 0.018270 -0.781260
vn 0.624430 0.780877 -0.017853
vn 0.704371 0.501197 -0.502656
vn 0.624083 0.018179 -0.781146
vn 0.502134 0.500147 -0.705489
vn 0.501718 0.704295 -0.502243
vn 0.018121 0.624275 -0.780994
vn -0.024740 0.025100 -0.999379
vn 0.025078 0.025078 -0.999371
vn -0.024933 -0.024709 -0.999384
vn 0.025047 -0.024911 -0.999376
s 1
g pCube1
usemtl initialShadingGroup
f 1/3/1 4/125/2 24/126/3 23/122/4
f 2/2/5 1/110/1 19/100/6 18/7/7
f 3/109/8 2/2/5 7/6/9 6/106/10
f 4/1/2 3/4/8 14/12/11 13/124/12
f 5/107/13 8/74/14 34/27/15 33/132/16
f 6/71/10 5/5/13 12/8/17 11/104/18
f 8/74/14 7/6/9 18/7/7 17/75/19
f 9/11/20 12/105/17 65/98/21 68/86/22
f 10/10/23 9/11/20 87/65/24 86/14/25
f 11/72/18 10/10/23 15/13/26 14/103/11
f 13/95/12 16/101/27 41/34/28 44/123/29
f 16/89/27 15/13/26 86/14/25 85/97/30
f 17/75/19 20/91/31 32/23/32 31/76/33
f 20/91/31 19/15/6 26/21/34 25/120/35
f 21/19/36 24/16/3 44/149/29 43/146/37
f 22/18/38 21/148/36 39/147/39 38/20/40
f 23/73/4 22/18/38 27/22/41 26/121/34
f 25/92/35 28/78/42 55/44/43 54/24/44
f 28/78/42 27/22/41 38/20/40 37/79/45
f 29/25/46 32/23/32 54/119/44 53/117/47
f 30/26/48 29/138/46 60/137/49 59/30/50
f 31/76/33 30/26/48 35/29/51 34/27/15
f 33/28/16 36/130/52 66/52/53 65/131/21
f 36/81/52 35/29/51 59/30/50 58/129/54
f 37/79/45 40/96/55 52/40/56 51/80/57
f 40/96/55 39/31/39 47/35/58 46/32/59
f 42/33/60 41/118/28 93/113/61 96/37/62
f 43/77/37 42/33/60 48/36/63 47/145/58
f 45/38/64 48/36/63 96/37/62 95/69/65
f 46/32/59 45/38/64 73/58/66 76/39/67
f 49/42/68 52/40/56 76/39/67 75/140/69
f 50/41/70 49/144/68 72/143/71 71/43/72
f 51/80/57 50/41/70 56/45/73 55/44/43
f 53/84/47 56/45/73 71/43/72 70/47/74
f 57/48/75 60/46/49 70/116/74 69/93/76
f 58/82/54 57/48/75 64/49/77 63/128/78
f 61/50/79 64/49/77 78/56/80 77/115/81
f 62/51/82 61/134/79 84/133/83 83/54/84
f 63/83/78 62/51/82 67/53/85 66/127/53
f 68/86/22 67/53/85 83/54/84 82/87/86
f 69/93/76 72/55/71 79/60/87 78/56/80
f 74/57/88 73/58/66 92/68/89 91/59/90
f 75/85/69 74/57/88 80/61/91 79/139/87
f 77/88/81 80/61/91 91/59/90 90/63/92
f 81/64/93 84/62/83 90/114/92 89/112/94
f 82/87/86 81/64/93 88/66/95 87/65/24
f 85/90/30 88/66/95 94/70/96 93/67/61
f 89/94/94 92/68/89 95/69/65 94/111/96
f 3/4/8 6/71/10 11/104/18 14/12/11
f 19/15/6 1/3/1 23/122/4 26/21/34
f 8/74/14 17/75/19 31/76/33 34/27/15
f 39/31/39 21/19/36 43/146/37 47/35/58
f 28/78/42 37/79/45 51/80/57 55/44/43
f 36/130/52 58/82/54 63/128/78 66/52/53
f 60/46/49 29/25/46 53/117/47 70/116/74
f 72/55/71 49/42/68 75/140/69 79/60/87
f 68/86/22 82/87/86 87/65/24 9/11/20
f 84/62/83 61/50/79 77/115/81 90/114/92
f 92/68/89 73/58/66 45/38/64 95/69/65
f 16/101/27 85/90/30 93/67/61 41/34/28
f 20/91/31 25/120/35 54/119/44 32/23/32
f 57/48/75 69/93/76 78/56/80 64/49/77
f 81/64/93 89/112/94 94/70/96 88/66/95
f 13/124/12 44/149/29 24/16/3 4/1/2
f 40/96/55 46/32/59 76/39/67 52/40/56
f 12/8/17 5/5/13 33/99/16 65/9/21
f 2/2/5 18/7/7 7/6/9
f 38/20/40 27/22/41 22/18/38
f 35/29/51 30/26/48 59/30/50
f 71/43/72 56/45/73 50/41/70
f 67/53/85 62/51/82 83/54/84
f 91/59/90 80/61/91 74/57/88
f 10/10/23 86/14/25 15/13/26
f 42/33/60 96/37/62 48/36/63
f 1/110/1 2/2/5 3/109/8 4/108/2
f 5/107/13 6/106/10 7/6/9 8/74/14
f 9/11/20 10/10/23 11/72/18 12/105/17
f 13/102/12 14/103/11 15/13/26 16/89/27
f 17/75/19 18/7/7 19/100/6 20/91/31
f 21/148/36 22/18/38 23/73/4 24/150/3
f 25/92/35 26/121/34 27/22/41 28/78/42
f 29/138/46 30/26/48 31/76/33 32/23/32
f 33/132/16 34/27/15 35/29/51 36/81/52
f 37/79/45 38/20/40 39/147/39 40/96/55
f 41/118/28 42/33/60 43/77/37 44/17/29
f 45/38/64 46/32/59 47/145/58 48/36/63
f 49/144/68 50/41/70 51/80/57 52/40/56
f 53/84/47 54/24/44 55/44/43 56/45/73
f 57/136/75 58/129/54 59/30/50 60/137/49
f 61/134/79 62/51/82 63/83/78 64/135/77
f 65/98/21 66/127/53 67/53/85 68/86/22
f 69/142/76 70/47/74 71/43/72 72/143/71
f 73/58/66 74/57/88 75/85/69 76/39/67
f 77/88/81 78/141/80 79/139/87 80/61/91
f 81/64/93 82/87/86 83/54/84 84/133/83
f 85/97/30 86/14/25 87/65/24 88/66/95
f 89/94/94 90/63/92 91/59/90 92/68/89
f 93/113/61 94/111/96 95/69/65 96/37/62
